<svg viewBox="0 0 512 512" fill="none" xmlns="http://www.w3.org/2000/svg">
<path d="M144 219.2C158.933 159.467 196.267 129.6 256 129.6C345.6 129.6 356.8 196.8 401.6 208C431.467 215.467 457.6 204.267 480 174.4C465.067 234.133 427.733 264 368 264C278.4 264 267.2 196.8 222.4 185.6C192.533 178.133 166.4 189.333 144 219.2ZM32 353.6C46.9333 293.867 84.2667 264 144 264C233.6 264 244.8 331.2 289.6 342.4C319.467 349.867 345.6 338.667 368 308.8C353.067 368.533 315.733 398.4 256 398.4C166.4 398.4 155.2 331.2 110.4 320C80.5333 312.533 54.4 323.733 32 353.6Z" fill="#44A8B3"/>
</svg>
