<svg viewBox="0 0 117 117" fill="none" xmlns="http://www.w3.org/2000/svg">
<path d="M8.256 58.083C8.256 77.807 19.719 94.851 36.34 102.929L12.57 37.804C9.72053 44.185 8.25046 51.0957 8.256 58.084V58.083ZM91.724 55.569C91.724 49.411 89.512 45.146 87.614 41.826C85.088 37.722 82.721 34.246 82.721 30.142C82.721 25.561 86.195 21.297 91.088 21.297C91.309 21.297 91.518 21.325 91.734 21.337C82.869 13.215 71.058 8.257 58.085 8.257C40.677 8.257 25.362 17.188 16.452 30.717C17.622 30.751 18.723 30.776 19.659 30.776C24.871 30.776 32.939 30.143 32.939 30.143C35.625 29.985 35.941 33.93 33.259 34.248C33.259 34.248 30.559 34.566 27.555 34.723L45.701 88.696L56.605 55.992L48.842 34.722C46.159 34.564 43.617 34.246 43.617 34.246C40.931 34.089 41.247 29.983 43.931 30.142C43.931 30.142 52.161 30.774 57.057 30.774C62.267 30.774 70.337 30.142 70.337 30.142C73.024 29.983 73.34 33.928 70.656 34.246C70.656 34.246 67.951 34.564 64.953 34.721L82.96 88.286L87.93 71.676C90.084 64.785 91.724 59.835 91.724 55.569V55.569ZM58.959 62.442L44.009 105.885C48.5798 107.231 53.3201 107.915 58.085 107.915C63.7208 107.917 69.316 106.962 74.632 105.09C74.494 104.872 74.3756 104.643 74.278 104.404L58.959 62.442V62.442ZM101.808 34.177C102.022 35.764 102.144 37.467 102.144 39.301C102.144 44.357 101.199 50.041 98.354 57.148L83.134 101.155C97.948 92.516 107.912 76.467 107.912 58.085C107.913 49.421 105.7 41.275 101.808 34.177V34.177ZM58.085 0C26.058 0 0 26.056 0 58.083C0 90.115 26.058 116.17 58.085 116.17C90.112 116.17 116.173 90.115 116.173 58.083C116.173 26.056 90.112 0 58.085 0ZM58.085 113.507C27.527 113.507 2.663 88.644 2.663 58.083C2.663 27.525 27.526 2.663 58.085 2.663C88.643 2.663 113.505 27.525 113.505 58.083C113.505 88.644 88.643 113.507 58.085 113.507V113.507Z" fill="#00749A"/>
</svg>
