<svg viewBox="0 0 256 256" fill="none" xmlns="http://www.w3.org/2000/svg">
<g filter="url(#filter0_d)">
<path d="M128 250C196.483 250 252 194.483 252 126C252 57.5167 196.483 2 128 2C59.5167 2 4 57.5167 4 126C4 194.483 59.5167 250 128 250Z" fill="url(#paint0_linear)"/>
</g>
<path d="M128 240.7C191.347 240.7 242.7 189.347 242.7 126C242.7 62.6528 191.347 11.2998 128 11.2998C64.6527 11.2998 13.2998 62.6528 13.2998 126C13.2998 189.347 64.6527 240.7 128 240.7Z" fill="url(#paint1_radial)"/>
<path d="M128.194 39.2002C127.419 39.2002 126.741 38.6192 126.741 37.8442V17.5972C126.741 16.8222 127.419 16.2412 128.194 16.2412C128.969 16.2412 129.647 16.8222 129.647 17.5972V37.8442C129.55 38.6192 128.969 39.2002 128.194 39.2002Z" fill="#F3F3F3"/>
<path d="M128.194 39.297C127.322 39.297 126.644 38.619 126.644 37.844V17.597C126.644 16.822 127.322 16.144 128.194 16.144C129.066 16.144 129.744 16.822 129.744 17.597V37.844C129.744 38.619 128.969 39.297 128.194 39.297ZM128.194 16.337C127.516 16.337 126.838 16.919 126.838 17.597V37.844C126.838 38.522 127.419 39.104 128.194 39.104C128.872 39.104 129.55 38.522 129.55 37.844V17.597C129.454 16.919 128.872 16.337 128.194 16.337V16.337Z" fill="white"/>
<path d="M137.882 28.3503C137.107 28.2533 136.526 27.6723 136.526 26.8973L137.204 17.8873C137.3 17.1133 137.979 16.5313 138.754 16.6283C139.529 16.7253 140.11 17.3073 140.11 18.0823L139.432 27.0913C139.335 27.8663 138.657 28.4473 137.882 28.3513V28.3503Z" fill="#F3F3F3"/>
<path d="M137.882 28.4471C137.01 28.3501 136.429 27.6721 136.429 26.8971L137.107 17.8871C137.204 17.1131 137.882 16.4351 138.754 16.5311C139.625 16.6281 140.207 17.3071 140.207 18.0811L139.529 27.0911C139.432 27.9631 138.754 28.5441 137.882 28.4471ZM138.754 16.7251C138.076 16.7251 137.397 17.2101 137.397 17.8881L136.719 26.8981C136.719 27.5751 137.204 28.1571 137.979 28.2531C138.657 28.2531 139.335 27.7691 139.335 27.0911L140.013 18.0811C140.013 17.4031 139.432 16.8221 138.753 16.7251H138.754Z" fill="white"/>
<path d="M145.148 40.9439C144.372 40.7499 143.888 40.0719 143.985 39.2969L147.957 19.4369C148.151 18.6629 148.829 18.1779 149.604 18.3719C150.379 18.5659 150.863 19.2439 150.766 20.0189L146.794 39.8789C146.697 40.5559 145.922 41.0409 145.147 40.9439H145.148Z" fill="#F3F3F3"/>
<path d="M145.148 41.0409C144.275 40.8469 143.791 40.0719 143.888 39.2969L147.86 19.4369C148.054 18.6629 148.829 18.0809 149.7 18.2749C150.572 18.4689 151.057 19.2439 150.96 20.0189L146.988 39.8789C146.794 40.6529 146.019 41.1379 145.148 41.0409ZM149.7 18.4689C149.022 18.3719 148.344 18.7589 148.15 19.4379L144.179 39.2979C144.082 39.9749 144.469 40.6529 145.244 40.8479C145.922 40.9439 146.6 40.5559 146.794 39.8779L150.766 20.0189C150.863 19.2439 150.379 18.6629 149.7 18.4689V18.4689Z" fill="white"/>
<path d="M156.772 32.2251C156.588 32.1806 156.414 32.1002 156.26 31.9885C156.107 31.8767 155.977 31.7358 155.878 31.5738C155.779 31.4119 155.713 31.232 155.684 31.0445C155.655 30.857 155.662 30.6655 155.707 30.4811L158.129 21.7631C158.322 20.9881 159.097 20.6001 159.872 20.7941C160.647 20.9881 161.132 21.7631 160.938 22.5381L158.516 31.2571C158.322 32.0311 157.547 32.4191 156.772 32.2251Z" fill="#F3F3F3"/>
<path d="M156.772 32.3221C155.997 32.1281 155.416 31.2561 155.707 30.4821L158.129 21.7621C158.322 20.9881 159.194 20.5031 159.969 20.6971C160.744 20.8911 161.325 21.7631 161.035 22.5371L158.613 31.2571C158.419 32.0311 157.644 32.5161 156.773 32.3221H156.772ZM159.969 20.9881C159.291 20.7941 158.516 21.1821 158.322 21.8601L155.901 30.5781C155.707 31.2561 156.094 31.9351 156.869 32.1281C157.547 32.3221 158.322 31.9351 158.516 31.2571L160.938 22.5371C161.035 21.8601 160.648 21.1821 159.969 20.9871V20.9881Z" fill="white"/>
<path d="M161.519 45.8853C160.744 45.5943 160.454 44.7223 160.744 44.0443L168.494 25.3473C168.784 24.6693 169.657 24.2813 170.334 24.6693C171.11 24.9593 171.401 25.8323 171.11 26.5093L163.36 45.2063C163.07 45.8853 162.197 46.2723 161.52 45.8853H161.519Z" fill="#F3F3F3"/>
<path d="M161.519 45.9821C161.147 45.8403 160.846 45.5566 160.682 45.1933C160.519 44.8301 160.506 44.4168 160.647 44.0441L168.397 25.3471C168.688 24.5721 169.56 24.2811 170.432 24.5721C170.804 24.714 171.105 24.9976 171.268 25.3609C171.432 25.7242 171.445 26.1375 171.304 26.5101L163.554 45.2071C163.166 45.9821 162.294 46.3691 161.519 45.9821ZM170.335 24.7661C169.657 24.4761 168.882 24.7661 168.591 25.4441L160.841 44.1411C160.551 44.8191 160.938 45.4971 161.616 45.7881C162.294 46.0781 163.069 45.7881 163.36 45.1101L171.11 26.4131C171.304 25.8311 171.013 25.0561 170.335 24.7661V24.7661Z" fill="white"/>
<path d="M174.598 39.6851C173.919 39.2971 173.628 38.5221 173.919 37.8441L177.988 29.8041C178.375 29.1251 179.15 28.8341 179.926 29.2221C180.604 29.6101 180.894 30.3851 180.604 31.0621L176.534 39.1031C176.147 39.7811 175.372 40.0731 174.597 39.6851H174.598Z" fill="#F3F3F3"/>
<path d="M174.598 39.7821C173.822 39.3941 173.532 38.5221 173.919 37.7471L177.988 29.7071C178.375 28.9311 179.248 28.6411 180.022 29.0281C180.797 29.4161 181.088 30.2881 180.7 31.0631L176.632 39.1031C176.244 39.8781 175.372 40.1691 174.597 39.7811L174.598 39.7821ZM179.926 29.2221C179.247 28.9321 178.472 29.1251 178.182 29.8031L174.113 37.8441C173.823 38.4251 174.113 39.2001 174.694 39.5881C175.372 39.8781 176.147 39.6851 176.438 39.0071L180.507 30.9661C180.797 30.3851 180.507 29.6101 179.926 29.2221Z" fill="white"/>
<path d="M176.535 54.0219C175.857 53.5379 175.663 52.6659 176.147 52.0849L187.385 35.3249C187.772 34.6469 188.645 34.5499 189.322 34.9379C190.001 35.4219 190.194 36.2939 189.71 36.8749L178.472 53.6349C178.085 54.3129 177.213 54.5069 176.535 54.0219Z" fill="#F3F3F3"/>
<path d="M176.535 54.1192C175.857 53.6352 175.663 52.6662 176.051 51.9882L187.288 35.2282C187.772 34.5502 188.644 34.3562 189.419 34.8412C190.097 35.3252 190.291 36.2942 189.904 36.9722L178.666 53.7322C178.182 54.4102 177.213 54.6032 176.535 54.1192ZM189.322 35.0352C188.742 34.6472 187.869 34.7442 187.482 35.3252L176.244 52.0852C175.857 52.6652 176.05 53.4412 176.632 53.8282C177.213 54.2162 178.085 54.1192 178.472 53.5382L189.71 36.8752C190.097 36.2942 189.904 35.4222 189.322 35.0352V35.0352Z" fill="white"/>
<path d="M190.678 50.4381C190.098 49.9531 189.904 49.0811 190.388 48.5001L196.007 41.4281C196.491 40.8481 197.363 40.7501 197.944 41.2351C198.526 41.7191 198.719 42.5911 198.234 43.1721L192.616 50.2441C192.132 50.8251 191.26 50.9221 190.679 50.4381H190.678Z" fill="#F3F3F3"/>
<path d="M190.582 50.535C189.904 50.05 189.807 49.081 190.292 48.403L195.91 41.332C196.394 40.653 197.363 40.556 198.041 41.138C198.719 41.622 198.816 42.591 198.331 43.269L192.713 50.341C192.229 51.019 191.26 51.116 190.582 50.535V50.535ZM197.847 41.331C197.267 40.847 196.491 40.944 196.007 41.525L190.388 48.597C190.001 49.178 190.098 49.953 190.678 50.437C191.26 50.922 192.035 50.825 192.519 50.244L198.138 43.172C198.526 42.591 198.428 41.719 197.848 41.332L197.847 41.331Z" fill="white"/>
<path d="M189.71 64.9692C189.129 64.3882 189.129 63.5162 189.71 63.0312L204.047 48.7912C204.629 48.2102 205.5 48.3062 205.985 48.7912C206.469 49.2752 206.566 50.2442 205.985 50.7282L191.745 64.9692C191.163 65.5502 190.291 65.5502 189.71 64.9692V64.9692Z" fill="#F3F3F3"/>
<path d="M189.613 65.0663C189.334 64.782 189.177 64.3994 189.177 64.0008C189.177 63.6022 189.334 63.2195 189.613 62.9353L203.95 48.6943C204.235 48.4146 204.617 48.2578 205.016 48.2578C205.415 48.2578 205.798 48.4146 206.082 48.6943C206.362 48.9785 206.518 49.3612 206.518 49.7598C206.518 50.1584 206.362 50.541 206.082 50.8253L191.744 65.0653C191.46 65.3447 191.077 65.5012 190.679 65.5012C190.28 65.5012 189.897 65.3447 189.613 65.0653V65.0663ZM205.985 48.7913C205.501 48.3063 204.629 48.3063 204.145 48.7913L189.807 63.0313C189.322 63.5163 189.322 64.3883 189.807 64.8723C190.291 65.3573 191.163 65.3573 191.647 64.8723L205.985 50.6323C206.469 50.1473 206.469 49.3723 205.985 48.7913Z" fill="white"/>
<path d="M204.241 64.1939C203.757 63.6129 203.757 62.7409 204.338 62.2559L211.216 56.4439C211.797 55.9599 212.669 56.0559 213.154 56.6379C213.638 57.2189 213.638 58.0909 213.057 58.5749L206.179 64.3879C205.597 64.8719 204.725 64.7749 204.241 64.1939Z" fill="#F3F3F3"/>
<path d="M204.144 64.2912C203.563 63.6132 203.66 62.6442 204.241 62.1602L211.119 56.3472C211.7 55.7662 212.669 55.8632 213.25 56.5412C213.832 57.2192 213.735 58.1882 213.154 58.6722L206.275 64.4852C205.695 65.0652 204.725 64.9692 204.145 64.2912H204.144ZM213.057 56.6382C212.572 56.0572 211.797 56.0572 211.217 56.4442L204.338 62.2572C203.854 62.7412 203.757 63.5162 204.241 64.0972C204.725 64.6782 205.501 64.6782 206.081 64.2912L212.96 58.4782C213.541 57.9942 213.541 57.2192 213.057 56.6382Z" fill="white"/>
<path d="M200.366 78.144C199.882 77.466 200.076 76.594 200.754 76.206L217.61 64.969C218.288 64.581 219.16 64.775 219.547 65.357C220.032 66.035 219.838 66.907 219.16 67.294L202.304 78.531C201.722 78.919 200.85 78.725 200.366 78.144V78.144Z" fill="#F3F3F3"/>
<path d="M200.269 78.144C199.785 77.466 199.979 76.497 200.657 76.013L217.513 64.775C218.191 64.291 219.16 64.485 219.644 65.26C220.129 65.938 219.934 66.907 219.257 67.39L202.401 78.629C201.722 79.114 200.754 78.92 200.269 78.145V78.144ZM219.45 65.454C219.063 64.872 218.288 64.678 217.707 65.066L200.85 76.303C200.27 76.691 200.075 77.466 200.56 78.144C200.947 78.725 201.722 78.919 202.304 78.532L219.16 67.294C219.741 66.81 219.838 66.034 219.45 65.454Z" fill="white"/>
<path d="M214.801 80.1792C214.413 79.5002 214.607 78.6292 215.285 78.2412L223.132 73.7852C223.81 73.3972 224.682 73.6882 225.069 74.3652C225.457 75.0442 225.263 75.9152 224.585 76.3032L216.738 80.7602C216.06 81.1472 215.188 80.8572 214.8 80.1782L214.801 80.1792Z" fill="#F3F3F3"/>
<path d="M214.704 80.2752C214.316 79.5002 214.51 78.6282 215.188 78.2412L223.035 73.7852C223.713 73.3972 224.682 73.6882 225.069 74.3652C225.457 75.1412 225.263 76.0132 224.585 76.4002L216.738 80.8572C216.06 81.2442 215.091 80.9532 214.704 80.2752V80.2752ZM224.972 74.4632C224.585 73.7852 223.81 73.5912 223.229 73.9782L215.382 78.4352C214.801 78.8222 214.607 79.5972 214.897 80.1782C215.285 80.8562 216.06 81.0502 216.641 80.6632L224.488 76.2062C225.069 75.9162 225.263 75.1412 224.972 74.4632V74.4632Z" fill="white"/>
<path d="M208.31 93.0629C208.02 92.2879 208.31 91.5129 209.085 91.2229L227.782 83.4729C228.46 83.1819 229.332 83.5689 229.622 84.2469C229.913 85.0219 229.622 85.7969 228.847 86.0869L210.151 93.8369C209.472 94.1279 208.601 93.8369 208.31 93.0629Z" fill="#F3F3F3"/>
<path d="M208.213 93.159C207.923 92.385 208.213 91.513 208.988 91.125L227.685 83.375C228.057 83.2346 228.47 83.2475 228.833 83.411C229.196 83.5744 229.48 83.875 229.622 84.247C229.913 85.022 229.622 85.894 228.847 86.281L210.151 94.031C209.778 94.1718 209.365 94.1592 209.002 93.9959C208.639 93.8327 208.355 93.5321 208.213 93.16V93.159ZM229.429 84.344C229.138 83.666 228.363 83.375 227.782 83.569L209.085 91.319C208.407 91.609 208.116 92.385 208.407 93.063C208.697 93.741 209.472 94.032 210.054 93.838L228.75 86.088C229.429 85.798 229.72 85.022 229.429 84.344Z" fill="white"/>
<path d="M221.969 97.9072C221.679 97.1312 222.066 96.3572 222.841 96.0662L231.366 93.2562C232.044 92.9662 232.916 93.4502 233.11 94.1282C233.4 94.9032 233.013 95.6782 232.238 95.9692L223.713 98.7792C223.035 99.0692 222.26 98.6822 221.969 97.9062V97.9072Z" fill="#F3F3F3"/>
<path d="M221.872 98.0034C221.582 97.2284 221.969 96.3564 222.842 96.0664L231.366 93.2564C232.141 92.9664 233.013 93.4504 233.304 94.2264C233.594 95.0004 233.207 95.8724 232.334 96.1634L223.81 98.9734C223.035 99.1664 222.163 98.7784 221.872 98.0034ZM233.11 94.3234C232.916 93.6444 232.141 93.2564 231.463 93.4504L222.938 96.2604C222.26 96.4534 221.969 97.2284 222.163 97.9074C222.357 98.5854 223.132 98.9724 223.81 98.7784L232.335 95.9694C233.013 95.6794 233.304 95.0004 233.11 94.3224V94.3234Z" fill="white"/>
<path d="M213.251 109.435C213.057 108.66 213.541 107.885 214.316 107.788L234.176 103.913C234.95 103.719 235.629 104.3 235.822 105.075C236.016 105.85 235.532 106.625 234.757 106.722L214.897 110.597C214.122 110.694 213.347 110.21 213.25 109.435H213.251Z" fill="#F3F3F3"/>
<path d="M213.057 109.435C212.863 108.563 213.444 107.788 214.219 107.594L234.079 103.719C234.854 103.525 235.629 104.107 235.822 104.979C236.016 105.85 235.435 106.625 234.66 106.819L214.8 110.694C214.026 110.888 213.25 110.307 213.057 109.434V109.435ZM235.629 105.075C235.532 104.397 234.854 103.913 234.176 104.01L214.316 107.885C213.638 107.982 213.154 108.756 213.347 109.435C213.444 110.113 214.122 110.597 214.801 110.5L234.66 106.625C235.338 106.431 235.822 105.753 235.629 105.075Z" fill="white"/>
<path d="M225.651 116.894C225.554 116.119 226.038 115.441 226.813 115.344L235.725 114.278C236.5 114.182 237.179 114.763 237.275 115.538C237.372 116.313 236.888 116.991 236.113 117.088L227.2 118.153C226.522 118.25 225.747 117.669 225.65 116.894H225.651Z" fill="#F3F3F3"/>
<path d="M225.554 116.894C225.457 116.022 226.038 115.247 226.813 115.15L235.725 114.085C236.5 113.988 237.275 114.569 237.372 115.441C237.469 116.313 236.888 117.088 236.113 117.185L227.2 118.25C226.426 118.347 225.65 117.766 225.554 116.894ZM237.275 115.538C237.179 114.86 236.501 114.278 235.822 114.375L226.91 115.441C226.232 115.538 225.747 116.216 225.844 116.894C225.941 117.572 226.619 118.154 227.297 118.057L236.21 116.991C236.888 116.894 237.372 116.216 237.276 115.538H237.275Z" fill="white"/>
<path d="M214.801 126.291C214.801 125.516 215.381 124.838 216.157 124.838H236.404C237.179 124.838 237.76 125.516 237.76 126.291C237.76 127.066 237.179 127.744 236.404 127.744H216.157C215.382 127.744 214.801 127.066 214.801 126.291Z" fill="#F3F3F3"/>
<path d="M214.704 126.291C214.704 125.419 215.382 124.741 216.157 124.741H236.404C237.179 124.741 237.857 125.419 237.857 126.291C237.857 127.163 237.179 127.841 236.404 127.841H216.157C215.382 127.841 214.704 127.163 214.704 126.291ZM237.663 126.388C237.663 125.71 237.082 125.032 236.403 125.032H216.158C215.48 125.032 214.898 125.612 214.898 126.388C214.898 127.066 215.48 127.744 216.158 127.744H236.405C237.083 127.647 237.664 127.066 237.664 126.388H237.663Z" fill="white"/>
<path d="M225.554 136.075C225.65 135.3 226.232 134.719 227.007 134.719L236.017 135.397C236.791 135.494 237.372 136.172 237.275 136.947C237.179 137.722 236.597 138.303 235.822 138.303L226.813 137.625C226.135 137.528 225.553 136.85 225.553 136.075H225.554Z" fill="#F3F3F3"/>
<path d="M225.457 136.075C225.554 135.203 226.232 134.622 227.007 134.622L236.017 135.3C236.791 135.397 237.469 136.075 237.372 136.947C237.276 137.819 236.597 138.4 235.822 138.4L226.813 137.722C226.038 137.625 225.457 136.85 225.457 136.075ZM237.276 136.947C237.372 136.269 236.791 135.591 236.113 135.591L227.103 134.913C226.426 134.913 225.844 135.397 225.747 136.173C225.651 136.85 226.232 137.528 226.91 137.528L235.92 138.206C236.597 138.206 237.179 137.626 237.276 136.947V136.947Z" fill="white"/>
<path d="M213.057 143.147C213.251 142.372 213.929 141.887 214.704 141.985L234.563 145.957C235.338 146.15 235.823 146.828 235.629 147.603C235.435 148.378 234.757 148.863 233.982 148.766L214.122 144.794C213.444 144.697 212.96 143.922 213.057 143.147V143.147Z" fill="#F3F3F3"/>
<path d="M212.96 143.147C213.154 142.275 213.929 141.791 214.704 141.887L234.563 145.86C235.338 146.053 235.919 146.828 235.725 147.7C235.532 148.572 234.757 149.057 233.982 148.96L214.122 144.988C213.347 144.794 212.863 144.019 212.96 143.148V143.147ZM235.532 147.7C235.629 147.022 235.242 146.344 234.563 146.15L214.703 142.178C214.026 142.082 213.347 142.469 213.153 143.244C213.057 143.922 213.444 144.6 214.123 144.794L233.982 148.766C234.757 148.863 235.338 148.378 235.532 147.7Z" fill="white"/>
<path d="M221.776 154.772C221.821 154.588 221.901 154.414 222.013 154.26C222.124 154.107 222.265 153.977 222.427 153.878C222.589 153.779 222.769 153.713 222.956 153.684C223.143 153.655 223.335 153.662 223.519 153.707L232.238 156.128C233.013 156.322 233.4 157.098 233.207 157.872C233.163 158.057 233.082 158.231 232.971 158.384C232.859 158.538 232.718 158.668 232.556 158.767C232.394 158.866 232.214 158.932 232.027 158.961C231.839 158.99 231.648 158.983 231.463 158.938L222.744 156.516C221.969 156.322 221.582 155.547 221.775 154.772H221.776Z" fill="#F3F3F3"/>
<path d="M221.678 154.772C221.872 153.997 222.744 153.416 223.519 153.707L232.238 156.128C233.013 156.322 233.498 157.194 233.304 157.969C233.11 158.744 232.238 159.325 231.463 159.035L222.744 156.613C221.969 156.419 221.484 155.644 221.679 154.773L221.678 154.772ZM233.013 157.969C233.207 157.291 232.819 156.516 232.141 156.322L223.422 153.9C222.744 153.706 222.066 154.094 221.872 154.869C221.679 155.547 222.066 156.322 222.744 156.516L231.463 158.938C232.141 159.035 232.819 158.648 233.013 157.969Z" fill="white"/>
<path d="M208.116 159.422C208.406 158.647 209.279 158.356 209.956 158.647L228.654 166.397C229.332 166.687 229.719 167.56 229.429 168.237C229.138 169.013 228.266 169.303 227.588 169.013L208.891 161.263C208.116 160.973 207.825 160.1 208.116 159.423V159.422Z" fill="#F3F3F3"/>
<path d="M208.019 159.325C208.161 158.953 208.444 158.652 208.808 158.488C209.171 158.325 209.584 158.312 209.957 158.453L228.654 166.203C229.429 166.494 229.719 167.366 229.429 168.238C229.287 168.61 229.003 168.911 228.64 169.075C228.277 169.238 227.864 169.251 227.491 169.11L208.794 161.36C208.019 160.972 207.729 160.1 208.019 159.325ZM229.235 168.141C229.525 167.463 229.235 166.688 228.557 166.397L209.86 158.647C209.182 158.357 208.504 158.744 208.213 159.422C207.923 160.1 208.213 160.875 208.891 161.166L227.588 168.916C228.266 169.11 229.041 168.819 229.235 168.141Z" fill="white"/>
<path d="M214.413 172.5C214.801 171.822 215.575 171.531 216.253 171.822L224.294 175.891C224.972 176.181 225.263 177.053 224.876 177.828C224.488 178.506 223.713 178.798 223.035 178.506L214.995 174.438C214.316 174.05 214.025 173.178 214.413 172.5Z" fill="#F3F3F3"/>
<path d="M214.316 172.403C214.704 171.628 215.576 171.338 216.351 171.725L224.391 175.794C225.166 176.182 225.457 177.054 225.069 177.828C224.682 178.603 223.809 178.894 223.035 178.506L214.995 174.438C214.219 174.148 213.929 173.178 214.316 172.403V172.403ZM224.779 177.731C225.069 177.053 224.875 176.278 224.197 175.988L216.157 171.919C215.575 171.629 214.801 171.919 214.413 172.5C214.123 173.178 214.316 173.953 214.994 174.244L223.034 178.313C223.713 178.603 224.488 178.41 224.779 177.731Z" fill="white"/>
<path d="M200.172 174.341C200.657 173.663 201.432 173.469 202.11 173.953L218.966 185.191C219.644 185.578 219.741 186.451 219.354 187.128C218.869 187.807 218.094 188 217.416 187.516L200.56 176.278C199.882 175.794 199.688 174.922 200.172 174.341Z" fill="#F3F3F3"/>
<path d="M200.075 174.244C200.56 173.566 201.529 173.372 202.207 173.76L219.063 184.997C219.741 185.481 219.935 186.353 219.45 187.128C218.966 187.807 217.997 188 217.32 187.613L200.463 176.375C199.688 175.891 199.591 174.922 200.075 174.244ZM219.16 187.031C219.547 186.451 219.45 185.578 218.87 185.191L202.013 173.953C201.432 173.566 200.657 173.76 200.269 174.341C199.882 174.922 199.979 175.794 200.559 176.181L217.416 187.419C217.997 187.807 218.772 187.613 219.16 187.032V187.031Z" fill="white"/>
<path d="M203.757 188.388C204.241 187.806 205.113 187.613 205.694 188.098L212.766 193.619C213.347 194.103 213.444 194.975 212.96 195.557C212.476 196.137 211.604 196.332 211.022 195.847L203.95 190.325C203.37 189.841 203.272 188.969 203.757 188.388V188.388Z" fill="#F3F3F3"/>
<path d="M203.66 188.291C204.144 187.613 205.113 187.516 205.791 188.001L212.863 193.522C213.541 194.006 213.638 194.975 213.153 195.653C212.669 196.332 211.7 196.428 211.023 195.944L203.95 190.422C203.272 189.938 203.176 188.969 203.66 188.291ZM212.96 195.557C213.444 194.975 213.347 194.2 212.766 193.716L205.694 188.194C205.113 187.807 204.338 187.904 203.854 188.484C203.369 189.066 203.466 189.841 204.047 190.325L211.119 195.847C211.7 196.235 212.475 196.137 212.959 195.557H212.96Z" fill="white"/>
<path d="M189.322 187.419C189.904 186.838 190.776 186.838 191.26 187.419L205.597 201.659C206.179 202.241 206.082 203.113 205.597 203.597C205.017 204.178 204.144 204.178 203.66 203.597L189.322 189.357C188.838 188.872 188.838 187.903 189.322 187.419V187.419Z" fill="#F3F3F3"/>
<path d="M189.322 187.322C189.606 187.042 189.989 186.886 190.388 186.886C190.787 186.886 191.17 187.042 191.454 187.322L205.791 201.562C206.071 201.847 206.227 202.229 206.227 202.628C206.227 203.027 206.071 203.41 205.791 203.694C205.507 203.974 205.124 204.13 204.725 204.13C204.327 204.13 203.944 203.974 203.66 203.694L189.322 189.454C188.644 188.872 188.644 187.904 189.322 187.322ZM205.597 203.5C206.082 203.016 206.082 202.144 205.597 201.66L191.26 187.419C190.776 186.935 189.904 186.935 189.42 187.419C188.935 187.903 188.935 188.775 189.42 189.259L203.757 203.5C204.241 204.082 205.017 204.082 205.597 203.5Z" fill="white"/>
<path d="M190.194 201.853C190.776 201.369 191.647 201.369 192.132 201.95L198.042 208.731C198.525 209.313 198.429 210.185 197.847 210.669C197.267 211.153 196.394 211.153 195.91 210.572L190 203.791C189.516 203.307 189.613 202.435 190.194 201.853V201.853Z" fill="#F3F3F3"/>
<path d="M190.098 201.853C190.776 201.273 191.648 201.369 192.228 201.95L198.138 208.731C198.719 209.313 198.622 210.281 197.944 210.863C197.266 211.444 196.394 211.347 195.813 210.766L189.903 203.985C189.419 203.307 189.419 202.338 190.097 201.853H190.098ZM197.848 210.669C198.428 210.185 198.428 209.409 198.041 208.829L192.131 202.047C191.647 201.563 190.872 201.466 190.291 201.95C189.71 202.435 189.71 203.21 190.097 203.79L196.007 210.572C196.491 211.153 197.267 211.153 197.847 210.669H197.848Z" fill="white"/>
<path d="M176.244 198.172C176.922 197.688 177.794 197.882 178.182 198.56L189.418 215.319C189.806 215.997 189.612 216.869 189.031 217.257C188.353 217.741 187.481 217.547 187.093 216.869L175.856 200.109C175.468 199.432 175.662 198.559 176.243 198.172H176.244Z" fill="#F3F3F3"/>
<path d="M176.244 198.075C176.922 197.591 177.891 197.785 178.375 198.463L189.613 215.223C190.097 215.9 189.903 216.869 189.129 217.353C188.45 217.838 187.482 217.644 186.997 216.966L175.76 200.206C175.276 199.432 175.47 198.56 176.244 198.076V198.075ZM189.032 217.16C189.613 216.772 189.807 215.997 189.419 215.416L178.182 198.656C177.794 198.076 177.019 197.978 176.342 198.366C175.76 198.753 175.566 199.528 175.954 200.11L187.191 216.869C187.579 217.353 188.451 217.547 189.031 217.159L189.032 217.16Z" fill="white"/>
<path d="M174.21 212.509C174.888 212.122 175.76 212.316 176.147 212.994L180.604 220.841C180.991 221.519 180.7 222.391 180.022 222.778C179.344 223.166 178.472 222.972 178.085 222.294L173.629 214.447C173.338 213.769 173.532 212.897 174.209 212.51L174.21 212.509Z" fill="#F3F3F3"/>
<path d="M174.21 212.413C174.985 212.025 175.857 212.219 176.244 212.897L180.7 220.744C181.088 221.422 180.894 222.391 180.12 222.778C179.344 223.166 178.472 222.972 178.085 222.294L173.629 214.447C173.241 213.769 173.435 212.897 174.209 212.413H174.21ZM180.022 222.682C180.604 222.294 180.894 221.519 180.507 220.938L176.051 213.091C175.663 212.51 174.888 212.316 174.307 212.606C173.725 212.994 173.435 213.769 173.822 214.35L178.279 222.197C178.569 222.778 179.441 223.069 180.022 222.681V222.682Z" fill="white"/>
<path d="M161.325 206.116C162.1 205.826 162.875 206.116 163.166 206.794L171.013 225.491C171.303 226.169 170.916 227.041 170.238 227.331C169.56 227.622 168.688 227.331 168.398 226.653L160.551 207.957C160.26 207.278 160.647 206.407 161.325 206.116Z" fill="#F3F3F3"/>
<path d="M161.325 206.019C162.1 205.729 162.972 206.019 163.36 206.794L171.207 225.491C171.347 225.864 171.335 226.277 171.171 226.64C171.008 227.003 170.707 227.286 170.335 227.428C169.56 227.719 168.688 227.428 168.301 226.653L160.454 207.957C160.163 207.278 160.551 206.407 161.325 206.019V206.019ZM170.141 227.235C170.819 226.944 171.11 226.169 170.819 225.588L162.972 206.891C162.682 206.213 161.907 205.922 161.229 206.213C160.551 206.503 160.259 207.278 160.551 207.86L168.397 226.557C168.785 227.235 169.463 227.525 170.141 227.235Z" fill="white"/>
<path d="M156.578 219.872C157.354 219.582 158.128 219.969 158.419 220.744L161.229 229.269C161.519 229.947 161.035 230.819 160.357 231.013C159.582 231.303 158.807 230.916 158.517 230.141L155.707 221.616C155.417 220.938 155.804 220.163 156.579 219.872H156.578Z" fill="#F3F3F3"/>
<path d="M156.482 219.775C156.854 219.635 157.267 219.647 157.63 219.811C157.993 219.974 158.277 220.275 158.419 220.647L161.229 229.172C161.519 229.947 161.035 230.819 160.259 231.11C159.886 231.25 159.473 231.237 159.11 231.074C158.747 230.911 158.464 230.61 158.322 230.238L155.513 221.713C155.319 220.938 155.707 220.066 156.482 219.775ZM160.26 230.915C160.938 230.722 161.325 229.947 161.132 229.269L158.322 220.744C158.129 220.066 157.354 219.775 156.676 219.969C155.997 220.163 155.61 220.938 155.804 221.616L158.613 230.141C158.662 230.305 158.746 230.458 158.858 230.588C158.97 230.718 159.108 230.823 159.263 230.896C159.419 230.969 159.588 231.009 159.759 231.012C159.931 231.015 160.102 230.983 160.26 230.916V230.915Z" fill="white"/>
<path d="M145.148 211.057C145.922 210.863 146.698 211.347 146.794 212.122L150.863 231.982C151.057 232.756 150.475 233.435 149.7 233.628C148.926 233.822 148.15 233.338 148.054 232.563L143.984 212.703C143.888 212.025 144.372 211.25 145.147 211.056L145.148 211.057Z" fill="#F3F3F3"/>
<path d="M145.148 210.959C146.019 210.766 146.794 211.347 146.988 212.122L151.057 231.982C151.251 232.756 150.669 233.628 149.894 233.725C149.022 233.919 148.247 233.338 148.054 232.563L143.984 212.703C143.791 211.928 144.276 211.153 145.147 210.96L145.148 210.959ZM149.7 233.531C150.379 233.435 150.863 232.756 150.766 231.981L146.697 212.122C146.601 211.444 145.826 210.96 145.147 211.153C144.469 211.25 143.985 211.928 144.082 212.703L148.151 232.563C148.344 233.241 149.022 233.628 149.701 233.532L149.7 233.531Z" fill="white"/>
<path d="M137.785 223.65C138.56 223.553 139.238 224.038 139.432 224.813L140.594 233.725C140.691 234.5 140.11 235.178 139.334 235.275C138.56 235.372 137.882 234.888 137.688 234.113L136.526 225.2C136.429 224.425 137.01 223.747 137.785 223.65Z" fill="#F3F3F3"/>
<path d="M137.785 223.553C138.657 223.457 139.432 224.038 139.529 224.813L140.691 233.725C140.788 234.5 140.207 235.275 139.335 235.372C138.463 235.469 137.688 234.888 137.591 234.112L136.429 225.2C136.332 224.425 136.913 223.65 137.785 223.553ZM139.238 235.178C139.916 235.082 140.498 234.403 140.401 233.725L139.238 224.813C139.141 224.135 138.463 223.65 137.785 223.747C137.107 223.844 136.525 224.522 136.622 225.2L137.785 234.113C137.882 234.791 138.56 235.275 139.238 235.178Z" fill="white"/>
<path d="M127.807 212.8C128.582 212.8 129.26 213.382 129.26 214.157V234.403C129.26 235.178 128.582 235.76 127.807 235.76C127.032 235.76 126.354 235.178 126.354 234.403V214.157C126.451 213.382 127.032 212.8 127.807 212.8Z" fill="#F3F3F3"/>
<path d="M127.807 212.703C128.679 212.703 129.357 213.381 129.357 214.156V234.403C129.357 235.178 128.679 235.856 127.807 235.856C126.935 235.856 126.257 235.178 126.257 234.403V214.157C126.257 213.382 127.032 212.703 127.807 212.703ZM127.807 235.663C128.485 235.663 129.163 235.082 129.163 234.403V214.157C129.163 213.478 128.582 212.897 127.807 212.897C127.129 212.897 126.451 213.478 126.451 214.157V234.403C126.547 235.082 127.129 235.663 127.807 235.663Z" fill="white"/>
<path d="M118.119 223.65C118.894 223.747 119.475 224.328 119.475 225.103L118.797 234.113C118.701 234.888 118.022 235.469 117.247 235.373C116.472 235.275 115.891 234.694 115.891 233.919L116.569 224.909C116.666 224.135 117.344 223.553 118.119 223.65Z" fill="#F3F3F3"/>
<path d="M118.119 223.553C118.991 223.65 119.572 224.328 119.572 225.103L118.894 234.113C118.797 234.888 118.119 235.566 117.247 235.469C116.376 235.372 115.794 234.694 115.794 233.919L116.472 224.909C116.569 224.038 117.247 223.457 118.119 223.553ZM117.247 235.275C117.925 235.275 118.604 234.791 118.604 234.113L119.282 225.103C119.282 224.425 118.797 223.844 118.022 223.747C117.344 223.747 116.666 224.231 116.666 224.91L115.988 233.919C115.988 234.597 116.569 235.179 117.248 235.275H117.247Z" fill="white"/>
<path d="M110.854 211.057C111.629 211.25 112.113 211.928 112.016 212.703L108.044 232.563C107.85 233.338 107.172 233.823 106.397 233.628C105.622 233.435 105.138 232.757 105.235 231.981L109.207 212.122C109.304 211.444 110.079 210.96 110.854 211.057Z" fill="#F3F3F3"/>
<path d="M110.854 210.959C111.725 211.153 112.21 211.929 112.113 212.703L108.141 232.563C107.947 233.338 107.172 233.919 106.301 233.725C105.429 233.531 104.944 232.756 105.041 231.981L109.013 212.122C109.207 211.347 109.982 210.862 110.853 210.96L110.854 210.959ZM106.301 233.531C106.979 233.628 107.657 233.241 107.851 232.563L111.822 212.703C111.919 212.025 111.532 211.347 110.757 211.153C110.079 211.057 109.401 211.444 109.207 212.123L105.235 231.981C105.138 232.756 105.622 233.338 106.301 233.531V233.531Z" fill="white"/>
<path d="M99.2281 219.775C100.004 219.969 100.488 220.744 100.294 221.519L97.872 230.238C97.679 231.013 96.9041 231.4 96.1291 231.207C95.9445 231.163 95.7704 231.082 95.6169 230.971C95.4634 230.859 95.3334 230.718 95.2344 230.556C95.1354 230.394 95.0693 230.214 95.0399 230.027C95.0105 229.839 95.0184 229.648 95.0631 229.463L97.485 220.744C97.679 219.969 98.4541 219.582 99.2291 219.775H99.2281Z" fill="#F3F3F3"/>
<path d="M99.228 219.679C100.004 219.872 100.585 220.744 100.294 221.519L97.872 230.238C97.679 231.013 96.807 231.498 96.032 231.303C95.257 231.11 94.676 230.238 94.966 229.463L97.388 220.744C97.582 219.969 98.357 219.484 99.228 219.678V219.679ZM96.032 231.013C96.71 231.207 97.485 230.819 97.679 230.141L100.1 221.422C100.294 220.744 99.907 220.066 99.132 219.872C98.454 219.678 97.679 220.066 97.485 220.744L95.063 229.463C94.966 230.141 95.353 230.819 96.032 231.013Z" fill="white"/>
<path d="M94.4822 206.116C95.2572 206.406 95.5472 207.278 95.2572 207.956L87.5072 226.653C87.2172 227.332 86.3442 227.719 85.6672 227.332C84.9882 226.944 84.6002 226.169 84.8912 225.491L92.6412 206.794C92.9312 206.116 93.8042 205.728 94.4812 206.116H94.4822Z" fill="#F3F3F3"/>
<path d="M94.4818 206.019C94.854 206.161 95.1549 206.445 95.3183 206.808C95.4818 207.171 95.4945 207.584 95.3538 207.957L87.6038 226.653C87.3128 227.428 86.4408 227.719 85.5688 227.428C85.1968 227.286 84.8962 227.003 84.7327 226.64C84.5693 226.277 84.5564 225.864 84.6968 225.491L92.4468 206.794C92.8348 206.019 93.7068 205.632 94.4818 206.019V206.019ZM85.6658 227.235C86.3438 227.525 87.1188 227.235 87.4098 226.557L95.1598 207.86C95.4498 207.182 95.0628 206.503 94.3848 206.213C93.7068 205.923 92.9318 206.213 92.6408 206.891L84.8908 225.588C84.6968 226.169 84.9878 226.944 85.6658 227.235Z" fill="white"/>
<path d="M81.4041 212.316C82.0821 212.703 82.3721 213.478 82.0821 214.156L78.0131 222.197C77.6251 222.875 76.8501 223.166 76.0751 222.778C75.3971 222.391 75.1071 221.616 75.3971 220.938L79.4671 212.898C79.8541 212.219 80.6291 211.928 81.4041 212.316Z" fill="#F3F3F3"/>
<path d="M81.404 212.219C82.179 212.606 82.469 213.479 82.082 214.253L78.013 222.294C77.625 223.069 76.753 223.36 75.979 222.972C75.204 222.585 74.913 221.712 75.301 220.938L79.369 212.898C79.757 212.122 80.629 211.832 81.404 212.219ZM76.076 222.779C76.754 223.069 77.529 222.875 77.819 222.197L81.888 214.157C82.178 213.575 81.888 212.8 81.307 212.413C80.629 212.123 79.854 212.316 79.563 212.994L75.494 221.034C75.204 221.616 75.494 222.391 76.076 222.778V222.779Z" fill="white"/>
<path d="M79.4662 197.979C80.1442 198.463 80.3382 199.335 79.8542 199.916L68.6162 216.676C68.2292 217.353 67.3562 217.45 66.6792 217.063C66.0012 216.578 65.8072 215.707 66.2912 215.125L77.5292 198.365C77.9162 197.688 78.7882 197.494 79.4662 197.978V197.979Z" fill="#F3F3F3"/>
<path d="M79.466 197.881C80.144 198.366 80.338 199.335 79.95 200.013L68.713 216.773C68.229 217.45 67.357 217.644 66.582 217.16C65.904 216.675 65.71 215.707 66.097 215.028L77.335 198.269C77.819 197.591 78.788 197.397 79.466 197.881V197.881ZM66.679 216.966C67.259 217.353 68.132 217.256 68.519 216.676L79.757 199.916C80.144 199.335 79.951 198.56 79.369 198.172C78.788 197.785 77.916 197.882 77.529 198.462L66.291 215.125C65.904 215.707 66.097 216.578 66.679 216.965V216.966Z" fill="white"/>
<path d="M65.3221 201.563C65.9041 202.047 66.0971 202.919 65.6131 203.5L59.9941 210.572C59.5101 211.153 58.6381 211.25 58.0571 210.766C57.4761 210.282 57.2821 209.41 57.7671 208.828L63.3851 201.756C63.8691 201.176 64.7411 201.078 65.3221 201.563Z" fill="#F3F3F3"/>
<path d="M65.4189 201.466C66.0969 201.95 66.1939 202.919 65.7089 203.597L60.0909 210.669C59.6069 211.347 58.6379 211.444 57.9599 210.863C57.2819 210.378 57.1849 209.41 57.6699 208.731L63.2879 201.66C63.7719 200.981 64.7409 200.885 65.4189 201.466ZM58.1539 210.669C58.7339 211.153 59.5099 211.057 59.9939 210.475L65.6129 203.403C66.0009 202.823 65.9029 202.047 65.3229 201.563C64.7409 201.078 63.9659 201.175 63.4819 201.757L57.8629 208.828C57.4759 209.41 57.5729 210.281 58.1529 210.669H58.1539Z" fill="white"/>
<path d="M66.2909 187.032C66.8719 187.612 66.8719 188.485 66.2909 188.969L51.9539 203.209C51.3719 203.791 50.5009 203.694 50.0159 203.209C49.5319 202.725 49.4349 201.756 50.0159 201.272L64.2559 187.032C64.8379 186.45 65.7099 186.45 66.2909 187.032V187.032Z" fill="#F3F3F3"/>
<path d="M66.3879 186.935C66.667 187.219 66.8233 187.602 66.8233 188C66.8233 188.398 66.667 188.781 66.3879 189.065L52.0499 203.307C51.7656 203.586 51.3832 203.742 50.9849 203.742C50.5865 203.742 50.2041 203.586 49.9199 203.307C49.6402 203.023 49.4834 202.64 49.4834 202.241C49.4834 201.842 49.6402 201.459 49.9199 201.175L64.2569 186.935C64.5411 186.656 64.9238 186.499 65.3224 186.499C65.721 186.499 66.1036 186.656 66.3879 186.935V186.935ZM50.0159 203.209C50.4999 203.693 51.3719 203.693 51.8559 203.209L66.1939 188.968C66.6789 188.484 66.6789 187.612 66.1939 187.128C65.7099 186.643 64.8379 186.643 64.3539 187.128L50.0159 201.368C49.5319 201.852 49.5319 202.628 50.0159 203.208V203.209Z" fill="white"/>
<path d="M51.7598 187.807C52.2438 188.387 52.2438 189.26 51.6628 189.744L44.7848 195.557C44.2038 196.041 43.3318 195.944 42.8468 195.363C42.3628 194.781 42.3628 193.91 42.9438 193.425L49.8218 187.613C50.4038 187.128 51.2748 187.225 51.7598 187.807Z" fill="#F3F3F3"/>
<path d="M51.857 187.709C52.438 188.388 52.341 189.356 51.76 189.841L44.882 195.653C44.301 196.235 43.332 196.138 42.751 195.46C42.169 194.781 42.266 193.813 42.847 193.328L49.726 187.516C50.306 186.935 51.276 187.032 51.856 187.71L51.857 187.709ZM42.944 195.363C43.429 195.944 44.204 195.944 44.784 195.557L51.663 189.744C52.147 189.26 52.244 188.484 51.76 187.904C51.275 187.322 50.5 187.322 49.92 187.71L43.041 193.522C42.46 194.006 42.46 194.782 42.944 195.362V195.363Z" fill="white"/>
<path d="M55.635 173.856C56.119 174.535 55.925 175.406 55.247 175.794L38.391 187.032C37.713 187.419 36.841 187.225 36.454 186.644C35.969 185.966 36.163 185.094 36.841 184.706L53.698 173.469C54.28 173.082 55.151 173.275 55.636 173.856H55.635Z" fill="#F3F3F3"/>
<path d="M55.7321 173.856C56.2161 174.535 56.0221 175.503 55.3441 175.988L38.4881 187.225C37.8101 187.71 36.8411 187.515 36.3571 186.741C35.8721 186.063 36.0671 185.094 36.7441 184.61L53.6011 173.372C54.2791 172.888 55.2471 173.082 55.7311 173.856H55.7321ZM36.5511 186.547C36.9381 187.128 37.7131 187.322 38.2941 186.935L55.1501 175.697C55.7321 175.31 55.9251 174.535 55.4411 173.857C55.0541 173.275 54.2791 173.082 53.6971 173.469L36.8411 184.707C36.2601 185.191 36.1631 185.966 36.5511 186.547V186.547Z" fill="white"/>
<path d="M41.2002 171.822C41.5882 172.5 41.3942 173.372 40.7162 173.76L32.8692 178.216C32.1912 178.603 31.3192 178.313 30.9322 177.635C30.5442 176.957 30.7382 176.085 31.4162 175.697L39.2632 171.241C39.9412 170.853 40.8132 171.144 41.2012 171.822H41.2002Z" fill="#F3F3F3"/>
<path d="M41.2982 171.725C41.6852 172.5 41.4912 173.372 40.8132 173.76L32.9662 178.216C32.2882 178.603 31.3192 178.313 30.9322 177.635C30.5442 176.86 30.7382 175.988 31.4162 175.6L39.2632 171.144C39.9412 170.756 40.9102 171.047 41.2972 171.725H41.2982ZM31.0282 177.538C31.4162 178.216 32.1912 178.41 32.7722 178.022L40.6192 173.566C41.2002 173.178 41.3942 172.403 41.1042 171.822C40.7162 171.144 39.9412 170.95 39.3602 171.338L31.5132 175.794C30.9322 176.084 30.7382 176.86 31.0292 177.538H31.0282Z" fill="white"/>
<path d="M47.6908 158.938C47.9808 159.713 47.6908 160.488 46.9158 160.778L28.2188 168.528C27.5408 168.819 26.6688 168.432 26.3788 167.753C26.0878 166.978 26.3788 166.203 27.1538 165.913L45.8508 158.163C46.5288 157.873 47.4008 158.163 47.6908 158.938V158.938Z" fill="#F3F3F3"/>
<path d="M47.7878 158.841C48.0778 159.616 47.7878 160.488 47.0128 160.875L28.3158 168.625C27.9432 168.766 27.5302 168.753 27.1672 168.589C26.8041 168.426 26.5206 168.125 26.3788 167.753C26.0878 166.978 26.3788 166.106 27.1538 165.719L45.8508 157.969C46.2233 157.829 46.6363 157.842 46.9994 158.005C47.3624 158.169 47.6459 158.469 47.7878 158.841V158.841ZM26.5718 167.656C26.8628 168.335 27.6378 168.626 28.2188 168.431L46.9158 160.681C47.5938 160.391 47.8848 159.616 47.5938 158.938C47.3038 158.26 46.5288 157.969 45.9468 158.163L27.2498 165.913C26.5718 166.203 26.2818 166.978 26.5718 167.657V167.656Z" fill="white"/>
<path d="M34.0321 154.094C34.3221 154.869 33.9351 155.644 33.1601 155.934L24.6351 158.744C23.9571 159.034 23.0851 158.55 22.8911 157.872C22.6011 157.097 22.9881 156.322 23.7631 156.032L32.2881 153.222C32.9661 152.932 33.7411 153.319 34.0321 154.094Z" fill="#F3F3F3"/>
<path d="M34.1282 153.997C34.4192 154.772 34.0322 155.644 33.1602 155.935L24.6352 158.744C23.8602 159.034 22.9882 158.55 22.6972 157.775C22.4072 157 22.7942 156.128 23.6672 155.838L32.1912 153.028C32.9662 152.835 33.8382 153.222 34.1292 153.998L34.1282 153.997ZM22.8922 157.679C23.0862 158.357 23.8612 158.745 24.5392 158.551L33.0642 155.741C33.7422 155.548 34.0332 154.773 33.8392 154.095C33.6452 153.417 32.8702 153.029 32.1922 153.223L23.6672 156.033C22.9892 156.323 22.6982 157.001 22.8922 157.679Z" fill="white"/>
<path d="M42.7511 142.566C42.9441 143.341 42.4601 144.116 41.6851 144.213L21.8251 148.088C21.0501 148.282 20.3721 147.7 20.1791 146.925C19.9851 146.15 20.4691 145.375 21.2441 145.278L41.1041 141.403C41.8791 141.307 42.6541 141.791 42.7501 142.566H42.7511Z" fill="#F3F3F3"/>
<path d="M42.9438 142.566C43.1378 143.438 42.5568 144.213 41.7818 144.406L21.9218 148.281C21.1468 148.475 20.3718 147.894 20.1788 147.022C19.9848 146.15 20.5658 145.375 21.3408 145.182L41.2008 141.307C41.9748 141.113 42.7508 141.694 42.9438 142.566ZM20.3718 146.926C20.4688 147.603 21.1468 148.088 21.8248 147.991L41.6848 144.116C42.3628 144.019 42.8468 143.244 42.6538 142.566C42.5568 141.888 41.8788 141.403 41.1998 141.5L21.3408 145.375C20.6628 145.569 20.1788 146.247 20.3718 146.925V146.926Z" fill="white"/>
<path d="M30.3512 135.107C30.4472 135.881 29.9632 136.56 29.1882 136.657L20.2762 137.722C19.5002 137.819 18.8222 137.238 18.7262 136.462C18.6292 135.688 19.1132 135.01 19.8882 134.912L28.8012 133.847C29.4792 133.75 30.2542 134.331 30.3512 135.107Z" fill="#F3F3F3"/>
<path d="M30.4482 135.107C30.5442 135.978 29.9632 136.753 29.1882 136.85L20.2762 137.916C19.5002 138.013 18.7262 137.432 18.6292 136.56C18.5322 135.688 19.1132 134.913 19.8882 134.816L28.8012 133.75C29.5752 133.653 30.3512 134.235 30.4472 135.106L30.4482 135.107ZM18.7252 136.463C18.8222 137.141 19.5012 137.723 20.1792 137.625L29.0912 136.56C29.7692 136.463 30.2542 135.785 30.1572 135.107C30.0602 134.428 29.3822 133.847 28.7042 133.944L19.7912 135.01C19.1132 135.107 18.6292 135.785 18.7252 136.463V136.463Z" fill="white"/>
<path d="M41.2002 125.709C41.2002 126.485 40.6202 127.163 39.8442 127.163H19.5982C18.8232 127.163 18.2422 126.485 18.2422 125.71C18.2422 124.935 18.8232 124.256 19.5982 124.256H39.8452C40.6202 124.256 41.2022 124.935 41.2022 125.71L41.2002 125.709Z" fill="#F3F3F3"/>
<path d="M41.298 125.709C41.298 126.582 40.619 127.259 39.844 127.259H19.598C18.823 127.259 18.145 126.581 18.145 125.709C18.145 124.838 18.823 124.159 19.598 124.159H39.845C40.62 124.159 41.298 124.838 41.298 125.709ZM18.338 125.613C18.338 126.291 18.919 126.969 19.598 126.969H39.844C40.522 126.969 41.104 126.388 41.104 125.613C41.104 124.935 40.522 124.256 39.844 124.256H19.598C18.92 124.353 18.339 124.935 18.339 125.613H18.338Z" fill="white"/>
<path d="M30.4482 115.925C30.3502 116.7 29.7692 117.281 28.9942 117.281L19.9842 116.603C19.2102 116.506 18.6292 115.828 18.7252 115.053C18.8222 114.278 19.4042 113.697 20.1792 113.697L29.1882 114.375C29.8662 114.472 30.4482 115.15 30.4482 115.925Z" fill="#E2E2E2"/>
<path d="M30.5439 115.925C30.4469 116.797 29.7689 117.378 28.9939 117.378L19.9839 116.7C19.2099 116.603 18.5319 115.925 18.6289 115.053C18.7249 114.182 19.4039 113.6 20.1789 113.6L29.1879 114.278C29.9629 114.375 30.5439 115.15 30.5439 115.925ZM18.7249 115.053C18.6289 115.731 19.2099 116.41 19.8879 116.41L28.8979 117.088C29.5749 117.088 30.1569 116.603 30.2539 115.828C30.3509 115.15 29.7689 114.472 29.0909 114.472L20.0809 113.794C19.4039 113.794 18.8219 114.375 18.7249 115.054V115.053Z" fill="white"/>
<path d="M42.9439 108.853C42.7499 109.628 42.0719 110.113 41.2969 110.016L21.4379 105.947C20.6629 105.753 20.1779 105.075 20.3719 104.3C20.5659 103.525 21.2439 103.04 22.0189 103.138L41.8789 107.11C42.5569 107.303 43.0409 108.078 42.9439 108.853V108.853Z" fill="#F3F3F3"/>
<path d="M43.0409 108.853C42.8469 109.725 42.0719 110.21 41.2969 110.113L21.4379 106.141C20.6629 105.947 20.0819 105.172 20.2759 104.301C20.4689 103.428 21.2439 102.944 22.0189 103.041L41.8789 107.013C42.6539 107.207 43.1379 107.982 43.0409 108.853V108.853ZM20.4689 104.3C20.3719 104.978 20.7589 105.656 21.4379 105.85L41.2979 109.822C41.9759 109.919 42.6539 109.532 42.8479 108.756C42.9439 108.078 42.5569 107.4 41.8779 107.206L22.0199 103.235C21.2449 103.138 20.6639 103.622 20.4699 104.3H20.4689Z" fill="white"/>
<path d="M34.2262 97.2291C34.1817 97.4136 34.1013 97.5875 33.9896 97.7409C33.8778 97.8944 33.737 98.0242 33.575 98.1231C33.413 98.222 33.2331 98.2881 33.0456 98.3174C32.8581 98.3467 32.6667 98.3388 32.4822 98.2941L23.7632 95.8721C22.9882 95.6781 22.6012 94.9031 22.7942 94.1281C22.8387 93.9436 22.9191 93.7697 23.0308 93.6163C23.1426 93.4629 23.2835 93.333 23.4454 93.2341C23.6074 93.1352 23.7873 93.0692 23.9748 93.0398C24.1623 93.0105 24.3538 93.0184 24.5382 93.0631L33.2572 95.4851C34.0322 95.6781 34.4192 96.4531 34.2262 97.2281V97.2291Z" fill="#F3F3F3"/>
<path d="M34.3221 97.229C34.1291 98.003 33.2571 98.585 32.4821 98.294L23.7631 95.872C22.9881 95.678 22.5031 94.806 22.6971 94.032C22.8911 93.256 23.7631 92.675 24.5381 92.966L33.2571 95.388C34.0321 95.582 34.5171 96.357 34.3221 97.228V97.229ZM22.9881 94.03C22.7941 94.709 23.1821 95.484 23.8601 95.677L32.5791 98.099C33.2571 98.293 33.9351 97.905 34.1291 97.13C34.3221 96.452 33.9351 95.677 33.2571 95.484L24.5381 93.062C23.8601 92.965 23.1821 93.352 22.9881 94.031V94.03Z" fill="white"/>
<path d="M47.885 92.5791C47.595 93.3531 46.722 93.6442 46.045 93.3532L27.347 85.6032C26.669 85.3132 26.282 84.4411 26.572 83.7631C26.863 82.9881 27.735 82.6971 28.413 82.9881L47.11 90.7381C47.885 91.0281 48.176 91.9002 47.885 92.5781V92.5791Z" fill="#F3F3F3"/>
<path d="M47.9822 92.675C47.8403 93.0472 47.5567 93.348 47.1934 93.5115C46.8301 93.675 46.4169 93.6877 46.0442 93.547L27.3472 85.797C26.5722 85.507 26.2822 84.635 26.5722 83.763C26.7141 83.3907 26.9977 83.0899 27.361 82.9265C27.7243 82.763 28.1375 82.7503 28.5102 82.891L47.2072 90.641C47.9822 91.028 48.2722 91.901 47.9822 92.675V92.675ZM26.7662 83.86C26.4762 84.538 26.7662 85.313 27.4442 85.603L46.1412 93.353C46.8192 93.644 47.4972 93.256 47.7882 92.578C48.0782 91.9 47.7882 91.125 47.1102 90.835L28.4132 83.085C27.7352 82.891 26.9602 83.182 26.7662 83.86V83.86Z" fill="white"/>
<path d="M41.588 79.5002C41.201 80.1782 40.426 80.4692 39.748 80.1782L31.707 76.1102C31.029 75.8192 30.738 74.9472 31.126 74.1722C31.513 73.4942 32.288 73.2032 32.966 73.4942L41.006 77.5632C41.685 77.9502 41.976 78.8232 41.588 79.5002Z" fill="#F3F3F3"/>
<path d="M41.6849 79.5969C41.2969 80.3719 40.4249 80.6629 39.6499 80.2749L31.6099 76.2059C30.8349 75.8189 30.5439 74.9469 30.9319 74.1719C31.3189 73.3969 32.1919 73.1059 32.9659 73.4939L41.0059 77.5629C41.7819 77.8529 42.0719 78.8229 41.6849 79.5969V79.5969ZM31.2219 74.2689C30.9319 74.9469 31.1259 75.7219 31.8039 76.0129L39.8439 80.0819C40.4259 80.3719 41.2009 80.0819 41.5879 79.4999C41.8779 78.8219 41.6849 78.0469 41.0069 77.7559L32.8679 73.6889C32.2869 73.3989 31.5119 73.5919 31.2209 74.2699L31.2219 74.2689Z" fill="white"/>
<path d="M55.8279 77.6592C55.3439 78.3382 54.5689 78.5322 53.8909 78.0472L37.1309 66.9072C36.4539 66.5192 36.3569 65.6472 36.7439 64.9692C37.1319 64.2912 38.0039 64.0972 38.6819 64.5812L55.5379 75.8192C56.1189 76.2072 56.3129 77.0792 55.8279 77.6592Z" fill="#F3F3F3"/>
<path d="M55.9251 77.7562C55.4411 78.4352 54.4721 78.6282 53.7951 78.2412L37.0351 67.0032C36.3571 66.5192 36.1631 65.6472 36.6471 64.8732C37.1321 64.1942 38.1011 64.0002 38.7791 64.3882L55.5381 75.6252C56.3131 76.1102 56.4101 77.0782 55.9251 77.7562ZM36.8411 64.9692C36.4541 65.5502 36.5511 66.4222 37.1311 66.8092L53.9881 78.0482C54.5691 78.4362 55.3441 78.2422 55.7321 77.6612C56.1191 77.0792 56.0221 76.2072 55.4421 75.8202L38.5841 64.5822C38.0031 64.1942 37.2281 64.3882 36.8401 64.9692H36.8411Z" fill="white"/>
<path d="M52.2442 63.6133C51.7602 64.1943 50.8882 64.3883 50.3072 63.9033L43.2352 58.3823C42.6542 57.8973 42.5572 57.0253 43.0412 56.4443C43.5252 55.8633 44.3972 55.6693 44.9792 56.1543L52.0502 61.6753C52.6322 62.1603 52.7292 63.0313 52.2442 63.6133V63.6133Z" fill="#F3F3F3"/>
<path d="M52.3411 63.709C51.8571 64.388 50.8881 64.485 50.2101 64L43.1381 58.479C42.4601 57.995 42.3631 57.026 42.8481 56.349C43.3321 55.67 44.3011 55.573 44.9781 56.058L52.0501 61.579C52.7291 62.064 52.8261 63.032 52.3411 63.711V63.709ZM43.0411 56.444C42.5571 57.025 42.6541 57.8 43.2351 58.284L50.3071 63.807C50.8881 64.194 51.6631 64.097 52.1471 63.516C52.6321 62.935 52.5351 62.16 51.9541 61.676L44.8821 56.153C44.3011 55.766 43.5251 55.863 43.0421 56.444H43.0411Z" fill="white"/>
<path d="M66.6778 64.5813C66.0978 65.1633 65.2248 65.1633 64.7408 64.5813L50.3078 50.3413C49.7268 49.7603 49.8228 48.8883 50.3078 48.4033C50.8888 47.8233 51.7608 47.8233 52.2448 48.4033L66.5828 62.6443C67.1638 63.1283 67.1638 64.0973 66.6798 64.5823L66.6778 64.5813Z" fill="#F3F3F3"/>
<path d="M66.6779 64.6791C66.3937 64.9582 66.0113 65.1146 65.6129 65.1146C65.2146 65.1146 64.8322 64.9582 64.5479 64.6791L50.2089 50.4371C49.9292 50.1528 49.7725 49.77 49.7725 49.3711C49.7725 48.9723 49.9292 48.5894 50.2089 48.3051C50.4932 48.0257 50.8758 47.8691 51.2744 47.8691C51.673 47.8691 52.0557 48.0257 52.3399 48.3051L66.6779 62.5461C67.3559 63.1271 67.3559 64.0961 66.6779 64.6771V64.6791ZM50.4049 48.4991C49.9199 48.9841 49.9199 49.8561 50.4049 50.3391L64.7419 64.5801C65.2269 65.0651 66.0979 65.0651 66.5819 64.5801C67.0669 64.0961 67.0669 63.2241 66.5819 62.7401L52.2449 48.4031C51.7609 47.9191 50.9849 47.9191 50.4049 48.5001V48.4991Z" fill="white"/>
<path d="M65.8072 50.1471C65.2262 50.6321 64.3542 50.6321 63.8692 50.0501L57.9592 43.2691C57.4762 42.6881 57.5722 41.8161 58.1542 41.3321C58.7342 40.8471 59.6072 40.8471 60.0912 41.4281L66.0012 48.2101C66.4852 48.6941 66.3882 49.5661 65.8072 50.1471Z" fill="#F3F3F3"/>
<path d="M65.9039 50.1471C65.2259 50.7281 64.3539 50.6321 63.7719 50.0501L57.8629 43.2691C57.2819 42.6881 57.3789 41.7191 58.0569 41.1381C58.7349 40.5561 59.6069 40.6531 60.1879 41.2351L66.0979 48.0151C66.5819 48.6941 66.5819 49.6631 65.9039 50.1471V50.1471ZM58.1539 41.3321C57.5719 41.8161 57.5719 42.5911 57.9599 43.1721L63.8699 49.9531C64.3539 50.4381 65.1289 50.5351 65.7099 50.0501C66.2909 49.5661 66.2909 48.7901 65.9039 48.2101L59.9939 41.4281C59.5099 40.8481 58.7339 40.8481 58.1539 41.3321V41.3321Z" fill="white"/>
<path d="M79.7571 53.8293C79.0791 54.3133 78.2071 54.1193 77.8191 53.4413L66.4851 36.6813C66.0971 36.0033 66.2911 35.1313 66.8721 34.7443C67.5501 34.2603 68.4221 34.4543 68.8101 35.1323L80.0471 51.8913C80.5321 52.5693 80.3381 53.4413 79.7571 53.8283V53.8293Z" fill="#F3F3F3"/>
<path d="M79.7568 53.9249C79.0788 54.4099 78.1098 54.2149 77.6248 53.5379L66.3878 36.7779C65.9038 36.0999 66.0978 35.1319 66.8718 34.6479C67.5498 34.1629 68.5188 34.3569 69.0038 35.0349L80.2408 51.7939C80.7248 52.5689 80.5308 53.4409 79.7568 53.9249ZM66.9678 34.8409C66.3868 35.2279 66.1928 36.0029 66.5808 36.5849L77.8178 53.3439C78.2058 53.9249 78.9808 54.0219 79.6578 53.6339C80.2398 53.2469 80.4338 52.4719 80.0458 51.8909L68.8098 35.2279C68.4218 34.6479 67.5498 34.4529 66.9698 34.8409H66.9678Z" fill="white"/>
<path d="M81.791 39.4912C81.113 39.8782 80.241 39.6852 79.854 39.0072L75.397 31.1602C75.01 30.4822 75.3 29.6102 75.979 29.2222C76.657 28.8352 77.529 29.0282 77.916 29.7072L82.372 37.5532C82.663 38.2312 82.469 39.1032 81.792 39.4912H81.791Z" fill="#F3F3F3"/>
<path d="M81.7908 39.5882C81.0158 39.9752 80.1438 39.7822 79.7568 39.1032L75.2998 31.2572C74.9128 30.5782 75.1068 29.6102 75.8818 29.2222C76.6568 28.8352 77.5288 29.0282 77.9158 29.7072L82.3718 37.5532C82.7598 38.2312 82.5658 39.1032 81.7918 39.5882H81.7908ZM75.9788 29.3192C75.3968 29.7062 75.1068 30.4812 75.4938 31.0632L79.9508 38.9102C80.3378 39.4902 81.1128 39.6852 81.6938 39.3942C82.2758 39.0072 82.5658 38.2312 82.1788 37.6502L77.7218 29.8032C77.4318 29.2232 76.5598 28.9312 75.9788 29.3192V29.3192Z" fill="white"/>
<path d="M94.675 45.8851C93.901 46.1751 93.125 45.8851 92.835 45.2071L84.988 26.5091C84.698 25.8311 85.085 24.9591 85.763 24.6681C86.538 24.3781 87.313 24.6681 87.603 25.3461L95.45 44.0431C95.741 44.7211 95.354 45.5931 94.675 45.8831V45.8851Z" fill="#F3F3F3"/>
<path d="M94.6748 45.9822C93.9008 46.2722 93.0288 45.9822 92.6408 45.2062L84.7938 26.5102C84.6531 26.1375 84.6659 25.7243 84.8293 25.361C84.9928 24.9977 85.2936 24.7141 85.6658 24.5722C86.4408 24.2822 87.3128 24.5722 87.7008 25.3472L95.5468 44.0442C95.8378 44.7222 95.4508 45.5942 94.6758 45.9822H94.6748ZM85.8598 24.7662C85.1818 25.0562 84.8908 25.8322 85.1818 26.4132L93.0278 45.1092C93.3178 45.7872 94.0928 46.0772 94.7708 45.7872C95.4488 45.4972 95.7408 44.7212 95.4488 44.1402L87.6028 25.4432C87.2148 24.7652 86.5368 24.4742 85.8588 24.7652L85.8598 24.7662Z" fill="white"/>
<path d="M99.4218 32.1289C98.6468 32.4189 97.8718 32.0309 97.5818 31.2569L94.7718 22.7309C94.4818 22.0529 94.9658 21.1809 95.6438 20.9879C96.3218 20.7939 97.1938 21.0849 97.4838 21.8599L100.294 30.3849C100.584 31.0629 100.197 31.8379 99.4218 32.1279V32.1289Z" fill="#F3F3F3"/>
<path d="M99.519 32.2251C99.1464 32.3656 98.7334 32.3526 98.3704 32.1892C98.0073 32.0258 97.7239 31.7251 97.582 31.3531L94.772 22.8281C94.482 22.0531 94.966 21.1821 95.742 20.8911C96.1145 20.7507 96.5275 20.7637 96.8906 20.9271C97.2536 21.0905 97.5371 21.3911 97.679 21.7631L100.488 30.2881C100.682 31.0631 100.294 31.9351 99.519 32.2251V32.2251ZM95.741 21.0851C95.063 21.2781 94.675 22.0531 94.869 22.7311L97.679 31.2571C97.872 31.9351 98.647 32.2251 99.326 32.0311C100.004 31.8381 100.391 31.0631 100.197 30.3851L97.388 21.8591C97.3386 21.6947 97.2552 21.5425 97.1431 21.4124C97.031 21.2824 96.8927 21.1774 96.7374 21.1042C96.582 21.0311 96.413 20.9916 96.2413 20.9881C96.0696 20.9846 95.8992 21.0174 95.741 21.0841V21.0851Z" fill="white"/>
<path d="M110.854 40.944C110.079 41.138 109.304 40.654 109.207 39.878L105.138 20.019C104.944 19.244 105.526 18.566 106.3 18.372C107.076 18.178 107.85 18.662 107.947 19.438L112.017 39.298C112.113 39.975 111.629 40.75 110.854 40.944V40.944Z" fill="#F3F3F3"/>
<path d="M110.854 41.0409C109.982 41.2349 109.207 40.6529 109.013 39.8779L104.944 20.0189C104.75 19.2439 105.332 18.3719 106.107 18.2749C106.979 18.0809 107.754 18.6629 107.947 19.4379L112.017 39.2979C112.21 40.0719 111.726 40.8479 110.854 41.0409V41.0409ZM106.301 18.4689C105.622 18.5659 105.138 19.2439 105.235 20.0189L109.304 39.8789C109.401 40.5559 110.175 41.0409 110.854 40.8469C111.532 40.7499 112.016 40.0719 111.919 39.2969L107.85 19.4369C107.657 18.7599 106.979 18.3719 106.3 18.4689H106.301Z" fill="white"/>
<path d="M118.216 28.3502C117.441 28.4472 116.763 27.9632 116.569 27.1882L115.407 18.2752C115.31 17.5002 115.891 16.8222 116.667 16.7252C117.441 16.6282 118.119 17.1132 118.313 17.8882L119.475 26.8002C119.572 27.5752 118.991 28.2532 118.216 28.3502V28.3502Z" fill="#F3F3F3"/>
<path d="M118.216 28.4471C117.344 28.5441 116.569 27.9631 116.472 27.1871L115.31 18.2751C115.213 17.5001 115.794 16.7251 116.666 16.6281C117.538 16.5321 118.313 17.1131 118.41 17.8881L119.572 26.8001C119.669 27.5751 119.088 28.3501 118.216 28.4471V28.4471ZM116.763 16.8221C116.085 16.9191 115.503 17.5971 115.6 18.2751L116.763 27.1881C116.86 27.8661 117.538 28.3501 118.216 28.2531C118.894 28.1571 119.476 27.4781 119.379 26.8001L118.216 17.8881C118.119 17.2101 117.441 16.7251 116.763 16.8221V16.8221Z" fill="white"/>
<path d="M128.679 240.603C192.026 240.603 243.379 189.25 243.379 125.903C243.379 62.5561 192.026 11.2031 128.679 11.2031C65.3319 11.2031 13.979 62.5561 13.979 125.903C13.979 189.25 65.3319 240.603 128.679 240.603Z" fill="url(#paint2_linear)" fill-opacity="0.2"/>
<g filter="url(#filter1_d)">
<path d="M208.116 53.1499L115.6 112.438H115.503V112.534L115.406 112.631L57.6699 207.86L142.532 139.563L142.629 139.467V139.37L208.117 53.1509L208.116 53.1499Z" fill="black" fill-opacity="0.05"/>
</g>
<path d="M206.372 47.6279L114.922 112.631L142.047 139.562L206.372 47.6279" fill="#CD151E"/>
<path d="M115.019 112.438L128.679 125.903L206.372 47.6279L115.019 112.438V112.438Z" fill="#FA5153"/>
<path d="M115.019 112.438L142.144 139.368L50.6938 204.372L115.019 112.437V112.438Z" fill="#ACACAC"/>
<path d="M50.6938 204.372L128.678 125.903L115.018 112.437L50.6938 204.372Z" fill="#EEEEEE"/>
<defs>
<filter id="filter0_d" x="3.75" y="1.875" width="248.5" height="248.5" filterUnits="userSpaceOnUse" color-interpolation-filters="sRGB">
<feFlood flood-opacity="0" result="BackgroundImageFix"/>
<feColorMatrix in="SourceAlpha" type="matrix" values="0 0 0 0 0 0 0 0 0 0 0 0 0 0 0 0 0 0 127 0"/>
<feOffset dy="0.125"/>
<feGaussianBlur stdDeviation="0.125"/>
<feColorMatrix type="matrix" values="0 0 0 0 0 0 0 0 0 0 0 0 0 0 0 0 0 0 0.266007 0"/>
<feBlend mode="normal" in2="BackgroundImageFix" result="effect1_dropShadow"/>
<feBlend mode="normal" in="SourceGraphic" in2="effect1_dropShadow" result="shape"/>
</filter>
<filter id="filter1_d" x="57.4199" y="52.9624" width="150.947" height="155.21" filterUnits="userSpaceOnUse" color-interpolation-filters="sRGB">
<feFlood flood-opacity="0" result="BackgroundImageFix"/>
<feColorMatrix in="SourceAlpha" type="matrix" values="0 0 0 0 0 0 0 0 0 0 0 0 0 0 0 0 0 0 127 0"/>
<feOffset dy="0.0625"/>
<feGaussianBlur stdDeviation="0.125"/>
<feColorMatrix type="matrix" values="0 0 0 0 0 0 0 0 0 0 0 0 0 0 0 0 0 0 1 0"/>
<feBlend mode="normal" in2="BackgroundImageFix" result="effect1_dropShadow"/>
<feBlend mode="normal" in="SourceGraphic" in2="effect1_dropShadow" result="shape"/>
</filter>
<linearGradient id="paint0_linear" x1="128" y1="250" x2="128" y2="2" gradientUnits="userSpaceOnUse">
<stop offset="0.25" stop-color="#DBDBDA"/>
<stop offset="1" stop-color="white"/>
</linearGradient>
<radialGradient id="paint1_radial" cx="0" cy="0" r="1" gradientUnits="userSpaceOnUse" gradientTransform="translate(144.115 100.805) scale(140.007)">
<stop stop-color="#2ABCE1"/>
<stop offset="0.11363" stop-color="#2ABBE1"/>
<stop offset="1" stop-color="#3375F8"/>
</radialGradient>
<linearGradient id="paint2_linear" x1="126.5" y1="93.1058" x2="72.9646" y2="189.153" gradientUnits="userSpaceOnUse">
<stop stop-opacity="0"/>
<stop offset="1"/>
</linearGradient>
</defs>
</svg>
