<svg viewBox="0 0 256 256" fill="none" xmlns="http://www.w3.org/2000/svg">
<path d="M128 194.6C198.692 194.6 256 164.469 256 127.3C256 90.1312 198.692 60 128 60C57.3075 60 0 90.1312 0 127.3C0 164.469 57.3075 194.6 128 194.6Z" fill="url(#paint0_radial)"/>
<path d="M128 189.6C195.931 189.6 251 161.707 251 127.3C251 92.8927 195.931 65 128 65C60.069 65 5 92.8927 5 127.3C5 161.707 60.069 189.6 128 189.6Z" fill="#6181B6"/>
<path d="M74.8 108.2C80.4 108.2 84.1 109.2 86 111.3C87.9 113.4 88.3 116.9 87.3 121.9C86.3 127.1 84.3 130.9 81.4 133.1C78.5 135.3 74.1 136.4 68.2 136.4H59.3L64.8 108.2H74.8V108.2ZM39 165H53.7L57.2 147.1H69.8C75.4 147.1 79.9 146.5 83.5 145.3C87.1 144.1 90.3 142.2 93.3 139.4C95.8 137.1 97.8 134.6 99.3 131.9C100.8 129.2 101.9 126.2 102.5 122.9C104.1 114.9 102.9 108.7 99 104.2C95.1 99.7 88.9 97.5 80.4 97.5H52.1L39 165Z" fill="#000004"/>
<path d="M113.3 79.6H127.9L124.4 97.5H137.4C145.6 97.5 151.2 98.9 154.3 101.8C157.4 104.7 158.3 109.3 157.1 115.7L151 147.1H136.2L142 117.2C142.7 113.8 142.4 111.5 141.3 110.3C140.2 109.1 137.7 108.4 134 108.4H122.3L114.8 147.1H100.2L113.3 79.6V79.6Z" fill="#000004"/>
<path d="M189.5 108.2C195.1 108.2 198.8 109.2 200.7 111.3C202.6 113.4 203 116.9 202 121.9C201 127.1 199 130.9 196.1 133.1C193.2 135.3 188.8 136.4 182.9 136.4H174L179.5 108.2H189.5ZM153.7 165H168.4L171.9 147.1H184.5C190.1 147.1 194.6 146.5 198.2 145.3C201.8 144.1 205 142.2 208 139.4C210.5 137.1 212.5 134.6 214 131.9C215.5 129.2 216.6 126.2 217.2 122.9C218.8 114.9 217.6 108.7 213.7 104.2C209.8 99.7 203.6 97.5 195.1 97.5H166.8L153.7 165Z" fill="#000004"/>
<defs>
<radialGradient id="paint0_radial" cx="0" cy="0" r="1" gradientUnits="userSpaceOnUse" gradientTransform="translate(76.8515 83.6675) scale(168.095)">
<stop stop-color="white"/>
<stop offset="0.5" stop-color="#4C6B97"/>
<stop offset="1" stop-color="#231F20"/>
</radialGradient>
</defs>
</svg>
