<svg viewBox="0 0 512 512" fill="none" xmlns="http://www.w3.org/2000/svg">
<path d="M498.105 305.399C495.173 296.506 487.492 290.312 477.559 288.826C472.876 288.126 467.512 288.424 461.165 289.735C450.101 292.021 441.893 292.891 435.903 293.059C458.513 254.83 476.899 211.236 487.483 170.199C504.598 103.843 495.452 73.6139 484.765 59.9407C456.481 23.749 415.216 4.3065 365.433 3.71159C338.876 3.3864 315.563 8.63725 303.401 12.4133C292.078 10.4124 279.902 9.29528 267.127 9.08869C243.179 8.70612 222.021 13.934 203.941 24.6787C193.932 21.289 177.867 16.5107 159.316 13.4615C115.684 6.28824 80.5182 11.8777 54.7961 30.0749C23.6491 52.1074 9.21018 90.388 11.8806 143.853C12.7287 160.828 22.2107 212.476 37.1405 261.457C45.7209 289.61 54.8706 312.99 64.3354 330.952C77.7581 356.422 92.1205 371.42 108.244 376.807C117.281 379.822 133.701 381.934 150.971 367.53C153.16 370.185 156.08 372.823 159.956 375.273C164.878 378.381 170.897 380.922 176.909 382.427C198.572 387.85 218.863 386.494 236.175 378.892C236.282 381.976 236.364 384.922 236.433 387.466C236.547 391.592 236.662 395.638 236.813 399.421C237.839 425.004 239.577 444.896 244.727 458.814C245.009 459.579 245.39 460.746 245.791 461.984C248.36 469.861 252.656 483.048 263.586 493.376C274.903 504.075 288.593 507.355 301.132 507.355C307.42 507.355 313.42 506.529 318.682 505.4C337.44 501.374 358.744 495.241 374.155 473.266C388.726 452.492 395.809 421.203 397.09 371.903C397.257 370.508 397.409 369.177 397.556 367.908L397.862 365.303L401.295 365.605L402.179 365.665C421.284 366.537 444.646 362.48 458.993 355.806C470.33 350.538 506.659 331.33 498.105 305.399" fill="black"/>
<path d="M465.438 310.442C408.63 322.177 404.723 302.916 404.723 302.916C464.702 213.79 489.777 100.656 468.141 72.9674C409.109 -2.56265 306.925 33.1584 305.219 34.0843L304.671 34.1838C293.447 31.85 280.888 30.4613 266.77 30.2298C241.067 29.809 221.568 36.9785 206.772 48.2147C206.772 48.2147 24.4857 -26.9882 32.9649 142.795C34.7681 178.914 84.6614 416.094 144.17 344.455C165.921 318.258 186.939 296.109 186.939 296.109C197.376 303.052 209.872 306.595 222.972 305.323L223.99 304.458C223.673 307.71 223.818 310.891 224.397 314.658C209.066 331.81 213.572 334.821 182.926 341.14C151.914 347.54 170.131 358.933 182.026 361.913C196.446 365.523 229.805 370.638 252.344 339.039L251.447 342.645C257.452 347.464 261.67 373.984 260.963 398.027C260.256 422.068 259.784 438.574 264.516 451.467C269.251 464.36 273.967 493.368 314.256 484.724C347.919 477.499 365.365 458.778 367.792 427.548C369.513 405.347 373.412 408.63 373.657 388.78L376.783 379.384C380.388 349.288 377.357 339.579 398.095 344.095L403.138 344.539C418.4 345.233 438.38 342.079 450.107 336.621C475.355 324.888 490.331 305.294 465.434 310.442H465.438" fill="#336791"/>
<path d="M217.442 158.947C212.323 158.234 207.687 158.894 205.341 160.673C204.023 161.673 203.614 162.832 203.504 163.63C203.209 165.744 204.688 168.081 205.597 169.287C208.168 172.699 211.924 175.044 215.641 175.561C216.179 175.637 216.716 175.672 217.249 175.672C223.448 175.672 229.084 170.838 229.581 167.27C230.202 162.802 223.725 159.824 217.442 158.949" fill="white"/>
<path d="M387.033 159.089C386.544 155.587 380.321 154.588 374.415 155.411C368.516 156.233 362.797 158.9 363.275 162.41C363.657 165.139 368.579 169.799 374.405 169.799C374.898 169.799 375.395 169.767 375.895 169.696C379.784 169.156 382.638 166.683 383.994 165.258C386.057 163.085 387.253 160.663 387.033 159.089" fill="white"/>
<path d="M484.341 309.108C482.174 302.549 475.202 300.439 463.619 302.834C429.227 309.942 416.91 305.019 412.866 302.037C439.599 261.254 461.591 211.955 473.455 165.96C479.074 144.172 482.178 123.938 482.432 107.445C482.713 89.3435 479.634 76.0414 473.285 67.9155C447.685 35.1574 410.112 17.5857 364.631 17.1037C333.364 16.7517 306.946 24.7647 301.825 27.0181C291.04 24.3324 279.283 22.6835 266.483 22.4731C243.011 22.0924 222.722 27.7201 205.924 39.1917C198.627 36.4716 179.77 29.9888 156.709 26.2683C116.84 19.841 85.158 24.7112 62.5494 40.7507C35.5723 59.8909 23.118 94.1047 25.5306 142.439C26.3424 158.701 35.5952 208.726 50.1964 256.634C69.4164 319.69 90.3097 355.387 112.292 362.73C114.865 363.589 117.831 364.19 121.103 364.19C129.122 364.19 138.954 360.571 149.183 348.256C161.659 333.267 174.565 318.643 187.884 304.401C196.526 309.045 206.019 311.639 215.729 311.899C215.748 312.154 215.773 312.408 215.795 312.661C214.124 314.657 212.488 316.681 210.886 318.734C204.159 327.287 202.759 329.067 181.103 333.532C174.943 334.806 158.582 338.182 158.342 349.667C158.082 362.216 177.682 367.486 179.915 368.044C187.697 369.995 195.194 370.958 202.344 370.958C219.732 370.958 235.035 365.234 247.263 354.161C246.887 398.895 248.75 442.976 254.113 456.406C258.507 467.401 269.238 494.271 303.135 494.269C308.11 494.269 313.584 493.69 319.607 492.397C354.985 484.803 370.348 469.144 376.291 434.622C379.471 416.172 384.928 372.117 387.496 348.485C392.913 350.178 399.887 350.953 407.426 350.951C423.151 350.951 441.295 347.605 452.674 342.316C465.457 336.371 488.524 321.783 484.341 309.108V309.108ZM400.091 149.421C399.975 156.398 399.016 162.731 398 169.342C396.905 176.452 395.774 183.803 395.49 192.727C395.209 201.411 396.292 210.44 397.339 219.173C399.455 236.809 401.627 254.966 393.22 272.882C391.824 270.404 390.58 267.843 389.496 265.214C388.451 262.677 386.181 258.603 383.039 252.964C370.816 231.011 342.192 179.605 356.845 158.628C361.21 152.384 372.287 145.965 400.091 149.421V149.421ZM366.388 31.2303C407.14 32.1312 439.375 47.3979 462.198 76.6038C479.703 99.0055 460.427 200.937 404.626 288.874C404.065 288.159 403.501 287.447 402.934 286.737L402.227 285.854C416.647 262.006 413.827 238.41 411.317 217.491C410.286 208.906 409.312 200.797 409.56 193.18C409.816 185.108 410.882 178.183 411.913 171.488C413.18 163.238 414.469 154.701 414.114 144.637C414.379 143.581 414.486 142.334 414.347 140.854C413.439 131.203 402.437 102.321 380.012 76.1791C367.745 61.8803 349.856 45.8791 325.431 35.0866C335.937 32.906 350.303 30.8726 366.388 31.2303V31.2303ZM138.358 339.242C127.088 352.812 119.306 350.21 116.746 349.357C100.071 343.787 80.7207 308.491 63.6611 252.52C48.8994 204.089 40.2731 155.389 39.5893 141.733C37.4347 98.5445 47.8889 68.4453 70.6637 52.27C107.728 25.9488 168.666 41.7033 193.153 49.6934C192.801 50.0415 192.434 50.3667 192.087 50.7206C151.905 91.3578 152.858 160.788 152.957 165.032C152.953 166.67 153.091 168.988 153.278 172.177C153.969 183.855 155.257 205.589 151.819 230.202C148.625 253.074 155.666 275.461 171.132 291.623C172.72 293.278 174.388 294.854 176.131 296.344C169.247 303.728 154.285 320.056 138.358 339.242V339.242ZM181.296 281.869C168.83 268.842 163.169 250.724 165.761 232.153C169.39 206.153 168.051 183.509 167.331 171.343C167.23 169.64 167.14 168.148 167.088 166.972C172.958 161.759 200.161 147.164 219.56 151.615C228.412 153.645 233.806 159.682 236.049 170.065C247.655 223.823 237.585 246.228 229.493 264.234C227.826 267.943 226.25 271.45 224.905 275.076L223.862 277.881C221.222 284.97 218.766 291.562 217.243 297.821C203.991 297.782 191.099 292.113 181.296 281.867V281.869ZM183.33 354.367C179.461 353.399 175.98 351.718 173.938 350.323C175.644 349.52 178.679 348.426 183.944 347.339C209.419 342.088 213.354 338.381 221.946 327.457C223.916 324.951 226.149 322.112 229.241 318.654L229.245 318.65C233.85 313.485 235.957 314.361 239.778 315.949C242.874 317.231 245.89 321.117 247.113 325.395C247.691 327.415 248.341 331.248 246.215 334.232C228.267 359.398 202.113 359.075 183.33 354.367V354.367ZM316.657 478.612C285.491 485.3 274.456 469.375 267.184 451.17C262.491 439.418 260.184 386.419 261.821 327.891C261.842 327.112 261.731 326.361 261.517 325.653C261.326 324.255 261.035 322.873 260.646 321.517C258.212 313.001 252.281 305.878 245.166 302.924C242.339 301.752 237.151 299.6 230.916 301.197C232.246 295.711 234.551 289.515 237.052 282.806L238.1 279.985C239.281 276.804 240.763 273.508 242.329 270.019C250.797 251.181 262.394 225.378 249.808 167.087C245.093 145.253 229.35 134.591 205.484 137.068C191.177 138.55 178.087 144.331 171.558 147.646C170.154 148.358 168.871 149.046 167.671 149.716C169.493 127.718 176.378 86.6062 202.13 60.5949C218.346 44.2206 239.94 36.133 266.25 36.5691C318.092 37.4184 351.336 64.061 370.098 86.2638C386.265 105.394 395.02 124.667 398.513 135.061C372.239 132.385 354.37 137.579 345.312 150.548C325.605 178.759 356.093 233.513 370.745 259.829C373.433 264.651 375.752 268.819 376.482 270.591C381.253 282.171 387.431 289.903 391.941 295.546C393.324 297.275 394.664 298.953 395.684 300.418C387.727 302.716 373.433 308.024 374.736 334.557C373.685 347.871 366.215 410.204 362.419 432.227C357.409 461.322 346.718 472.158 316.657 478.614V478.612ZM446.747 329.53C438.609 333.312 424.992 336.149 412.056 336.759C397.768 337.429 390.495 335.156 388.783 333.758C387.981 317.223 394.126 315.496 400.63 313.667C401.652 313.38 402.649 313.099 403.612 312.762C404.209 313.25 404.865 313.734 405.583 314.208C417.067 321.798 437.549 322.617 466.467 316.639L466.784 316.576C462.884 320.228 456.21 325.129 446.747 329.53Z" fill="white"/>
</svg>
