<svg viewBox="0 0 64 73" fill="none" xmlns="http://www.w3.org/2000/svg">
<path d="M55.9435 14.335C55.8933 13.97 55.5735 13.768 55.3093 13.7458C55.0455 13.7238 49.4635 13.31 49.4635 13.31C49.4635 13.31 45.5868 9.46125 45.1613 9.03525C44.7355 8.6095 43.904 8.739 43.5813 8.834C43.5338 8.848 42.7343 9.09475 41.4118 9.504C40.1168 5.7775 37.8313 2.353 33.8105 2.353C33.6995 2.353 33.5853 2.3575 33.471 2.364C32.3275 0.851752 30.911 0.194752 29.6875 0.194752C20.3212 0.194752 15.8465 11.9035 14.4435 17.8535C10.804 18.9813 8.2185 19.783 7.88825 19.8868C5.85675 20.524 5.7925 20.588 5.52575 22.5023C5.325 23.9515 0.0095005 65.0588 0.0095005 65.0588L41.429 72.8193L63.8715 67.9643C63.8715 67.9643 55.9933 14.7 55.9438 14.335H55.9435ZM39.1225 10.212L35.6178 11.2968C35.619 11.0498 35.6203 10.8068 35.6203 10.541C35.6203 8.225 35.2988 6.36025 34.783 4.882C36.8548 5.142 38.2345 7.49925 39.1225 10.212ZM32.213 5.34125C32.789 6.7845 33.1635 8.85575 33.1635 11.6508C33.1635 11.7938 33.1623 11.9245 33.161 12.0568C30.8818 12.7628 28.405 13.5293 25.9228 14.2983C27.3165 8.91925 29.929 6.32125 32.213 5.34125V5.34125ZM29.4303 2.707C29.8345 2.707 30.2418 2.84425 30.6315 3.1125C27.6298 4.525 24.4122 8.0825 23.0535 15.1868L17.332 16.9588C18.9235 11.54 22.7025 2.707 29.43 2.707H29.4303Z" fill="#95BF46"/>
<path d="M55.3092 13.7457C55.0455 13.7237 49.4635 13.31 49.4635 13.31C49.4635 13.31 45.5868 9.46125 45.1613 9.03525C45.002 8.87675 44.7873 8.7955 44.5628 8.7605L41.431 72.8187L63.8715 67.9642C63.8715 67.9642 55.993 14.7 55.9435 14.335C55.8933 13.97 55.5735 13.768 55.3092 13.7457" fill="#5E8E3E"/>
<path d="M33.8105 26.1463L31.0432 34.3778C31.0432 34.3778 28.6187 33.0838 25.6467 33.0838C21.2897 33.0838 21.0705 35.818 21.0705 36.507C21.0705 40.2665 30.8705 41.707 30.8705 50.513C30.8705 57.4413 26.4763 61.9025 20.5513 61.9025C13.4413 61.9025 9.80525 57.4775 9.80525 57.4775L11.709 51.1875C11.709 51.1875 15.4465 54.3963 18.6003 54.3963C20.661 54.3963 21.4993 52.7738 21.4993 51.5883C21.4993 46.6843 13.4593 46.4655 13.4593 38.4073C13.4593 31.625 18.3272 25.0618 28.1537 25.0618C31.94 25.0618 33.8105 26.1463 33.8105 26.1463" fill="white"/>
</svg>
