<svg xmlns="http://www.w3.org/2000/svg" viewBox="0 0 1000 1000">
    <g fill="none" fill-rule="evenodd">
        <circle fill="#8E714E" cx="500" cy="500" r="500"/>
        <g fill-rule="nonzero">
            <path d="M518.093 878l-20.178-6.877s2.464-102.581-34.457-109.943c-24.605-28.472 3.947-1207.465 92.542-3.93 0 0-30.52 15.212-35.934 41.232-5.91 25.526-1.973 79.518-1.973 79.518z" fill="#FFF"/>
            <path d="M518.093 878l-20.178-6.877s2.464-102.581-34.457-109.943c-24.605-28.472 3.947-1207.465 92.542-3.93 0 0-30.52 15.212-35.934 41.232-5.91 25.526-1.973 79.518-1.973 79.518z" fill="#A6A385"/>
            <path d="M528.896 779s176.057-115.885 134.856-356.971C624.035 246.749 530.368 189.3 520.07 167.204 508.793 151.492 498 124 498 124l7.36 487.557c0 .495-15.204 149.267 23.542 167.443" fill="#FFF"/>
            <path d="M528.896 779s176.057-115.885 134.856-356.971C624.035 246.749 530.368 189.3 520.07 167.204 508.793 151.492 498 124 498 124l7.36 487.557c0 .495-15.204 149.267 23.542 167.443" fill="#499D4A"/>
            <path d="M486.95 785S321.605 672.126 331.42 473.379c9.32-198.754 126.087-296.413 148.655-314.079 14.722-15.704 15.21-21.596 16.194-37.3 10.304 22.085 8.342 330.277 9.81 366.588C510.49 628.45 498.23 758.506 486.948 785z" fill="#FFF"/>
            <path d="M486.95 785S321.605 672.126 331.42 473.379c9.32-198.754 126.087-296.413 148.655-314.079 14.722-15.704 15.21-21.596 16.194-37.3 10.304 22.085 8.342 330.277 9.81 366.588C510.49 628.45 498.23 758.506 486.948 785z" fill="#58AA50"/>
        </g>
    </g>
</svg>