<?xml version="1.0" encoding="UTF-8"?>
<svg width="1000px" height="1000px" viewBox="0 0 1000 1000" version="1.1" xmlns="http://www.w3.org/2000/svg" xmlns:xlink="http://www.w3.org/1999/xlink">
    <title>mongoDB</title>
    <g id="Page-1" stroke="none" stroke-width="1" fill="none" fill-rule="evenodd">
        <g id="mongoDB">
            <circle id="Oval" fill="#8E714E" cx="500" cy="500" r="500"></circle>
            <g id="mongodb" transform="translate(331.000000, 122.000000)" fill-rule="nonzero">
                <path d="M187.092543,756 L166.914703,749.12263 C166.914703,749.12263 169.378928,646.541837 132.458228,639.180444 C107.853318,610.708237 136.405255,-568.284741 225,635.249758 C225,635.249758 194.479884,650.461885 189.066057,676.482067 C183.156184,702.007589 187.092543,756 187.092543,756 L187.092543,756 Z" id="Path" fill="#FFFFFF"></path>
                <path d="M187.092543,756 L166.914703,749.12263 C166.914703,749.12263 169.378928,646.541837 132.458228,639.180444 C107.853318,610.708237 136.405255,-568.284741 225,635.249758 C225,635.249758 194.479884,650.461885 189.066057,676.482067 C183.156184,702.007589 187.092543,756 187.092543,756 L187.092543,756 Z" id="Path" fill="#A6A385"></path>
                <path d="M197.896223,657 C197.896223,657 373.952613,541.115057 332.752335,300.028618 C293.034694,124.748652 199.36823,67.3010057 189.06949,45.2041201 C177.792953,29.4920799 167,2 167,2 L174.360039,489.557431 C174.360039,490.052257 159.156377,638.824474 197.901537,657" id="Path" fill="#FFFFFF"></path>
                <path d="M197.896223,657 C197.896223,657 373.952613,541.115057 332.752335,300.028618 C293.034694,124.748652 199.36823,67.3010057 189.06949,45.2041201 C177.792953,29.4920799 167,2 167,2 L174.360039,489.557431 C174.360039,490.052257 159.156377,638.824474 197.901537,657" id="Path" fill="#499D4A"></path>
                <path d="M155.949353,663 C155.949353,663 -9.39403406,550.12642 0.420238992,351.378513 C9.74007684,152.625289 126.506534,54.9663758 149.075108,37.3001315 C163.796518,21.5962125 164.285637,15.7039191 165.269191,0 C175.572582,22.0854643 173.610791,330.276871 175.078147,366.587863 C179.490848,506.450061 167.230982,636.505952 155.949353,663 Z" id="Path" fill="#FFFFFF"></path>
                <path d="M155.949353,663 C155.949353,663 -9.39403406,550.12642 0.420238992,351.378513 C9.74007684,152.625289 126.506534,54.9663758 149.075108,37.3001315 C163.796518,21.5962125 164.285637,15.7039191 165.269191,0 C175.572582,22.0854643 173.610791,330.276871 175.078147,366.587863 C179.490848,506.450061 167.230982,636.505952 155.949353,663 Z" id="Path" fill="#58AA50"></path>
            </g>
        </g>
    </g>
</svg>