<svg xmlns="http://www.w3.org/2000/svg" viewBox="0 0 194 200">
    <defs>
        <radialGradient cx="85.913%" cy="-12.934%" fx="85.913%" fy="-12.934%" r="128.959%" gradientTransform="matrix(.80928 0 0 1 .164 0)" id="b">
            <stop stop-color="#FFBD4F" offset="12.9%"/>
            <stop stop-color="#FFAC31" offset="18.6%"/>
            <stop stop-color="#FF9D17" offset="24.7%"/>
            <stop stop-color="#FF980E" offset="28.3%"/>
            <stop stop-color="#FF563B" offset="40.3%"/>
            <stop stop-color="#FF3750" offset="46.7%"/>
            <stop stop-color="#F5156C" offset="71%"/>
            <stop stop-color="#EB0878" offset="78.2%"/>
            <stop stop-color="#E50080" offset="86%"/>
        </radialGradient>
        <radialGradient cx="47.778%" cy="39.538%" fx="47.778%" fy="39.538%" r="128.959%" gradientTransform="matrix(.80928 0 0 1 .091 0)" id="c">
            <stop stop-color="#960E18" offset="30%"/>
            <stop stop-color="#B11927" stop-opacity=".74" offset="35.1%"/>
            <stop stop-color="#DB293D" stop-opacity=".343" offset="43.5%"/>
            <stop stop-color="#F5334B" stop-opacity=".094" offset="49.7%"/>
            <stop stop-color="#FF3750" stop-opacity="0" offset="53%"/>
        </radialGradient>
        <radialGradient cx="49.996%" cy="-29.998%" fx="49.996%" fy="-29.998%" r="314.953%" gradientTransform="matrix(1 0 0 .59494 0 -.122)" id="d">
            <stop stop-color="#FFF44F" offset="13.2%"/>
            <stop stop-color="#FFDC3E" offset="25.2%"/>
            <stop stop-color="#FF9D12" offset="50.6%"/>
            <stop stop-color="#FF980E" offset="52.6%"/>
        </radialGradient>
        <radialGradient cx="19.455%" cy="110.087%" fx="19.455%" fy="110.087%" r="111.743%" gradientTransform="matrix(1 0 0 .90526 0 .104)" id="e">
            <stop stop-color="#3A8EE6" offset="35.3%"/>
            <stop stop-color="#5C79F0" offset="47.2%"/>
            <stop stop-color="#9059FF" offset="66.9%"/>
            <stop stop-color="#C139E6" offset="100%"/>
        </radialGradient>
        <radialGradient cx="58.238%" cy="36.619%" fx="58.238%" fy="36.619%" r="59.271%" gradientTransform="matrix(.97158 -.21429 .23672 .87953 -.07 .169)" id="f">
            <stop stop-color="#9059FF" stop-opacity="0" offset="20.6%"/>
            <stop stop-color="#8C4FF3" stop-opacity=".064" offset="27.8%"/>
            <stop stop-color="#7716A8" stop-opacity=".45" offset="74.7%"/>
            <stop stop-color="#6E008B" stop-opacity=".6" offset="97.5%"/>
        </radialGradient>
        <radialGradient cx="208.116%" cy="-103.936%" fx="208.116%" fy="-103.936%" r="293.24%" id="g">
            <stop stop-color="#FFE226" offset="0%"/>
            <stop stop-color="#FFDB27" offset="12.1%"/>
            <stop stop-color="#FFC82A" offset="29.5%"/>
            <stop stop-color="#FFA930" offset="50.2%"/>
            <stop stop-color="#FF7E37" offset="73.2%"/>
            <stop stop-color="#FF7139" offset="79.2%"/>
        </radialGradient>
        <radialGradient cx="79.305%" cy="-40.886%" fx="79.305%" fy="-40.886%" r="194.809%" gradientTransform="matrix(.83517 0 0 1 .13 0)" id="h">
            <stop stop-color="#FFF44F" offset="11.3%"/>
            <stop stop-color="#FF980E" offset="45.6%"/>
            <stop stop-color="#FF5634" offset="62.2%"/>
            <stop stop-color="#FF3647" offset="71.6%"/>
            <stop stop-color="#E31587" offset="90.4%"/>
        </radialGradient>
        <radialGradient cx="6.322%" cy="-10.342%" fx="6.322%" fy="-10.342%" r="348.928%" gradientTransform="scale(1 .47328) rotate(83.979 .127 -.161)" id="i">
            <stop stop-color="#FFF44F" offset="0%"/>
            <stop stop-color="#FFE847" offset="6%"/>
            <stop stop-color="#FFC830" offset="16.8%"/>
            <stop stop-color="#FF980E" offset="30.4%"/>
            <stop stop-color="#FF8B16" offset="35.6%"/>
            <stop stop-color="#FF672A" offset="45.5%"/>
            <stop stop-color="#FF3647" offset="57%"/>
            <stop stop-color="#E31587" offset="73.7%"/>
        </radialGradient>
        <radialGradient cx="15.372%" cy="-42.681%" fx="15.372%" fy="-42.681%" r="240.312%" gradientTransform="matrix(.97468 0 0 1 .004 0)" id="j">
            <stop stop-color="#FFF44F" offset="13.7%"/>
            <stop stop-color="#FF980E" offset="48%"/>
            <stop stop-color="#FF5634" offset="59.2%"/>
            <stop stop-color="#FF3647" offset="65.5%"/>
            <stop stop-color="#E31587" offset="90.4%"/>
        </radialGradient>
        <radialGradient cx="155.387%" cy="-44.592%" fx="155.387%" fy="-44.592%" r="310.32%" gradientTransform="matrix(.90278 0 0 1 .151 0)" id="k">
            <stop stop-color="#FFF44F" offset="9.4%"/>
            <stop stop-color="#FFE141" offset="23.1%"/>
            <stop stop-color="#FFAF1E" offset="50.9%"/>
            <stop stop-color="#FF980E" offset="62.6%"/>
        </radialGradient>
        <linearGradient x1="87.404%" y1="15.492%" x2="9.21%" y2="93.116%" id="a">
            <stop stop-color="#FFF44F" offset="4.8%"/>
            <stop stop-color="#FFE847" offset="11.1%"/>
            <stop stop-color="#FFC830" offset="22.5%"/>
            <stop stop-color="#FF980E" offset="36.8%"/>
            <stop stop-color="#FF8B16" offset="40.1%"/>
            <stop stop-color="#FF672A" offset="46.2%"/>
            <stop stop-color="#FF3647" offset="53.4%"/>
            <stop stop-color="#E31587" offset="70.5%"/>
        </linearGradient>
        <linearGradient x1="86.465%" y1="15.077%" x2="19.93%" y2="83.535%" id="l">
            <stop stop-color="#FFF44F" stop-opacity=".8" offset="16.7%"/>
            <stop stop-color="#FFF44F" stop-opacity=".634" offset="26.6%"/>
            <stop stop-color="#FFF44F" stop-opacity=".217" offset="48.9%"/>
            <stop stop-color="#FFF44F" stop-opacity="0" offset="60%"/>
        </linearGradient>
    </defs>
    <g fill-rule="nonzero" fill="none">
        <path d="M186.977 67.094c-4.22-10.134-12.78-21.076-19.483-24.535a100.569 100.569 0 019.836 29.421l.017.163c-10.98-27.323-29.602-38.34-44.81-62.33a117.753 117.753 0 01-2.287-3.71 30.591 30.591 0 01-1.07-2.002A17.618 17.618 0 01127.73.262a.25.25 0 00-.22-.25.346.346 0 00-.183 0c-.013 0-.033.023-.048.028-.015.005-.048.027-.07.037l.038-.065c-24.395 14.256-32.672 40.646-33.434 53.846A48.636 48.636 0 0067.087 64.14a29.03 29.03 0 00-2.506-1.896 44.853 44.853 0 01-.273-23.692A71.913 71.913 0 0040.93 56.584h-.045c-3.85-4.869-3.579-20.925-3.358-24.28a17.372 17.372 0 00-3.243 1.72 70.69 70.69 0 00-9.492 8.115 84.684 84.684 0 00-9.079 10.872v.015-.018a81.786 81.786 0 00-13.03 29.369l-.13.64c-.183.853-.842 5.125-.955 6.053 0 .072-.015.14-.023.212A92.207 92.207 0 000 102.645v.5c.044 50.315 38.652 92.231 88.882 96.5 50.231 4.27 95.385-30.526 103.954-80.108.163-1.251.296-2.489.44-3.752 2.001-16.5-.164-33.239-6.299-48.691zM75.04 142.968c.454.218.88.453 1.346.66l.068.043c-.471-.225-.942-.46-1.414-.703z" fill="url(#a)"/>
        <path d="M186.977 67.466c-4.22-10.106-12.78-21.017-19.483-24.466a100.094 100.094 0 019.836 29.34v.091l.017.103a87.156 87.156 0 01-3.022 65.237c-11.131 23.77-38.074 48.134-80.248 46.949-45.569-1.285-85.7-34.938-93.202-79.017-1.366-6.95 0-10.474.686-16.123A71.69 71.69 0 000 102.918v.498c.044 50.174 38.652 91.973 88.882 96.23 50.231 4.259 95.385-30.44 103.954-79.884.163-1.247.296-2.482.44-3.741a98.968 98.968 0 00-6.299-48.555z" fill="url(#b)"/>
        <path d="M186.977 67.466c-4.22-10.106-12.78-21.017-19.483-24.466a100.094 100.094 0 019.836 29.34v.091l.017.103a87.156 87.156 0 01-3.022 65.237c-11.131 23.77-38.074 48.134-80.248 46.949-45.569-1.285-85.7-34.938-93.202-79.017-1.366-6.95 0-10.474.686-16.123A71.69 71.69 0 000 102.918v.498c.044 50.174 38.652 91.973 88.882 96.23 50.231 4.259 95.385-30.44 103.954-79.884.163-1.247.296-2.482.44-3.741a98.968 98.968 0 00-6.299-48.555z" fill="url(#c)"/>
        <path d="M139.39 78.557c.213.148.41.295.61.443a52.89 52.89 0 00-9.104-11.754c-30.464-30.163-7.984-65.4-4.193-67.19L126.74 0C102.12 14.27 93.769 40.688 93 53.902c1.143-.078 2.276-.173 3.444-.173 17.783.032 34.18 9.511 42.947 24.828z" fill="url(#d)"/>
        <path d="M97.642 85.02c-.16 2.427-8.668 10.797-11.643 10.797C58.469 95.817 54 112.6 54 112.6c1.219 14.132 10.991 25.772 22.804 31.93.54.281 1.087.536 1.634.785.947.423 1.895.814 2.842 1.173a42.761 42.761 0 0012.598 2.45c48.253 2.28 57.6-58.15 22.779-75.686A33.225 33.225 0 01140 78.964c-8.66-15.4-24.855-24.932-42.42-24.964-1.15 0-2.274.096-3.403.174a48.213 48.213 0 00-26.643 10.348c1.476 1.259 3.142 2.94 6.652 6.427 6.57 6.522 23.419 13.279 23.456 14.072z" fill="url(#e)"/>
        <path d="M97.642 85.02c-.16 2.427-8.668 10.797-11.643 10.797C58.469 95.817 54 112.6 54 112.6c1.219 14.132 10.991 25.772 22.804 31.93.54.281 1.087.536 1.634.785.947.423 1.895.814 2.842 1.173a42.761 42.761 0 0012.598 2.45c48.253 2.28 57.6-58.15 22.779-75.686A33.225 33.225 0 01140 78.964c-8.66-15.4-24.855-24.932-42.42-24.964-1.15 0-2.274.096-3.403.174a48.213 48.213 0 00-26.643 10.348c1.476 1.259 3.142 2.94 6.652 6.427 6.57 6.522 23.419 13.279 23.456 14.072z" fill="url(#f)"/>
        <path d="M62.966 60.655c.798.506 1.457.947 2.034 1.345a45.36 45.36 0 01-.277-24A72.96 72.96 0 0041 56.267c.48-.013 14.777-.269 21.966 4.388z" fill="url(#g)"/>
        <path d="M.471 104.922c7.501 44.09 47.669 77.752 93.271 79.036 42.205 1.188 69.167-23.184 80.306-46.96a87.14 87.14 0 003.025-65.254v-.092c0-.073-.015-.115 0-.093l.017.162c3.448 22.394-8.002 44.09-25.902 58.76l-.055.125c-34.877 28.257-68.254 17.048-75.01 12.473a50.674 50.674 0 01-1.414-.7c-20.335-9.67-28.736-28.1-26.935-43.906-9.862.145-18.884-5.5-23.023-14.406a36.824 36.824 0 0135.732-1.427 48.632 48.632 0 0036.492 1.427c-.038-.786-16.952-7.484-23.547-13.945-3.524-3.455-5.196-5.118-6.678-6.368a29.043 29.043 0 00-2.508-1.891 136.09 136.09 0 00-2.006-1.325c-7.09-4.585-21.188-4.333-21.654-4.32h-.045C36.685 51.36 36.956 35.345 37.177 32a17.404 17.404 0 00-3.245 1.714 70.68 70.68 0 00-9.5 8.095 84.537 84.537 0 00-9.123 10.819v.015-.018A81.445 81.445 0 002.27 81.92c-.047.197-3.5 15.215-1.798 23.003z" fill="url(#h)"/>
        <path d="M130.547 67.155a52.74 52.74 0 018.995 11.748c.532.403 1.029.803 1.451 1.19 21.953 20.248 10.45 48.87 9.594 50.907 17.833-14.7 29.231-36.44 25.806-58.88-10.953-27.323-29.519-38.334-44.681-62.311a117.743 117.743 0 01-2.281-3.71 30.601 30.601 0 01-1.067-2A17.636 17.636 0 01126.92.262a.25.25 0 00-.22-.25.345.345 0 00-.182 0c-.013 0-.033.023-.048.028-.015.005-.047.027-.07.037-3.745 1.778-25.953 36.961 4.147 67.078z" fill="url(#i)"/>
        <path d="M142.565 80.564a20.261 20.261 0 00-1.459-1.187c-.198-.147-.394-.294-.604-.441a33.76 33.76 0 00-23.457-5.657c34.99 17.377 25.603 77.217-22.889 74.958a43.52 43.52 0 01-12.658-2.425 51.478 51.478 0 01-2.856-1.162c-.55-.25-1.1-.499-1.642-.778l.068.042c6.762 4.585 40.16 15.787 75.08-12.465l.055-.125c.871-2.02 12.428-30.573-9.638-50.76z" fill="url(#j)"/>
        <path d="M53.324 112.037s4.472-16.802 32.024-16.802c2.977 0 11.5-8.38 11.652-10.809a47.891 47.891 0 01-36.379-1.441A36.29 36.29 0 0025 84.426c4.126 8.997 13.12 14.7 22.952 14.554-1.795 15.97 6.58 34.59 26.851 44.355.453.219.878.456 1.343.665-11.832-6.162-21.602-17.815-22.822-31.963z" fill="url(#k)"/>
        <path d="M186.977 67.094c-4.22-10.134-12.78-21.076-19.483-24.535a100.569 100.569 0 019.836 29.421l.017.163c-10.98-27.323-29.602-38.34-44.81-62.33a117.753 117.753 0 01-2.287-3.71 30.591 30.591 0 01-1.07-2.002A17.618 17.618 0 01127.73.262a.25.25 0 00-.22-.25.346.346 0 00-.183 0c-.013 0-.033.023-.048.028-.015.005-.048.027-.07.037l.038-.065c-24.395 14.256-32.672 40.646-33.434 53.846 1.133-.077 2.256-.172 3.413-.172 17.62.032 33.868 9.501 42.555 24.802a33.579 33.579 0 00-23.417-5.675c34.931 17.432 25.56 77.46-22.851 75.195a43.263 43.263 0 01-12.637-2.434 51.25 51.25 0 01-2.852-1.165c-.549-.25-1.098-.5-1.639-.78l.068.042c-.471-.225-.942-.46-1.414-.703.454.218.88.453 1.346.66-11.86-6.117-21.653-17.681-22.876-31.722 0 0 4.483-16.674 32.1-16.674 2.985 0 11.527-8.316 11.68-10.727-.038-.787-16.94-7.503-23.53-13.98-3.52-3.464-5.192-5.132-6.673-6.385a29.03 29.03 0 00-2.506-1.896 44.853 44.853 0 01-.273-23.692A71.913 71.913 0 0040.93 56.584h-.045c-3.85-4.869-3.579-20.925-3.358-24.28a17.372 17.372 0 00-3.243 1.72 70.69 70.69 0 00-9.492 8.115 84.684 84.684 0 00-9.079 10.872v.015-.018a81.786 81.786 0 00-13.03 29.369l-.13.64c-.183.853-1.003 5.185-1.12 6.115 0 .07 0-.072 0 0A112.567 112.567 0 000 102.645v.5c.044 50.315 38.652 92.231 88.882 96.5 50.231 4.27 95.385-30.526 103.954-80.108.163-1.251.296-2.489.44-3.752 2.001-16.5-.164-33.239-6.299-48.691z" fill="url(#l)"/>
    </g>
</svg>