<?xml version="1.0" encoding="UTF-8"?>
<svg width="2003px" height="2003px" viewBox="0 0 2003 2003" version="1.1" xmlns="http://www.w3.org/2000/svg" xmlns:xlink="http://www.w3.org/1999/xlink">
    <title>icon-apache</title>
    <defs>
        <linearGradient x1="16.5377071%" y1="61.2190802%" x2="159.470346%" y2="25.3397534%" id="linearGradient-1">
            <stop stop-color="#F69923" offset="0%"></stop>
            <stop stop-color="#F79A23" offset="31.23%"></stop>
            <stop stop-color="#E97826" offset="83.83%"></stop>
        </linearGradient>
        <linearGradient x1="-49.3705987%" y1="394.595728%" x2="59.1735498%" y2="13.7697558%" id="linearGradient-2">
            <stop stop-color="#9E2064" offset="32.33%"></stop>
            <stop stop-color="#C92037" offset="63.02%"></stop>
            <stop stop-color="#CD2335" offset="75.14%"></stop>
            <stop stop-color="#E97826" offset="100%"></stop>
        </linearGradient>
        <linearGradient x1="-20.6556056%" y1="179.294724%" x2="125.23272%" y2="-119.173458%" id="linearGradient-3">
            <stop stop-color="#282662" offset="0%"></stop>
            <stop stop-color="#662E8D" offset="9.54839%"></stop>
            <stop stop-color="#9F2064" offset="78.82%"></stop>
            <stop stop-color="#CD2032" offset="94.87%"></stop>
        </linearGradient>
        <linearGradient x1="24.4388792%" y1="170.500916%" x2="68.9157858%" y2="-44.3641683%" id="linearGradient-4">
            <stop stop-color="#9E2064" offset="32.33%"></stop>
            <stop stop-color="#C92037" offset="63.02%"></stop>
            <stop stop-color="#CD2335" offset="75.14%"></stop>
            <stop stop-color="#E97826" offset="100%"></stop>
        </linearGradient>
        <linearGradient x1="43.7810387%" y1="77.3318733%" x2="60.442015%" y2="-41.423122%" id="linearGradient-5">
            <stop stop-color="#282662" offset="0%"></stop>
            <stop stop-color="#662E8D" offset="9.54839%"></stop>
            <stop stop-color="#9F2064" offset="78.82%"></stop>
            <stop stop-color="#CD2032" offset="94.87%"></stop>
        </linearGradient>
        <linearGradient x1="0.282225753%" y1="187.748055%" x2="85.5720597%" y2="-51.1460685%" id="linearGradient-6">
            <stop stop-color="#9E2064" offset="32.33%"></stop>
            <stop stop-color="#C92037" offset="63.02%"></stop>
            <stop stop-color="#CD2335" offset="75.14%"></stop>
            <stop stop-color="#E97826" offset="100%"></stop>
        </linearGradient>
        <linearGradient x1="-129.864594%" y1="416.981267%" x2="66.4177731%" y2="21.0195788%" id="linearGradient-7">
            <stop stop-color="#9E2064" offset="32.33%"></stop>
            <stop stop-color="#C92037" offset="63.02%"></stop>
            <stop stop-color="#CD2335" offset="75.14%"></stop>
            <stop stop-color="#E97826" offset="100%"></stop>
        </linearGradient>
        <linearGradient x1="-4549.16207%" y1="3992.33182%" x2="2857.87143%" y2="-2356.43667%" id="linearGradient-8">
            <stop stop-color="#9E2064" offset="32.33%"></stop>
            <stop stop-color="#C92037" offset="63.02%"></stop>
            <stop stop-color="#CD2335" offset="75.14%"></stop>
            <stop stop-color="#E97826" offset="100%"></stop>
        </linearGradient>
        <linearGradient x1="-15880.8178%" y1="3797.57123%" x2="7802.19722%" y2="-1773.17192%" id="linearGradient-9">
            <stop stop-color="#9E2064" offset="32.33%"></stop>
            <stop stop-color="#C92037" offset="63.02%"></stop>
            <stop stop-color="#CD2335" offset="75.14%"></stop>
            <stop stop-color="#E97826" offset="100%"></stop>
        </linearGradient>
        <linearGradient x1="-19835.5881%" y1="42632.5176%" x2="19948.3013%" y2="-42541.1488%" id="linearGradient-10">
            <stop stop-color="#9E2064" offset="32.33%"></stop>
            <stop stop-color="#C92037" offset="63.02%"></stop>
            <stop stop-color="#CD2335" offset="75.14%"></stop>
            <stop stop-color="#E97826" offset="100%"></stop>
        </linearGradient>
    </defs>
    <g id="Page-1" stroke="none" stroke-width="1" fill="none" fill-rule="evenodd">
        <g id="icon-apache">
            <circle id="Oval" fill="#F0F0F0" cx="1001.5" cy="1001.5" r="1001.5"></circle>
            <g transform="translate(590.000000, 276.000000)">
                <path d="M618.927141,6.89485029 C596.117886,20.2982604 558.240075,58.2803024 513,113.299416 L554.558943,191.457408 C583.732771,149.875985 613.353839,112.4767 643.250131,80.5279064 C645.555139,77.9911996 646.759247,76.7914059 646.759247,76.7914059 C645.589542,78.0254794 644.419837,79.2938328 643.250131,80.5279064 C633.582861,91.154651 604.237017,125.263073 559.96023,193 C602.585669,190.874651 668.089168,182.201856 721.517181,173.083424 C737.411412,84.3672464 705.932577,43.7456582 705.932577,43.7456582 C705.932577,43.7456582 665.921773,-20.7689655 618.927141,6.89485029 Z" id="Path" fill="url(#linearGradient-1)" fill-rule="nonzero"></path>
                <path d="M548.078049,453.151515 C548.385366,453.090909 548.692683,453.060606 549,453 L543.058537,453.575758 C542.682927,453.727273 542.37561,453.878788 542,454 C544.04878,453.727273 546.063415,453.424242 548.078049,453.151515 Z" id="Path"></path>
                <path d="M506,594 C502.721854,594.814815 499.377483,595.444444 496,596 C499.377483,595.444444 502.721854,594.777778 506,594 Z" id="Path"></path>
                <path d="M218.134317,908.741774 C218.580635,907.571748 219.026954,906.401721 219.43894,905.231694 C228.5713,881.074079 237.600663,857.604715 246.561361,834.720365 C256.62069,809.048598 266.542689,784.202732 276.361693,760.113942 C286.695678,734.717476 296.892335,710.181323 306.951664,686.471071 C317.491643,661.590793 327.894293,637.639653 338.09095,614.58324 C346.399337,595.828397 354.570396,577.658567 362.638458,560.073751 C365.316368,554.223616 367.994278,548.407894 370.672188,542.660997 C375.959343,531.270441 381.212167,520.08636 386.361994,509.177579 C391.134167,499.0947 395.872007,489.252709 400.575516,479.582781 C402.120464,476.348 403.699744,473.182045 405.244692,469.981677 C405.485017,469.465489 405.759675,468.949301 406,468.433112 L400.918838,468.983713 L396.86764,461 C396.489986,461.791489 396.078,462.548565 395.666014,463.340054 C388.387592,477.82774 381.177835,492.453077 374.036741,507.216064 C369.91688,515.750378 365.797019,524.319104 361.711489,532.922243 C350.38187,556.770145 339.223912,580.824522 328.271947,605.050962 C317.182653,629.51829 306.333685,654.123268 295.690709,678.762658 C285.219395,702.954686 274.988405,727.181126 264.929077,751.33874 C254.904081,775.461943 245.11941,799.51632 235.540732,823.398634 C225.550068,848.347738 215.834061,873.055953 206.427044,897.488868 C204.298449,902.994878 202.169854,908.500887 200.075591,914.006896 C192.522512,933.725291 185.175425,953.168385 178,972.370592 L184.385785,985 L190.084927,984.380574 C190.29092,983.795561 190.496913,983.210547 190.702906,982.659946 C199.938262,957.366717 209.070622,932.727326 218.134317,908.741774 Z" id="Path"></path>
                <path d="M492.965608,596.017181 L492.965608,596.017181 C493,596.017181 493,595.982819 493.034392,595.982819 C493.034392,595.982819 493,595.982819 492.965608,596.017181 Z" id="Path"></path>
                <path d="M479,664 C473.85595,665 468.544885,665.964286 463.100209,666.964286 C463.066806,666.964286 463.033403,667 463,667 C465.73904,666.571429 468.444676,666.142857 471.11691,665.642857 C473.789144,665.142857 476.394572,664.607143 479,664 Z" id="Path" fill="#BE202E" fill-rule="nonzero"></path>
                <path d="M479,664 C473.85595,665 468.544885,665.964286 463.100209,666.964286 C463.066806,666.964286 463.033403,667 463,667 C465.73904,666.571429 468.444676,666.142857 471.11691,665.642857 C473.789144,665.142857 476.394572,664.607143 479,664 Z" id="Path" fill="#BE202E" fill-rule="nonzero" opacity="0.35"></path>
                <path d="M493.103175,596.907692 C493.103175,596.907692 493.068783,596.907692 493.068783,596.953846 C493.034392,596.953846 493.034392,597 493,597 C493.89418,596.861538 494.753968,596.630769 495.613757,596.492308 C499.156085,595.8 502.62963,594.969231 506,594 C501.769841,594.923077 497.470899,595.938462 493.103175,596.907692 L493.103175,596.907692 L493.103175,596.907692 Z" id="Path" fill="#BE202E" fill-rule="nonzero"></path>
                <path d="M493.103175,596.907692 C493.103175,596.907692 493.068783,596.907692 493.068783,596.953846 C493.034392,596.953846 493.034392,597 493,597 C493.89418,596.861538 494.753968,596.630769 495.613757,596.492308 C499.156085,595.8 502.62963,594.969231 506,594 C501.769841,594.923077 497.470899,595.938462 493.103175,596.907692 L493.103175,596.907692 L493.103175,596.907692 Z" id="Path" fill="#BE202E" fill-rule="nonzero" opacity="0.35"></path>
                <path d="M431.292168,394.535517 C443.935002,370.983031 456.750081,347.945541 469.702957,325.526046 C483.138122,302.248224 496.745531,279.657064 510.490738,257.889897 C511.283068,256.619574 512.109847,255.314917 512.902177,254.01026 C526.475138,232.586425 540.185895,211.986582 554,192.2794 L512.38544,114 C509.250569,117.810971 506.115697,121.690608 502.911927,125.638911 C490.923627,140.539463 478.453039,156.573007 465.672408,173.567877 C451.272668,192.72573 436.459539,213.18824 421.405265,234.646409 C407.522262,254.490923 393.432564,275.262431 379.342866,296.754933 C367.354566,315.054459 355.297368,333.903315 343.343516,353.232833 C342.895678,353.953828 342.447839,354.674822 342,355.395817 L396.154046,462 C407.728957,439.168508 419.441664,416.646014 431.292168,394.535517 Z" id="Path" fill="url(#linearGradient-2)" fill-rule="nonzero"></path>
                <path d="M185.703754,995.409123 C178.545974,1015.12198 171.353781,1035.17947 164.127176,1055.68497 C164.023939,1055.99514 163.920702,1056.27084 163.817465,1056.58101 C162.785092,1059.4759 161.787133,1062.3708 160.754761,1065.26569 C155.902612,1079.08537 151.669886,1091.52653 142,1119.82068 C157.932943,1127.09238 170.734358,1146.25383 182.847524,1168 C181.574266,1145.49564 172.248504,1124.33534 154.59494,1107.96539 C233.15846,1111.51509 300.847661,1091.62992 335.845076,1034.11111 C338.976605,1028.97612 341.832835,1023.59989 344.413765,1017.84456 C328.515234,1038.0399 308.796926,1046.62119 271.665941,1044.51895 C271.597116,1044.55341 271.493879,1044.58787 271.425054,1044.62234 C271.493879,1044.58787 271.597116,1044.55341 271.665941,1044.51895 C326.31284,1020.01573 353.739527,996.511941 377.96586,957.534249 C383.712731,948.298155 389.287541,938.200486 395,927 C347.20117,976.144287 291.83161,990.136279 233.502584,979.521665 L189.764418,984.312026 C188.387922,987.999571 187.045838,991.687116 185.703754,995.409123 Z" id="Path" fill="url(#linearGradient-3)" fill-rule="nonzero"></path>
                <path d="M205.940541,897.145116 C215.412571,872.720957 225.160151,848.021598 235.148837,823.081436 C244.724199,799.207682 254.57511,775.196326 264.632684,751.04737 C274.690258,726.898414 284.988938,702.715057 295.49428,678.4973 C306.171842,653.866741 317.090509,629.270582 328.181395,604.812023 C339.16895,580.628667 350.363168,556.548511 361.729604,532.709157 C365.82841,524.109101 369.961659,515.543446 374.094909,507.01219 C381.259208,492.254495 388.492395,477.6344 395.794469,463.151906 C396.17335,462.360701 396.586675,461.603896 397,460.812691 L342.854431,354 C341.958894,355.444809 341.0978,356.889619 340.202263,358.334428 C327.595852,378.905761 315.023884,399.958697 302.693023,421.458837 C290.224387,443.165377 277.996857,465.28472 266.044877,487.713665 C255.95286,506.633788 246.101948,525.725911 236.526587,544.990036 C234.597737,548.911662 232.703331,552.764487 230.808925,556.651712 C218.99472,580.903869 208.351603,604.33042 198.707354,626.862566 C187.788686,652.387531 178.178881,676.777289 169.774607,699.894239 C164.229164,715.099137 159.200377,729.788032 154.584915,743.892124 C150.796103,755.932202 147.17951,768.00668 143.769579,780.012357 C135.675299,808.323741 128.717662,836.566323 123,864.705706 L177.421119,972 C184.619862,952.804676 191.990823,933.36855 199.568448,913.657222 C201.669516,908.187587 203.805028,902.649151 205.940541,897.145116 Z" id="Path" fill="url(#linearGradient-4)" fill-rule="nonzero"></path>
                <path d="M122.103255,868.711275 C115.314026,903.006205 110.479272,937.163681 108.04475,971.114975 C107.976172,972.317703 107.839016,973.486067 107.770438,974.688795 C90.8659434,947.541506 45.6044169,921.047126 45.707284,921.287671 C78.1104223,968.365882 102.695661,1015.10046 106.364587,1060.97594 C89.0143355,1064.54976 65.2520341,1059.39521 37.7865169,1049.25793 C66.4178613,1075.61486 87.9170864,1082.89995 96.283611,1084.85868 C69.983921,1086.50814 42.5869818,1104.61778 14.9843084,1125.47652 C55.3425029,1108.98197 87.9513754,1102.45287 111.302208,1107.74488 C74.2700504,1212.82894 37.1350252,1328.84065 0,1452 C11.3839597,1448.63236 18.1731887,1440.96927 21.9792716,1430.59144 C28.5970554,1408.28943 72.5213096,1261.96897 141.339403,1069.63558 C143.293878,1064.17176 145.282642,1058.67357 147.271406,1053.14103 C147.820031,1051.59466 148.402945,1050.0483 148.951569,1048.5363 C156.220845,1028.36483 163.764432,1007.781 171.548043,986.784803 C173.331073,982.008254 175.114103,977.231706 176.897133,972.420794 C176.931422,972.317703 176.965711,972.214612 177,972.145885 L122.891902,865 C122.651879,866.202728 122.343278,867.43982 122.103255,868.711275 Z" id="Path" fill="url(#linearGradient-5)" fill-rule="nonzero"></path>
                <path d="M405.19596,470.595804 C403.650505,473.755848 402.105051,476.950241 400.525253,480.178983 C395.854545,489.830858 391.115152,499.654475 386.307071,509.71853 C381.121212,520.606944 375.90101,531.735797 370.612121,543.139436 C367.933333,548.875603 365.288889,554.64612 362.575758,560.519681 C354.505051,578.071667 346.331313,596.207575 338.020202,614.927404 C327.820202,637.940772 317.414141,661.847196 306.870707,686.681025 C296.808081,710.347011 286.608081,734.837356 276.270707,760.186409 C266.448485,784.230227 256.523232,809.064055 246.460606,834.653546 C237.49697,857.495173 228.464646,880.92072 219.329293,905.033234 C218.882828,906.201077 218.436364,907.368919 218.024242,908.536762 C208.957576,932.477534 199.822222,957.070925 190.618182,982.282584 C190.412121,982.866506 190.206061,983.450427 190,984 L233.650505,979.225585 C232.791919,979.053843 231.89899,978.950798 231.040404,978.779057 C283.242424,972.287226 352.616162,933.267545 397.468687,885.111214 C418.143434,862.922206 436.894949,836.748793 454.238384,806.1101 C467.151515,783.302822 479.274747,758.022466 490.814141,730.028593 C500.911111,705.572596 510.59596,679.090048 519.937374,650.374861 C507.951515,656.69495 494.214141,661.331972 479.068687,664.560713 C476.424242,665.110286 473.711111,665.659859 470.963636,666.140735 C468.216162,666.621612 465.434343,667.06814 462.618182,667.445971 L462.618182,667.445971 L462.618182,667.445971 C462.652525,667.445971 462.686869,667.411623 462.721212,667.411623 C511.385859,648.691794 542.088889,612.523023 564.412121,568.248051 C551.60202,576.972521 530.789899,588.410509 505.856566,593.906238 C502.456566,594.661901 498.987879,595.245823 495.484848,595.761047 C494.591919,595.89844 493.733333,596.035834 492.874747,596.138879 L492.874747,596.138879 L492.874747,596.138879 C492.909091,596.138879 492.909091,596.10453 492.943434,596.10453 C492.943434,596.10453 492.977778,596.10453 492.977778,596.070182 L492.977778,596.070182 C509.874747,588.99443 524.127273,581.094319 536.490909,571.751578 C539.135354,569.759376 541.711111,567.698478 544.183838,565.534534 C547.961616,562.271444 551.533333,558.836613 554.967677,555.230041 C557.165657,552.928704 559.294949,550.558671 561.355556,548.085592 C566.19798,542.315076 570.731313,536.098032 574.989899,529.331415 C576.294949,527.270516 577.565657,525.175269 578.836364,523.011326 C580.450505,519.885629 581.99596,516.82863 583.507071,513.805978 C590.307071,500.135351 595.733333,487.941701 600.060606,477.225028 C602.224242,471.866691 604.113131,466.920535 605.727273,462.317861 C606.379798,460.497401 606.99798,458.711289 607.581818,456.993873 C609.29899,451.841626 610.707071,447.273301 611.806061,443.254549 C613.454545,437.243595 614.450505,432.469179 615,429 L615,429 L615,429 C613.351515,430.305236 611.462626,431.610472 609.333333,432.881359 C594.634343,441.674527 569.426263,449.643335 549.094949,453.3873 L589.173737,448.990717 L549.094949,453.3873 C548.785859,453.455997 548.476768,453.490345 548.167677,453.559042 C546.141414,453.902525 544.080808,454.21166 542.020202,454.555143 C542.39798,454.383401 542.707071,454.21166 543.084848,454.074267 L405.951515,469.118827 C405.711111,469.599703 405.470707,470.080579 405.19596,470.595804 Z" id="Path" fill="url(#linearGradient-6)" fill-rule="nonzero"></path>
                <path d="M559.618321,192.944238 C547.423664,211.684944 534.09542,232.97026 519.770992,257.075279 C519.015267,258.313197 518.259542,259.619888 517.503817,260.892193 C505.137405,281.76487 491.980916,304.666357 478.171756,329.768587 C466.217557,351.432156 453.782443,374.677509 440.866412,399.67658 C429.599237,421.443309 417.954198,444.551115 406,469 L543.164122,453.938662 C583.114504,435.541822 600.977099,418.898699 618.324427,394.828067 C622.927481,388.19145 627.564885,381.245353 632.167939,374.05855 C646.251908,352.051115 660.061069,327.80855 672.427481,303.703532 C684.347328,280.423792 694.858779,257.350372 702.931298,236.546468 C708.049618,223.307621 712.171756,210.997212 715.022901,200.199814 C717.530534,190.674721 719.48855,181.631041 721,173 C667.583969,182.112454 602.179389,190.846654 559.618321,192.944238 Z" id="Path" fill="url(#linearGradient-7)" fill-rule="nonzero"></path>
                <path d="M471,666 C468.366255,666.736842 465.699588,667.421053 463,668 L463,668 C465.699588,667.421053 468.366255,666.736842 471,666 Z" id="Path" fill="#BE202E" fill-rule="nonzero"></path>
                <path d="M471,666 C468.366255,666.736842 465.699588,667.421053 463,668 L463,668 C465.699588,667.421053 468.366255,666.736842 471,666 Z" id="Path" fill="#BE202E" fill-rule="nonzero" opacity="0.35"></path>
                <path d="M471,666 C468.366255,666.736842 465.699588,667.421053 463,668 L463,668 C465.699588,667.421053 468.366255,666.736842 471,666 Z" id="Path" fill="url(#linearGradient-8)" fill-rule="nonzero"></path>
                <path d="M493,596.188994 C494.026316,596.085906 495.013158,595.914094 496,595.811006 C495.013158,595.914094 494.026316,596.051544 493,596.188994 L493,596.188994 Z" id="Path" fill="#BE202E" fill-rule="nonzero"></path>
                <path d="M493,596.188994 C494.026316,596.085906 495.013158,595.914094 496,595.811006 C495.013158,595.914094 494.026316,596.051544 493,596.188994 L493,596.188994 Z" id="Path" fill="#BE202E" fill-rule="nonzero" opacity="0.35"></path>
                <path d="M493,596.188994 C494.026316,596.085906 495.013158,595.914094 496,595.811006 C495.013158,595.914094 494.026316,596.051544 493,596.188994 L493,596.188994 Z" id="Path" fill="url(#linearGradient-9)" fill-rule="nonzero"></path>
                <path d="M492.982804,596.017181 C492.982804,596.017181 493.017196,596.017181 493.017196,595.982819 L493.017196,595.982819 L493.017196,595.982819 L493.017196,595.982819 C493.017196,595.982819 492.982804,595.982819 492.982804,596.017181 Z" id="Path" fill="#BE202E" fill-rule="nonzero"></path>
                <path d="M492.982804,596.017181 C492.982804,596.017181 493.017196,596.017181 493.017196,595.982819 L493.017196,595.982819 L493.017196,595.982819 L493.017196,595.982819 C493.017196,595.982819 492.982804,595.982819 492.982804,596.017181 Z" id="Path" fill="#BE202E" fill-rule="nonzero" opacity="0.35"></path>
                <path d="M492.982804,596.017181 C492.982804,596.017181 493.017196,596.017181 493.017196,595.982819 L493.017196,595.982819 L493.017196,595.982819 L493.017196,595.982819 C493.017196,595.982819 492.982804,595.982819 492.982804,596.017181 Z" id="Path" fill="url(#linearGradient-10)" fill-rule="nonzero"></path>
                <path d="M764,132 L764,135.939394 L773.306851,135.939394 L773.306851,162 L777.62061,162 L777.62061,135.939394 L786.995394,135.939394 L786.995394,132 L764,132 Z M817.769142,132 L807.37536,152.942761 L796.913644,132 L791.716753,132 L791.716753,162 L795.690846,162 L795.690846,138.195286 L805.982729,158.835017 L808.734024,158.835017 L819.025907,138.195286 L819.025907,162 L823,162 L823,132 L817.769142,132 Z" id="Shape" fill="#6D6E71" fill-rule="nonzero"></path>
            </g>
        </g>
    </g>
</svg>