<svg width="512" height="512" viewBox="0 0 512 512" fill="none" xmlns="http://www.w3.org/2000/svg">
<path d="M256 0C114.656 0 0 114.656 0 256C0 397.344 114.656 512 256 512C397.344 512 512 397.344 512 256C512 114.656 397.344 0 256 0Z" fill="#368FB9"/>
<path d="M406.634 348.12C390.82 351.876 382.814 355.336 363.244 368.086C332.702 387.854 299.292 397.046 299.292 397.046C299.292 397.046 296.526 401.198 288.518 403.076C274.682 406.436 222.592 409.304 217.848 409.402C205.096 409.502 197.288 406.142 195.114 400.902C188.492 385.088 204.602 378.168 204.602 378.168C204.602 378.168 201.044 375.994 198.968 374.016C197.09 372.138 195.114 368.384 194.52 369.766C192.05 375.796 190.764 390.524 184.142 397.146C175.048 406.338 157.85 403.274 147.67 397.936C136.5 392.006 148.46 378.07 148.46 378.07C148.46 378.07 142.43 381.628 137.588 374.314C133.238 367.594 129.188 356.126 130.274 341.994C131.46 325.882 149.448 310.264 149.448 310.264C149.448 310.264 146.286 286.444 156.664 262.03C166.054 239.79 191.358 221.9 191.358 221.9C191.358 221.9 170.106 198.376 178.014 177.224C183.154 163.384 185.23 163.484 186.91 162.892C192.84 160.618 198.572 158.146 202.824 153.502C224.074 130.57 251.156 134.918 251.156 134.918C251.156 134.918 264.006 95.878 275.868 103.488C279.524 105.86 292.67 135.116 292.67 135.116C292.67 135.116 306.706 126.912 308.288 129.976C316.788 146.484 317.776 178.014 314.02 197.19C307.694 228.818 291.88 245.82 285.554 256.494C284.072 258.966 302.554 266.774 314.218 299.094C324.992 328.648 315.404 353.458 317.084 356.226C317.38 356.72 317.48 356.918 317.48 356.918C317.48 356.918 329.834 357.906 354.644 342.586C367.888 334.382 383.604 325.19 401.494 324.992C418.794 324.694 419.682 344.958 406.634 348.12V348.12ZM430.16 333.59C428.38 319.556 416.52 309.87 401.298 310.066C378.564 310.362 359.488 322.126 346.836 329.934C341.894 332.998 337.644 335.272 333.986 336.952C334.776 325.486 334.086 310.462 328.154 293.956C320.938 274.186 311.254 262.03 304.334 255.012C312.34 243.348 323.312 226.348 328.45 200.056C332.898 177.618 331.516 142.728 321.334 123.156C319.258 119.204 315.8 116.336 311.45 115.15C309.67 114.656 306.31 113.668 299.688 115.546C289.706 94.888 286.246 92.714 283.576 90.934C278.042 87.376 271.518 86.586 265.39 88.858C257.186 91.824 250.17 99.732 243.546 113.766C242.593 115.747 241.703 117.758 240.878 119.796C228.324 120.686 208.556 125.232 191.852 143.32C189.776 145.594 185.724 147.274 181.472 148.856H181.572C172.874 151.92 168.92 159.036 164.078 171.886C157.356 189.874 164.274 207.566 171.094 219.034C161.804 227.336 149.448 240.58 142.926 256.098C134.82 275.274 133.93 294.054 134.226 304.234C127.308 311.55 116.634 325.288 115.446 340.708C113.866 362.254 121.674 376.884 125.134 382.22C126.122 383.802 127.21 385.088 128.394 386.372C128 389.04 127.902 391.908 128.494 394.872C129.78 401.792 134.128 407.426 140.75 410.984C153.798 417.904 171.984 420.868 186.02 413.85C191.06 419.188 200.254 424.328 216.958 424.328H217.946C222.196 424.328 276.164 421.462 291.88 417.608C298.898 415.926 303.74 412.96 306.904 410.292C316.984 407.128 344.858 397.64 371.15 380.64C389.732 368.58 396.158 366.01 409.996 362.65C423.436 359.39 431.84 347.132 430.16 333.59V333.59Z" fill="white"/>
</svg>
