<?xml version="1.0" encoding="UTF-8"?>
<svg width="592px" height="596px" viewBox="0 0 592 596" version="1.1" xmlns="http://www.w3.org/2000/svg" xmlns:xlink="http://www.w3.org/1999/xlink">
    <title>icon-silverstripe</title>
    <g id="Page-1" stroke="none" stroke-width="1" fill="none" fill-rule="evenodd">
        <g id="icon-silverstripe" fill="#005AE1" fill-rule="nonzero">
            <g id="Group" transform="translate(0.090919, 0.760000)">
                <path d="M239.499081,396.77 L239.499081,396.77 C285.99208,364.92275 297.869319,301.417802 266.029081,254.92 L181.829081,312.55 L181.829081,312.55 C158.577893,328.466846 126.825928,322.521188 110.909081,299.27 C94.9922347,276.018812 100.937893,244.266846 124.189081,228.35 L124.189081,228.35 L201.049081,175.71 L250.469081,141.85 C272.813273,126.571145 288.167982,103.037289 293.151535,76.431453 C298.135089,49.825617 292.338748,22.3299464 277.039081,0 L192.909081,57.67 L66.6090812,144.17 L66.6090812,144.17 C-3.14448267,191.926062 -20.9769811,287.186436 26.7790812,356.94 C74.5351435,426.693564 169.795517,444.526062 239.549081,396.77 L239.499081,396.77 Z" id="Path"></path>
                <path d="M350.289081,197.3 L350.289081,197.3 C327.95255,212.583389 312.605887,236.1175 307.628123,262.720592 C302.650359,289.323684 308.44964,316.81446 323.749081,339.14 L407.909081,281.51 L407.909081,281.51 C422.949963,271.213606 442.341371,269.72356 458.778751,277.601148 C475.21613,285.478736 486.202252,301.527165 487.598751,319.701148 C488.995249,337.87513 480.589963,355.413606 465.549081,365.71 L465.549081,365.71 L388.709081,418.32 L339.279081,452.18 C316.934889,467.458855 301.580181,490.992711 296.596627,517.598547 C291.613074,544.204383 297.409414,571.700054 312.709081,594.03 L396.909081,536.39 L523.219081,449.89 L523.219081,449.89 C568.683391,419.137835 594.200535,366.395671 590.095376,311.661342 C585.990218,256.927013 552.891317,208.581142 503.348524,184.954656 C453.805732,161.328169 395.404773,166.038626 350.289081,197.3 Z" id="Path"></path>
            </g>
        </g>
    </g>
</svg>