<svg xmlns="http://www.w3.org/2000/svg" viewBox="0 0 592 596">
    <g fill="#005AE1" fill-rule="nonzero">
        <path d="M239.59 397.53c46.493-31.847 58.37-95.352 26.53-141.85l-84.2 57.63c-23.251 15.917-55.003 9.971-70.92-13.28-15.917-23.251-9.971-55.003 13.28-70.92l76.86-52.64 49.42-33.86A102 102 0 00277.13.76L193 58.43l-126.3 86.5C-3.054 192.686-20.886 287.946 26.87 357.7c47.756 69.754 143.016 87.586 212.77 39.83h-.05zM350.38 198.06a102 102 0 00-26.54 141.84L408 282.27a51.02 51.02 0 0157.64 84.2l-76.84 52.61-49.43 33.86a102 102 0 00-26.57 141.85l84.2-57.64 126.31-86.5c45.464-30.752 70.981-83.494 66.876-138.229-4.105-54.734-37.204-103.08-86.747-126.706-49.542-23.627-107.943-18.916-153.059 12.345z"/>
    </g>
</svg>