<?xml version="1.0" encoding="UTF-8"?>
<svg width="194px" height="200px" viewBox="0 0 194 200" version="1.1" xmlns="http://www.w3.org/2000/svg" xmlns:xlink="http://www.w3.org/1999/xlink">
    <title>icon-firefox</title>
    <defs>
        <linearGradient x1="87.404218%" y1="15.4921976%" x2="9.21036232%" y2="93.116286%" id="linearGradient-1">
            <stop stop-color="#FFF44F" offset="4.8%"></stop>
            <stop stop-color="#FFE847" offset="11.1%"></stop>
            <stop stop-color="#FFC830" offset="22.5%"></stop>
            <stop stop-color="#FF980E" offset="36.8%"></stop>
            <stop stop-color="#FF8B16" offset="40.1%"></stop>
            <stop stop-color="#FF672A" offset="46.2%"></stop>
            <stop stop-color="#FF3647" offset="53.4%"></stop>
            <stop stop-color="#E31587" offset="70.5%"></stop>
        </linearGradient>
        <radialGradient cx="85.9134916%" cy="-12.9338833%" fx="85.9134916%" fy="-12.9338833%" r="128.95914%" gradientTransform="translate(0.859135,-0.129339),scale(0.809278,1.000000),translate(-0.859135,0.129339)" id="radialGradient-2">
            <stop stop-color="#FFBD4F" offset="12.9%"></stop>
            <stop stop-color="#FFAC31" offset="18.6%"></stop>
            <stop stop-color="#FF9D17" offset="24.7%"></stop>
            <stop stop-color="#FF980E" offset="28.3%"></stop>
            <stop stop-color="#FF563B" offset="40.3%"></stop>
            <stop stop-color="#FF3750" offset="46.7%"></stop>
            <stop stop-color="#F5156C" offset="71%"></stop>
            <stop stop-color="#EB0878" offset="78.2%"></stop>
            <stop stop-color="#E50080" offset="86%"></stop>
        </radialGradient>
        <radialGradient cx="47.7780694%" cy="39.5383085%" fx="47.7780694%" fy="39.5383085%" r="128.95914%" gradientTransform="translate(0.477781,0.395383),scale(0.809278,1.000000),translate(-0.477781,-0.395383)" id="radialGradient-3">
            <stop stop-color="#960E18" offset="30%"></stop>
            <stop stop-color="#B11927" stop-opacity="0.74" offset="35.1%"></stop>
            <stop stop-color="#DB293D" stop-opacity="0.343" offset="43.5%"></stop>
            <stop stop-color="#F5334B" stop-opacity="0.094" offset="49.7%"></stop>
            <stop stop-color="#FF3750" stop-opacity="0" offset="53%"></stop>
        </radialGradient>
        <radialGradient cx="49.9962335%" cy="-29.9984609%" fx="49.9962335%" fy="-29.9984609%" r="314.952919%" gradientTransform="translate(0.499962,-0.299985),scale(1.000000,0.594937),translate(-0.499962,0.299985)" id="radialGradient-4">
            <stop stop-color="#FFF44F" offset="13.2%"></stop>
            <stop stop-color="#FFDC3E" offset="25.2%"></stop>
            <stop stop-color="#FF9D12" offset="50.6%"></stop>
            <stop stop-color="#FF980E" offset="52.6%"></stop>
        </radialGradient>
        <radialGradient cx="19.4553852%" cy="110.086695%" fx="19.4553852%" fy="110.086695%" r="111.743351%" gradientTransform="translate(0.194554,1.100867),scale(1.000000,0.905263),translate(-0.194554,-1.100867)" id="radialGradient-5">
            <stop stop-color="#3A8EE6" offset="35.3%"></stop>
            <stop stop-color="#5C79F0" offset="47.2%"></stop>
            <stop stop-color="#9059FF" offset="66.9%"></stop>
            <stop stop-color="#C139E6" offset="100%"></stop>
        </radialGradient>
        <radialGradient cx="58.2378886%" cy="36.6185781%" fx="58.2378886%" fy="36.6185781%" r="59.2710495%" gradientTransform="translate(0.582379,0.366186),scale(1.000000,0.905263),rotate(-13.692765),translate(-0.582379,-0.366186)" id="radialGradient-6">
            <stop stop-color="#9059FF" stop-opacity="0" offset="20.6%"></stop>
            <stop stop-color="#8C4FF3" stop-opacity="0.064" offset="27.8%"></stop>
            <stop stop-color="#7716A8" stop-opacity="0.45" offset="74.7%"></stop>
            <stop stop-color="#6E008B" stop-opacity="0.6" offset="97.5%"></stop>
        </radialGradient>
        <radialGradient cx="208.116126%" cy="-103.935554%" fx="208.116126%" fy="-103.935554%" r="293.240104%" id="radialGradient-7">
            <stop stop-color="#FFE226" offset="0%"></stop>
            <stop stop-color="#FFDB27" offset="12.1%"></stop>
            <stop stop-color="#FFC82A" offset="29.5%"></stop>
            <stop stop-color="#FFA930" offset="50.2%"></stop>
            <stop stop-color="#FF7E37" offset="73.2%"></stop>
            <stop stop-color="#FF7139" offset="79.2%"></stop>
        </radialGradient>
        <radialGradient cx="79.3046847%" cy="-40.8857905%" fx="79.3046847%" fy="-40.8857905%" r="194.809054%" gradientTransform="translate(0.793047,-0.408858),scale(0.835165,1.000000),translate(-0.793047,0.408858)" id="radialGradient-8">
            <stop stop-color="#FFF44F" offset="11.3%"></stop>
            <stop stop-color="#FF980E" offset="45.6%"></stop>
            <stop stop-color="#FF5634" offset="62.2%"></stop>
            <stop stop-color="#FF3647" offset="71.6%"></stop>
            <stop stop-color="#E31587" offset="90.4%"></stop>
        </radialGradient>
        <radialGradient cx="6.32191597%" cy="-10.3415303%" fx="6.32191597%" fy="-10.3415303%" r="348.927921%" gradientTransform="translate(0.063219,-0.103415),scale(1.000000,0.473282),rotate(83.979198),translate(-0.063219,0.103415)" id="radialGradient-9">
            <stop stop-color="#FFF44F" offset="0%"></stop>
            <stop stop-color="#FFE847" offset="6%"></stop>
            <stop stop-color="#FFC830" offset="16.8%"></stop>
            <stop stop-color="#FF980E" offset="30.4%"></stop>
            <stop stop-color="#FF8B16" offset="35.6%"></stop>
            <stop stop-color="#FF672A" offset="45.5%"></stop>
            <stop stop-color="#FF3647" offset="57%"></stop>
            <stop stop-color="#E31587" offset="73.7%"></stop>
        </radialGradient>
        <radialGradient cx="15.3722552%" cy="-42.6809%" fx="15.3722552%" fy="-42.6809%" r="240.312006%" gradientTransform="translate(0.153723,-0.426809),scale(0.974684,1.000000),translate(-0.153723,0.426809)" id="radialGradient-10">
            <stop stop-color="#FFF44F" offset="13.7%"></stop>
            <stop stop-color="#FF980E" offset="48%"></stop>
            <stop stop-color="#FF5634" offset="59.2%"></stop>
            <stop stop-color="#FF3647" offset="65.5%"></stop>
            <stop stop-color="#E31587" offset="90.4%"></stop>
        </radialGradient>
        <radialGradient cx="155.387313%" cy="-44.5915361%" fx="155.387313%" fy="-44.5915361%" r="310.319983%" gradientTransform="translate(1.553873,-0.445915),scale(0.902778,1.000000),translate(-1.553873,0.445915)" id="radialGradient-11">
            <stop stop-color="#FFF44F" offset="9.4%"></stop>
            <stop stop-color="#FFE141" offset="23.1%"></stop>
            <stop stop-color="#FFAF1E" offset="50.9%"></stop>
            <stop stop-color="#FF980E" offset="62.6%"></stop>
        </radialGradient>
        <linearGradient x1="86.4647554%" y1="15.0770353%" x2="19.9296737%" y2="83.5350391%" id="linearGradient-12">
            <stop stop-color="#FFF44F" stop-opacity="0.8" offset="16.7%"></stop>
            <stop stop-color="#FFF44F" stop-opacity="0.634" offset="26.6%"></stop>
            <stop stop-color="#FFF44F" stop-opacity="0.217" offset="48.9%"></stop>
            <stop stop-color="#FFF44F" stop-opacity="0" offset="60%"></stop>
        </linearGradient>
    </defs>
    <g id="Page-1" stroke="none" stroke-width="1" fill="none" fill-rule="evenodd">
        <g id="icon-firefox" fill-rule="nonzero">
            <path d="M186.977146,67.093508 C182.75728,56.9595476 174.197267,46.0177715 167.494095,42.5589198 C172.275202,51.8003319 175.593042,61.725183 177.32959,71.9804179 L177.347131,72.1429814 C166.366459,44.8198033 147.745424,33.8029979 132.537368,9.81362147 C131.768069,8.60064744 130.998771,7.38517242 130.249519,6.10217102 C129.821017,5.36938464 129.477714,4.70912661 129.179517,4.1013891 C128.54877,2.88229704 128.062689,1.59392039 127.731131,0.262388796 C127.732052,0.135182665 127.637152,0.0275528719 127.510615,0.0122910563 C127.450745,-0.00409701878 127.387558,-0.00409701878 127.327688,0.0122910563 C127.315158,0.0122910563 127.295112,0.0347998529 127.280076,0.0398018077 C127.265041,0.0448037625 127.232465,0.0673125591 127.209912,0.0773164686 L127.2475,0.0122910563 C102.852967,14.2678622 94.5761157,40.658177 93.8143346,53.8583357 C84.0723148,54.5266825 74.7582033,58.1096308 67.0868467,64.1398537 C66.2864822,63.4632302 65.4499697,62.8303889 64.5809881,62.2441129 C62.3680451,54.5134433 62.2737201,46.3317968 64.3078495,38.552354 C55.3492486,42.8838532 47.3889708,49.0240402 40.9306945,56.584401 L40.8855891,56.584401 C37.0365903,51.714998 37.307223,35.6587231 37.5277385,32.3049125 C36.3890706,32.761644 35.3021343,33.3375873 34.2851575,34.0230839 C30.8873258,36.4434303 27.7108618,39.1592559 24.7929651,42.1387556 C21.4679484,45.5033758 18.4310943,49.14 15.7142393,53.0105043 L15.7142393,53.0255102 L15.7142393,53.0080033 C9.47024723,61.8428477 5.04153181,71.8245979 2.68377457,82.3769809 L2.55346992,83.0172311 C2.37054224,83.8700644 1.71150143,88.1417338 1.59873779,89.0695964 C1.59873779,89.1421248 1.58370264,89.2096512 1.57618507,89.2821795 C0.726041873,93.6922605 0.199249921,98.1583442 0,102.644902 L0,103.145097 C0.0441416609,153.459687 38.6515295,195.376216 88.882492,199.645941 C139.113454,203.915667 184.267087,169.118981 192.835843,119.536503 C192.998724,118.286014 193.131535,117.048031 193.276875,115.785037 C195.277221,99.2841666 193.111629,82.5459875 186.977146,67.093508 Z M75.0404419,142.96816 C75.4940023,143.185745 75.9199983,143.420837 76.386088,143.628418 L76.4537462,143.670935 C75.9826448,143.445847 75.5115433,143.211589 75.0404419,142.96816 L75.0404419,142.96816 Z" id="path980" fill="url(#linearGradient-1)"></path>
            <path d="M186.977146,67.4658532 C182.75728,57.3602837 174.197267,46.4491616 167.494095,43 C172.275202,52.2155218 175.593042,62.1125678 177.32959,72.3390721 L177.32959,72.431349 L177.347131,72.5336018 C184.832826,93.853208 183.750042,117.227241 174.325066,137.770889 C163.194042,161.540924 136.25105,185.904525 94.0774498,184.719889 C48.508411,183.435494 8.37708533,149.781852 0.874544655,105.703413 C-0.491148288,98.7527165 0.874544655,95.2287358 1.56114991,89.579892 C0.624528852,93.9677176 0.101874168,98.4330418 0,102.917648 L0,103.416442 C0.0441416609,153.590073 38.6515295,195.38917 88.882492,199.646933 C139.113454,203.904697 184.267087,169.205496 192.835843,119.761926 C192.998724,118.514941 193.131535,117.280425 193.276875,116.02097 C195.277221,99.5663278 193.111629,82.8750417 186.977146,67.4658532 Z" id="path982" fill="url(#radialGradient-2)"></path>
            <path d="M186.977146,67.4658532 C182.75728,57.3602837 174.197267,46.4491616 167.494095,43 C172.275202,52.2155218 175.593042,62.1125678 177.32959,72.3390721 L177.32959,72.431349 L177.347131,72.5336018 C184.832826,93.853208 183.750042,117.227241 174.325066,137.770889 C163.194042,161.540924 136.25105,185.904525 94.0774498,184.719889 C48.508411,183.435494 8.37708533,149.781852 0.874544655,105.703413 C-0.491148288,98.7527165 0.874544655,95.2287358 1.56114991,89.579892 C0.624528852,93.9677176 0.101874168,98.4330418 0,102.917648 L0,103.416442 C0.0441416609,153.590073 38.6515295,195.38917 88.882492,199.646933 C139.113454,203.904697 184.267087,169.205496 192.835843,119.761926 C192.998724,118.514941 193.131535,117.280425 193.276875,116.02097 C195.277221,99.5663278 193.111629,82.8750417 186.977146,67.4658532 Z" id="path984" fill="url(#radialGradient-3)"></path>
            <path d="M139.39053,78.556869 C139.602959,78.7045793 139.800215,78.8522897 140,79 C137.537977,74.6780823 134.473151,70.721114 130.895884,67.2457616 C100.432499,37.0828085 122.91208,1.84512753 126.702932,0.0550784336 L126.740866,0 C102.121819,14.2703214 93.768792,40.6879423 93,53.9017592 C94.1430724,53.8241487 95.2760291,53.7290132 96.4443906,53.7290132 C114.227051,53.7612675 130.623766,63.2404729 139.39053,78.556869 L139.39053,78.556869 Z" id="path986" fill="url(#radialGradient-4)"></path>
            <path d="M97.6419775,85.0205867 C97.4821076,87.447256 88.9740328,95.8172512 85.9989543,95.8172512 C58.4688626,95.8172512 54,112.600036 54,112.600036 C55.2190078,126.732112 64.9910538,138.372069 76.8039387,144.529365 C77.3434995,144.811301 77.8905542,145.065548 78.4376089,145.31476 C79.385171,145.737665 80.332733,146.128684 81.2802951,146.487818 C85.3344162,147.933716 89.5806346,148.759323 93.8775415,148.937142 C142.130766,151.217809 151.478157,90.7877022 116.656501,73.2522476 C124.87119,72.1751127 133.190112,74.2106036 140,78.9639827 C131.340543,63.5636094 115.144526,54.0324311 97.5795283,54 C96.4304636,54 95.3063785,54.0956571 94.1772975,54.1736931 C84.4659588,54.8463997 75.1811807,58.4527203 67.533984,64.5222797 C69.0102823,65.7809256 70.6764262,67.4624765 74.1860695,70.9489256 C80.7557221,77.4712286 97.604508,84.2276398 97.6419775,85.0205867 L97.6419775,85.0205867 Z" id="path988" fill="url(#radialGradient-5)"></path>
            <path d="M97.6419775,85.0205867 C97.4821076,87.447256 88.9740328,95.8172512 85.9989543,95.8172512 C58.4688626,95.8172512 54,112.600036 54,112.600036 C55.2190078,126.732112 64.9910538,138.372069 76.8039387,144.529365 C77.3434995,144.811301 77.8905542,145.065548 78.4376089,145.31476 C79.385171,145.737665 80.332733,146.128684 81.2802951,146.487818 C85.3344162,147.933716 89.5806346,148.759323 93.8775415,148.937142 C142.130766,151.217809 151.478157,90.7877022 116.656501,73.2522476 C124.87119,72.1751127 133.190112,74.2106036 140,78.9639827 C131.340543,63.5636094 115.144526,54.0324311 97.5795283,54 C96.4304636,54 95.3063785,54.0956571 94.1772975,54.1736931 C84.4659588,54.8463997 75.1811807,58.4527203 67.533984,64.5222797 C69.0102823,65.7809256 70.6764262,67.4624765 74.1860695,70.9489256 C80.7557221,77.4712286 97.604508,84.2276398 97.6419775,85.0205867 L97.6419775,85.0205867 Z" id="path990" fill="url(#radialGradient-6)"></path>
            <path d="M62.9656707,60.6547028 C63.7641449,61.1614061 64.4227591,61.6022379 65,62 C62.7543352,54.1687507 62.6586155,45.8806571 64.7228226,38 C55.6317548,42.3878541 47.5537719,48.6079279 41,56.2666526 C41.4806103,56.253985 55.7768595,55.9980999 62.9656707,60.6547028 L62.9656707,60.6547028 Z" id="path992" fill="url(#radialGradient-7)"></path>
            <path d="M0.471488363,104.922019 C7.97196939,149.011503 48.140042,182.673576 93.7422645,183.958293 C135.946576,185.14572 162.909188,160.773521 174.048318,136.99753 C183.480157,116.448735 184.563729,93.0688454 177.072584,71.7438976 L177.072584,71.6515975 C177.072584,71.5792543 177.057538,71.5368461 177.072584,71.5592975 L177.090137,71.7214462 C180.538202,94.1154312 169.08812,115.810929 151.188276,130.481646 L151.133107,130.606376 C116.256246,158.862661 82.87898,147.654443 76.123281,143.079354 C75.6518365,142.854841 75.180392,142.62118 74.7089476,142.378373 C54.3741429,132.70932 45.9734035,114.279248 47.7739202,98.4734898 C37.9123437,98.6182629 28.8898789,92.9726038 24.750879,84.0672 C35.6046998,77.4525007 49.1309666,76.9123474 60.4828597,82.6402913 C71.9927591,87.8381771 85.0901412,88.3503131 96.9746684,84.0672 C96.9370532,83.2814024 80.0227287,76.5834131 73.4275213,70.1224104 C69.9042262,66.6673955 68.2316013,65.0035002 66.7495605,63.7537078 C65.9486131,63.0788108 65.1114915,62.4475843 64.2418771,61.8628043 C63.6651099,61.4711528 63.0156199,61.0470715 62.2357304,60.538174 C55.1465094,55.9531072 41.0483134,56.2050614 40.5818842,56.2175344 L40.5367459,56.2175344 C36.6849443,51.3605567 36.9557741,35.3452527 37.1764502,32 C36.0369531,32.4555661 34.9492253,33.0300398 33.9315079,33.7137872 C30.5312019,36.1279575 27.3524247,38.8368532 24.4324032,41.80875 C21.0930474,45.1553474 18.0413922,48.7743563 15.309451,52.6278113 L15.309451,52.6427788 L15.309451,52.6253167 C9.06091197,61.4376171 4.62897153,71.3938967 2.26949736,81.9193532 C2.22185137,82.1164262 -1.23122866,97.1338919 0.471488363,104.922019 Z" id="path994" fill="url(#radialGradient-8)"></path>
            <path d="M130.547407,67.154707 C134.082418,70.6285516 137.110276,74.5836992 139.541588,78.9033808 C140.073744,79.3058353 140.570923,79.7057902 140.993149,80.0932464 C162.946447,100.340961 151.443888,128.96273 150.586943,131 C168.420405,116.299159 179.818032,94.5591135 176.392748,72.1191466 C165.439834,44.7972307 146.874345,33.7859737 131.711654,9.80867903 C130.94465,8.59631589 130.177646,7.38145302 129.43063,6.09909778 C129.003406,5.36668045 128.661128,4.70675495 128.36382,4.09932351 C127.734954,2.88084542 127.250323,1.59311764 126.919754,0.262256649 C126.920672,0.135114583 126.826056,0.0275389954 126.699896,0.0122848662 C126.640205,-0.00409495539 126.577206,-0.00409495539 126.517514,0.0122848662 C126.505022,0.0122848662 126.485035,0.0347823266 126.470045,0.0397817623 C126.455055,0.0447811979 126.422576,0.0672786584 126.40009,0.0772775297 C122.655013,1.85457691 100.446881,37.0381066 130.547407,67.154707 L130.547407,67.154707 Z" id="path996" fill="url(#radialGradient-9)"></path>
            <path d="M142.564788,80.563866 C142.140591,80.1774306 141.641093,79.7785296 141.106454,79.3771354 C140.908161,79.2300407 140.712377,79.0829459 140.501534,78.9358511 C133.658729,74.2280937 125.299595,72.2121389 117.045198,73.2789358 C152.035173,90.6560623 142.647619,150.496204 94.156132,148.237427 C89.838455,148.061314 85.5717116,147.243632 81.4979939,145.81161 C80.5458516,145.457586 79.5937093,145.070319 78.641567,144.649811 C78.0918679,144.400498 77.5421689,144.151185 77,143.871954 L77.0677711,143.914337 C83.8298223,148.499206 117.228431,159.700846 152.148125,131.44868 L152.203346,131.324023 C153.074331,129.304587 164.630561,100.750752 142.564788,80.563866 L142.564788,80.563866 Z" id="path998" fill="url(#radialGradient-10)"></path>
            <path d="M53.3240165,112.037022 C53.3240165,112.037022 57.7963612,95.2352269 85.3479046,95.2352269 C88.3253012,95.2352269 96.8475053,86.8557503 97,84.4263322 C85.1522977,88.7533095 72.0954985,88.2359287 60.6212632,82.9848102 C49.3045446,77.1982052 35.8201896,77.7438903 25,84.4263322 C29.126175,93.4229382 38.1206831,99.1264157 47.9517031,98.9801598 C46.1567654,114.950308 54.5314746,133.569127 74.8032707,143.334682 C75.255755,143.553935 75.6807403,143.790828 76.1457241,144 C64.3136349,137.83825 54.5439742,126.185107 53.3240165,112.037022 L53.3240165,112.037022 Z" id="path1000" fill="url(#radialGradient-11)"></path>
            <path d="M186.977146,67.093508 C182.75728,56.9595476 174.197267,46.0177715 167.494095,42.5589198 C172.275202,51.8003319 175.593042,61.725183 177.32959,71.9804179 L177.347131,72.1429814 C166.366459,44.8198033 147.745424,33.8029979 132.537368,9.81362147 C131.768069,8.60064744 130.998771,7.38517242 130.249519,6.10217102 C129.821017,5.36938464 129.477714,4.70912661 129.179517,4.1013891 C128.54877,2.88229704 128.062689,1.59392039 127.731131,0.262388796 C127.732052,0.135182665 127.637152,0.0275528719 127.510615,0.0122910563 C127.450745,-0.00409701878 127.387558,-0.00409701878 127.327688,0.0122910563 C127.315158,0.0122910563 127.295112,0.0347998529 127.280076,0.0398018077 C127.265041,0.0448037625 127.232465,0.0673125591 127.209912,0.0773164686 L127.2475,0.0122910563 C102.852967,14.2678622 94.5761157,40.658177 93.8143346,53.8583357 C94.9469827,53.7808054 96.0696074,53.6857682 97.2273141,53.6857682 C114.847805,53.7179891 131.09499,63.1873965 139.781805,78.4879611 C132.950403,73.7653883 124.605199,71.7430893 116.364556,72.8132434 C151.296225,90.2450558 141.924314,150.273515 93.5136316,148.00763 C89.2031494,147.830963 84.9435159,147.010707 80.8765866,145.574179 C79.9260309,145.21904 78.9754752,144.830555 78.0249195,144.408723 C77.4761365,144.158626 76.9273535,143.908528 76.386088,143.628418 L76.4537462,143.670935 C75.9826448,143.445847 75.5115433,143.211589 75.0404419,142.96816 C75.4940023,143.185745 75.9199983,143.420837 76.386088,143.628418 C64.5258592,137.511028 54.7329638,125.946508 53.5101048,111.906021 C53.5101048,111.906021 57.9930858,95.2320047 85.6101535,95.2320047 C88.5946312,95.2320047 97.1371032,86.9162549 97.2899605,84.5053127 C97.2523726,83.7175048 80.3503563,77.0023805 73.7599482,70.524849 C70.2392168,67.0609953 68.5678091,65.3928434 67.0868467,64.1398537 C66.2864822,63.4632302 65.4499697,62.8303889 64.5809881,62.2441129 C62.3680451,54.5134433 62.2737201,46.3317968 64.3078495,38.552354 C55.3492486,42.8838532 47.3889708,49.0240402 40.9306945,56.584401 L40.8855891,56.584401 C37.0365903,51.714998 37.307223,35.6587231 37.5277385,32.3049125 C36.3890706,32.761644 35.3021343,33.3375873 34.2851575,34.0230839 C30.8873258,36.4434303 27.7108618,39.1592559 24.7929651,42.1387556 C21.4679484,45.5033758 18.4310943,49.14 15.7142393,53.0105043 L15.7142393,53.0255102 L15.7142393,53.0080033 C9.47024723,61.8428477 5.04153181,71.8245979 2.68377457,82.3769809 L2.55346992,83.0172311 C2.37054224,83.8700644 1.55112648,88.2017573 1.43335112,89.1321209 C1.43335112,89.2021482 1.43335112,89.0595925 1.43335112,89.1321209 C0.683874924,93.6035338 0.205222649,98.1159825 0,102.644902 L0,103.145097 C0.0441416609,153.459687 38.6515295,195.376216 88.882492,199.645941 C139.113454,203.915667 184.267087,169.118981 192.835843,119.536503 C192.998724,118.286014 193.131535,117.048031 193.276875,115.785037 C195.277221,99.2841666 193.111629,82.5459875 186.977146,67.093508 Z" id="path1002" fill="url(#linearGradient-12)"></path>
        </g>
    </g>
</svg>