<svg width="512" height="512" viewBox="0 0 512 512" fill="none" xmlns="http://www.w3.org/2000/svg">
<path d="M0 256V512H512V0H0V256Z" fill="#007ACC"/>
<path d="M113.222 257.7L113.06 278.666H179.7V468.026H226.84V278.666H293.48V258.106C293.48 246.726 293.236 237.218 292.912 236.974C292.668 236.65 252.114 236.486 202.946 236.568L113.468 236.812L113.224 257.698L113.222 257.7Z" fill="white"/>
<path d="M413.134 236.216C426.136 239.468 436.052 245.236 445.154 254.664C449.868 259.704 456.856 268.888 457.426 271.082C457.586 271.732 435.32 286.686 421.83 295.056C421.342 295.382 419.39 293.268 417.196 290.016C410.614 280.428 403.706 276.282 393.14 275.552C377.62 274.494 367.622 282.622 367.704 296.192C367.704 300.176 368.272 302.532 369.898 305.784C373.312 312.854 379.65 317.08 399.562 325.694C436.214 341.462 451.898 351.864 461.652 366.654C472.542 383.154 474.98 409.484 467.584 429.07C459.458 450.362 439.304 464.83 410.938 469.624C402.162 471.168 381.358 470.924 371.93 469.218C351.37 465.56 331.864 455.402 319.836 442.074C315.122 436.872 305.938 423.3 306.508 422.324C306.752 422 308.864 420.7 311.22 419.318C313.496 418.018 322.112 413.058 330.238 408.346L344.948 399.812L348.036 404.364C352.344 410.946 361.77 419.968 367.46 422.974C383.794 431.59 406.226 430.37 417.278 420.454C421.992 416.148 423.942 411.678 423.942 405.094C423.942 399.162 423.21 396.562 420.122 392.094C416.142 386.404 408.014 381.608 384.932 371.614C358.52 360.234 347.142 353.164 336.74 341.948C330.726 335.448 325.036 325.044 322.68 316.348C320.73 309.116 320.24 290.992 321.786 283.678C327.232 258.158 346.492 240.362 374.286 235.078C383.306 233.372 404.274 234.022 413.134 236.218V236.216Z" fill="white"/>
</svg>
