<svg width="512" height="512" viewBox="0 0 512 512" fill="none" xmlns="http://www.w3.org/2000/svg">
<g clip-path="url(#clip0)">
<path d="M437.483 72.0829C391.059 5.70461 299.371 -13.9691 233.079 28.2241L116.651 102.357C100.923 112.242 87.4325 125.297 77.0419 140.686C66.6512 156.076 59.5891 173.462 56.3069 191.734C50.7527 222.512 55.634 254.261 70.1779 281.955C60.2119 297.057 53.4146 314.022 50.1969 331.823C46.8804 350.463 47.3229 369.576 51.4985 388.043C55.6741 406.509 63.4987 423.957 74.5134 439.362C120.946 505.747 212.634 525.412 278.917 483.219L395.345 409.089C411.075 399.205 424.566 386.151 434.957 370.761C445.348 355.37 452.409 337.983 455.69 319.711C461.243 288.934 456.365 257.186 441.828 229.489C451.791 214.386 458.585 197.422 461.8 179.622C465.119 160.982 464.677 141.869 460.502 123.402C456.327 104.935 448.501 87.4875 437.485 72.0829" fill="#FF3E00"/>
<path d="M221.695 445.677C184.154 455.429 144.512 440.748 122.402 408.911C115.775 399.644 111.067 389.148 108.555 378.039C106.043 366.93 105.777 355.432 107.772 344.219C108.448 340.538 109.378 336.907 110.556 333.354L112.75 326.674L118.715 331.052C132.495 341.167 147.903 348.857 164.274 353.791L168.601 355.102L168.203 359.419C167.674 365.558 169.337 371.687 172.899 376.718C176.147 381.4 180.756 384.973 186.102 386.956C191.448 388.938 197.275 389.233 202.794 387.802C205.326 387.126 207.739 386.067 209.949 384.661L326.413 310.518C329.263 308.725 331.708 306.359 333.592 303.571C335.476 300.782 336.757 297.632 337.356 294.321C337.953 290.942 337.871 287.477 337.114 284.129C336.357 280.782 334.941 277.618 332.947 274.823C329.697 270.14 325.087 266.565 319.739 264.582C314.391 262.599 308.562 262.302 303.041 263.732C300.513 264.408 298.104 265.466 295.897 266.87L251.453 295.172C244.146 299.814 236.171 303.313 227.805 305.547C190.266 315.299 150.622 300.618 128.516 268.779C121.888 259.513 117.18 249.017 114.667 237.909C112.155 226.8 111.888 215.302 113.884 204.089C115.858 193.099 120.106 182.641 126.357 173.384C132.608 164.128 140.724 156.277 150.186 150.333L266.641 76.1818C273.952 71.5327 281.932 68.03 290.305 65.7955C327.844 56.0438 367.488 70.724 389.595 102.562C396.222 111.828 400.93 122.324 403.443 133.433C405.955 144.542 406.222 156.04 404.226 167.253C403.547 170.934 402.617 174.563 401.442 178.117L399.249 184.799L393.285 180.427C379.506 170.307 364.098 162.613 347.725 157.679L343.396 156.365L343.796 152.05C344.32 145.911 342.657 139.785 339.099 134.752C335.851 130.069 331.242 126.495 325.896 124.513C320.549 122.531 314.722 122.236 309.203 123.667C306.672 124.343 304.259 125.403 302.049 126.808L185.586 200.955C182.736 202.746 180.291 205.111 178.408 207.899C176.525 210.687 175.245 213.837 174.649 217.148C174.048 220.527 174.128 223.992 174.884 227.341C175.64 230.689 177.057 233.853 179.051 236.648C182.302 241.331 186.912 244.905 192.26 246.889C197.608 248.872 203.436 249.169 208.958 247.739C211.488 247.061 213.901 246.002 216.111 244.597L260.547 216.307C267.852 211.658 275.827 208.156 284.194 205.922C321.733 196.172 361.376 210.852 383.485 242.692C390.112 251.958 394.819 262.453 397.332 273.561C399.844 284.67 400.11 296.167 398.114 307.38C396.139 318.371 391.891 328.83 385.64 338.088C379.389 347.346 371.273 355.199 361.812 361.146L245.358 435.291C238.047 439.94 230.066 443.442 221.693 445.677" fill="white"/>
</g>
<defs>
<clipPath id="clip0">
<rect width="416" height="500" fill="white" transform="translate(48 6)"/>
</clipPath>
</defs>
</svg>
