<svg xmlns="http://www.w3.org/2000/svg" viewBox="0 0 200 200">
    <g fill-rule="nonzero" fill="none">
        <circle cx="100" cy="100" r="100" fill="#F0F0F0"/>
        <path d="M100 100.5c0-12.979 10.521-23.5 23.5-23.5S147 87.521 147 100.5 136.479 124 123.5 124 100 113.479 100 100.5z" fill="#1ABCFE"/>
        <path d="M54 146.5c0-12.979 10.521-23.5 23.5-23.5H101v23.5c0 12.979-10.521 23.5-23.5 23.5S54 159.479 54 146.5z" fill="#0ACF83"/>
        <path d="M100 30v47h23.5c12.979 0 23.5-10.521 23.5-23.5S136.479 30 123.5 30H100z" fill="#FF7262"/>
        <path d="M54 53.5C54 66.479 64.521 77 77.5 77H101V30H77.5C64.521 30 54 40.521 54 53.5z" fill="#F24E1E"/>
        <path d="M54 100.5c0 12.979 10.521 23.5 23.5 23.5H101V77H77.5C64.521 77 54 87.521 54 100.5z" fill="#A259FF"/>
    </g>
</svg>