<svg width="512" height="512" viewBox="0 0 512 512" fill="none" xmlns="http://www.w3.org/2000/svg">
<g clip-path="url(#clip0)">
<path d="M511.816 242.184C511.644 235.616 511.296 228.876 510.952 222.308C510.606 215.568 510.432 208.828 509.742 202.088C508.532 192.924 507.322 183.592 505.248 174.604C503.692 167.172 501.1 160.086 498.508 153C495.224 144.702 491.94 136.234 487.792 128.284C481.05 115.494 472.236 104.086 464.112 92.1602C458.752 84.5542 451.842 78.3322 446.656 70.5562C443.716 66.0622 439.396 62.2582 435.076 58.8022C428.162 53.2722 420.902 48.2582 413.644 43.4222C408.112 39.6162 402.582 35.9882 396.704 32.7042C392.038 30.1102 387.024 28.0362 382.184 25.7902C376.656 23.1962 371.298 20.0862 365.076 18.8762C363.52 18.5302 362.136 18.0122 360.582 17.4962C356.606 16.1102 352.802 14.5562 348.828 13.3462C342.78 11.4462 336.904 9.19619 330.68 7.64219C324.632 6.08619 318.41 5.04819 312.188 4.18419C305.274 3.14819 298.188 2.80419 291.274 2.11019C286.78 1.59219 282.286 1.07419 277.964 0.900188C271.398 0.556188 264.656 0.556188 258.088 0.382188C254.804 0.210188 251.348 -0.135812 248.064 0.0361878C243.052 0.210188 238.04 0.728188 233.024 1.42019C228.188 1.94019 223.348 2.80219 218.68 3.49419C212.978 4.18419 207.274 4.53019 201.57 5.22219C196.21 5.91419 190.682 6.95019 185.324 7.81419C183.422 8.16019 181.52 8.85419 179.62 9.19619C175.472 10.0622 171.15 10.4082 167 11.7902C159.57 14.0362 152.138 16.6302 144.878 19.3942C138.138 22.1602 131.57 25.0982 125.176 28.5562C118.608 32.1842 112.386 36.5062 106.162 40.6562C100.286 44.6282 94.4098 48.7782 88.7058 53.2722C83.1758 57.5922 77.9898 62.4322 72.9778 67.2722C70.2118 70.0362 67.9658 73.3202 65.3718 76.4322C61.0518 81.4442 56.7298 86.2842 52.5818 91.4682C49.1258 95.7902 46.0118 100.284 42.7318 104.778C36.8518 112.728 31.8418 121.198 27.1758 129.666C25.2738 133.122 23.5458 136.58 21.8158 140.036C19.2238 145.222 16.4598 150.236 14.0398 155.592C12.3118 159.222 10.9278 163.196 9.89182 167.172C7.44882 175.676 5.08671 184.203 2.80582 192.752C0.73182 200.356 0.211821 208.31 0.0398205 216.086C-0.134179 222.998 0.557821 229.74 1.24982 236.654C1.42182 238.382 0.38582 240.456 2.45982 241.838C2.63182 241.838 2.45982 242.53 2.28582 242.702C1.76582 243.742 2.28582 244.776 3.32382 245.122C3.32382 245.122 3.49582 245.296 3.49582 245.468H2.63182C2.11182 247.024 3.84182 248.234 3.14982 249.962C2.97782 250.308 3.66982 250.998 4.01382 251.518C4.01382 252.038 3.84182 252.728 4.01382 253.246C4.18782 254.802 4.87982 256.356 4.87982 258.086C4.87982 259.296 5.91582 260.678 6.25982 261.888C6.43382 262.408 6.25982 263.27 5.91582 263.616C4.87982 264.826 5.05182 265.864 6.60782 266.556C6.95382 266.728 7.47182 267.418 7.47182 267.764C7.47182 268.804 7.12582 269.838 6.95182 270.876C7.29782 271.222 7.47182 271.566 7.29782 271.912C7.29782 272.432 6.77782 272.952 6.95382 273.296C8.33382 276.06 8.85382 279.172 9.02782 282.282C9.02782 282.974 9.37382 283.666 9.71782 284.53C9.89182 284.53 10.4098 284.53 10.7558 284.702L9.71582 287.814C10.5818 287.294 11.2738 287.122 12.1358 286.776C12.6558 289.024 13.1758 291.098 13.8658 292.998C14.0398 293.344 14.3858 293.69 14.9038 294.038C14.7298 294.382 14.7298 295.072 14.3838 295.246C15.0758 298.356 15.4218 301.296 16.6318 304.234C16.8058 304.234 16.9778 304.06 17.1498 304.06C16.6298 300.95 16.2858 297.666 15.7678 294.554V293.518C15.7678 293.518 16.1138 293.344 16.2858 293.344C16.4598 294.036 16.8058 294.9 16.8058 295.418C18.1858 295.418 20.2618 296.282 21.6438 296.282C21.8178 295.764 21.9898 295.072 22.1638 294.728C21.1238 293.69 20.2618 292.134 19.2238 291.098C19.5698 292.48 19.2238 292.998 19.2238 293.518C18.5338 293.172 17.6698 292.826 16.8038 292.48C17.4958 291.616 18.1878 290.752 19.2238 289.714C19.2238 288.16 18.3598 286.776 15.9398 286.95C16.9778 286.604 18.0158 286.086 19.2238 285.74C19.3978 286.26 19.5698 286.776 19.7438 287.122C21.1238 284.702 19.0518 282.802 19.0518 280.382C19.2238 277.444 17.4958 274.506 16.9778 271.394C16.1138 266.554 16.2858 259.296 15.7678 254.456C15.7678 254.11 15.2478 253.764 14.9038 253.418C14.7298 253.592 13.8638 255.838 13.6938 256.012C14.2118 260.16 14.7298 264.308 15.0738 268.456C14.9038 268.456 14.7298 268.456 14.7298 268.628C14.0398 264.998 13.3478 261.196 12.4838 257.048C12.3118 258.258 12.1378 258.776 12.1378 259.468C11.6178 259.296 11.4478 259.122 10.5818 258.776C11.2738 260.332 11.9658 261.37 12.4818 262.58C11.2738 262.06 9.89182 262.234 9.89182 262.234V267.074C8.16382 265.344 7.64382 263.962 6.77982 262.754C6.43382 261.37 6.25982 259.986 5.91582 258.604L6.43382 258.43C6.26182 257.74 5.91382 257.22 5.91382 256.702C5.72048 255.322 5.54846 253.939 5.39782 252.554C5.56982 252.382 6.26182 252.208 6.60782 251.864L5.22382 249.79C6.60782 249.962 7.47182 250.134 8.33582 250.134C8.33582 249.79 8.50782 249.616 8.33582 249.444C6.60782 247.888 7.81582 246.504 8.50782 245.124C8.85382 244.43 10.0638 244.258 10.4078 243.566C11.7918 240.974 14.0398 238.9 14.0398 235.616C14.0398 234.06 14.5578 232.332 14.7298 230.776C15.0758 227.838 15.4218 224.9 15.5958 221.962C15.9398 218.162 15.5958 214.356 16.4598 210.728C17.8398 204.678 19.5698 198.628 21.4718 192.58C22.8518 188.26 24.4098 184.11 26.1378 179.79C28.7318 173.05 31.1498 166.31 34.4338 159.912C39.1018 150.58 44.4598 141.592 49.6438 132.432C52.9278 126.728 56.3838 121.372 60.0138 115.838C63.4718 110.48 66.9278 104.95 70.9038 99.9382C76.4338 92.8522 82.4838 86.2842 89.2238 80.4062C96.1378 74.1862 102.704 67.7902 110.138 62.0862C119.818 54.6542 130.014 48.0862 140.904 42.3822C149.718 37.7162 158.878 34.0862 168.04 30.6282C173.916 28.3822 180.31 27.3482 186.36 25.4442C193.274 23.1962 200.188 22.1602 207.446 21.9862C212.114 21.8142 216.606 21.2962 221.274 20.7782C225.422 20.4322 229.57 20.0862 234.064 19.5682C233.727 19.9966 233.438 20.4599 233.2 20.9502C231.298 23.7162 229.224 26.4802 227.324 29.2462C225.768 31.4942 224.04 33.9122 222.484 36.1602C219.718 39.7902 216.78 43.4202 214.188 47.2222C210.212 52.9262 206.582 58.8022 202.434 64.5062C198.286 70.0362 193.792 75.2222 189.472 80.5802C183.768 88.0122 178.41 95.6162 172.706 103.048C167.52 110.136 161.99 116.876 156.978 123.962C152.484 130.184 148.508 136.752 144.188 143.148C137.792 152.654 131.398 161.988 125.002 171.492C119.99 178.735 114.92 185.937 109.792 193.098C109.446 193.618 108.928 193.79 108.41 194.134C108.064 194.48 107.37 194.826 107.37 195.174C107.028 196.382 107.028 197.594 106.508 198.628C105.126 201.222 103.744 203.814 102.188 206.234C101.324 207.616 100.114 208.826 99.0758 210.208C98.7298 210.036 98.5558 209.864 98.2118 209.864C98.9038 208.134 101.842 207.098 100.46 204.506C99.5958 205.888 98.7298 207.098 97.8658 208.48L95.7918 212.628C96.4838 213.148 97.6918 213.492 96.4838 214.53C95.9638 215.394 95.4438 216.43 94.9278 217.296C95.1018 217.296 95.1018 217.468 95.2738 217.468C95.7918 216.776 96.3118 216.258 96.8298 215.568C97.0018 215.568 97.1758 215.74 97.3478 215.74C96.8278 217.468 95.7918 219.024 94.9278 220.58C94.2358 221.962 92.5078 223 91.2978 224.036C91.4718 224.208 92.6818 224.728 92.8538 224.9C93.3718 224.208 93.5458 224.554 94.0638 223.864C94.4098 224.384 94.9278 223.518 95.1018 224.036C95.6198 223.344 96.1378 222.826 96.3118 222.308C97.0018 220.58 98.0398 219.196 99.7678 218.508C100.46 218.16 100.978 217.64 101.496 217.122C106.682 211.764 112.04 206.582 116.706 200.876C123.966 192.06 130.534 182.9 137.446 173.912C140.386 170.112 143.842 166.308 146.952 162.678C147.298 162.852 147.644 162.852 147.818 163.024C147.472 166.654 147.126 170.456 146.952 174.086C146.432 180.48 146.088 186.876 145.57 193.446C145.398 196.036 145.57 198.628 145.398 201.222C145.398 201.912 144.878 202.43 144.878 203.122C144.878 204.85 145.398 206.752 145.398 208.482C144.878 214.876 144.188 221.098 143.668 227.492C143.496 228.876 144.188 230.258 144.534 231.468C144.36 231.296 144.188 231.122 143.668 230.776C143.668 240.802 145.568 250.656 144.014 260.506C144.706 260.332 145.052 260.16 145.052 259.814C145.224 258.604 145.57 257.394 145.57 256.184C145.744 255.148 145.57 254.11 145.57 252.9V251.172C145.744 248.06 146.434 244.776 146.088 241.666C145.744 238.208 145.744 234.926 146.434 231.64C146.78 230.26 146.262 228.53 147.126 226.802V229.394C146.952 239.246 147.298 249.098 145.916 258.95C145.744 259.814 146.434 261.37 144.534 261.196C144.36 261.196 144.188 262.06 143.842 262.58C142.978 264.308 144.878 266.554 143.15 268.282C142.804 268.628 143.496 270.184 143.668 271.222C143.668 271.566 143.842 271.912 143.668 272.086C142.978 273.296 142.978 273.296 144.014 273.468C144.188 277.27 144.534 280.728 144.706 284.356H145.224C147.472 277.788 146.088 271.048 147.298 264.308C147.472 267.072 147.644 269.838 147.472 272.776C147.472 277.27 147.298 281.592 147.126 286.086C147.126 286.95 146.952 287.814 146.78 288.678C146.26 291.098 146.088 293.518 145.224 295.764C144.534 297.492 144.878 300.086 144.878 302.16V308.726C144.878 308.9 145.398 309.418 145.398 310.11C145.57 311.666 144.706 313.222 145.224 314.95C145.398 315.296 145.052 315.814 144.878 316.16C144.706 316.68 144.534 317.196 144.706 317.714L145.224 320.308C145.224 320.48 145.398 320.654 145.57 320.998C145.744 320.308 145.744 319.788 145.744 319.618C148.682 319.962 147.124 322.554 148.508 323.938C147.818 324.282 147.298 324.458 147.298 324.628C147.472 325.32 147.818 325.838 147.818 326.53C147.818 328.084 147.644 329.47 147.472 331.024C147.472 334.998 147.298 338.974 147.298 342.776C147.298 343.296 147.472 343.816 147.472 344.332C147.472 344.678 147.298 345.024 147.298 345.542V349.172H147.99C147.644 349.692 147.298 350.208 146.78 350.726C146.608 350.726 146.088 350.726 146.088 350.554V328.776H143.496C143.15 339.146 144.014 348.48 142.114 358.158C140.04 358.332 139.348 358.678 137.102 358.678C131.742 358.678 126.386 358.678 121.028 358.85C114.632 358.85 108.408 359.024 102.014 359.024C98.9038 359.024 95.6198 359.368 92.5078 359.368C88.3598 359.368 84.0398 358.85 79.8918 358.85C73.4958 358.85 67.2718 359.37 60.8798 359.542C56.2118 359.714 51.5458 359.714 46.8798 359.888C43.7678 360.06 40.6558 360.234 37.5458 360.578C36.1638 360.752 34.9538 361.27 33.2238 361.788C32.7038 361.788 31.4958 361.616 30.4598 361.788C28.7318 362.134 27.1758 363.172 25.4478 363.516C22.8538 364.036 22.1638 364.726 22.5078 367.32V369.048C22.1482 368.703 21.7406 368.412 21.2978 368.184C21.1258 368.184 20.9538 368.356 20.9538 368.356C21.1258 368.876 21.4718 369.22 21.6438 369.74C22.3358 369.394 23.1998 368.53 23.8918 368.53H26.3118C25.9658 368.53 25.7918 369.566 25.2718 370.43C26.3148 370.04 27.3529 369.637 28.3858 369.22C28.5578 369.74 28.5578 370.43 28.5578 370.604C30.9778 370.43 33.2238 369.74 35.2978 370.258C42.0378 371.986 48.9538 372.678 55.8658 373.368C60.3598 373.714 64.6818 373.888 69.1758 374.06C75.5698 374.406 81.9658 374.752 88.3598 374.752C93.7178 374.752 98.9038 374.234 104.26 374.234C111.694 374.234 119.126 374.578 126.558 374.754C128.114 374.754 129.842 374.578 131.57 374.578H144.188C155.422 374.234 166.656 374.06 177.892 373.714C184.286 373.542 190.852 373.196 197.25 373.024L216.95 372.504C224.558 372.332 232.162 372.332 239.594 372.158C245.298 372.158 250.83 371.986 256.532 371.814C262.928 371.64 269.496 371.122 275.89 370.776C279.348 370.604 282.804 370.258 286.262 369.912C290.41 369.566 294.73 369.048 298.878 368.874C305.098 368.53 311.496 368.356 317.718 368.01C325.496 367.492 333.274 366.8 341.224 366.63C348.484 366.282 355.916 366.456 363.174 366.282C369.57 366.11 375.964 365.764 382.532 365.592L393.422 365.072C393.422 365.072 400.68 364.9 404.31 364.554C410.53 364.208 416.754 363.516 422.976 363.344C426.952 363.172 430.928 363.344 434.902 363.172C441.298 362.998 447.866 362.652 454.26 362.652C456.68 362.652 459.274 362.998 462.384 363.172C461.002 364.382 460.138 365.072 459.1 365.936C459.792 366.11 460.48 366.456 461.174 366.8C461.174 366.974 461.002 367.146 461.002 367.492C460.138 367.492 459.274 367.666 458.408 367.666C458.064 368.53 457.718 368.874 457.372 370.606H460.482C459.274 370.606 458.236 372.158 457.026 373.196C457.2 373.368 457.372 373.368 457.544 373.542C455.644 372.85 454.434 373.196 453.742 375.098C454.26 375.27 454.606 375.27 455.122 375.27C454.952 375.79 454.78 376.31 454.606 376.998C454.434 377.344 454.26 377.69 454.26 378.208L453.74 377.69C453.74 377.344 453.74 376.998 453.57 376.652C452.53 377.692 450.976 378.382 451.84 380.628C451.15 380.974 450.286 381.32 449.42 381.838C449.594 382.184 449.94 382.53 450.112 383.048C448.558 383.22 447.002 383.568 447.348 385.468C448.038 385.64 448.728 385.988 449.248 386.158C448.384 386.504 447.52 387.022 446.656 387.368C446.482 387.714 446.31 388.578 445.964 388.752C443.544 389.272 444.928 390.134 445.618 390.998C445.098 391.344 444.582 391.69 444.064 391.862C444.582 392.036 444.928 392.208 445.274 392.554C444.754 392.9 444.408 393.074 444.064 393.246C444.408 393.418 444.928 393.766 445.1 393.766C444.408 394.282 443.544 394.974 442.508 395.838C442.508 396.184 442.508 396.358 442.68 396.702C441.99 397.394 441.298 398.084 440.606 399.122C439.916 400.158 439.57 401.542 438.706 402.578C435.076 406.554 432.482 411.22 427.816 414.332C426.088 415.542 424.532 417.096 422.976 418.652C419.866 421.592 417.1 424.874 413.816 427.64C409.496 431.27 405.002 434.554 400.334 437.84C394.632 441.812 388.928 445.788 383.224 449.59C380.112 451.664 376.656 453.22 373.372 455.122C370.088 457.022 366.978 458.752 363.692 460.652C361.618 462.036 359.718 463.936 357.47 464.974C351.766 467.394 345.718 469.468 339.842 471.714C339.322 471.886 338.978 472.06 338.458 472.234C334.138 474.134 329.99 476.208 325.668 477.764C321.692 479.146 317.546 480.184 313.396 481.048C312.014 481.394 310.456 481.048 308.904 481.22C305.964 481.74 303.024 482.43 300.088 482.776C292.484 483.816 284.878 484.504 277.274 485.542C272.78 486.062 268.458 486.924 263.964 487.442C260.854 487.616 257.57 487.27 254.458 487.27C252.212 487.27 249.792 487.79 247.544 487.442C243.916 486.924 240.284 486.062 236.656 485.368C235.792 485.196 234.582 484.85 233.89 485.196C232.508 485.886 231.298 484.85 229.916 485.196C229.052 485.368 228.188 484.678 227.322 484.678C226.632 484.504 225.768 484.85 224.902 484.678C223.002 484.158 221.274 483.468 219.2 483.64C217.126 483.814 215.052 482.776 212.804 482.26C209.694 481.566 206.756 480.874 203.644 480.184C202.434 479.838 201.398 479.32 200.188 478.628C199.842 478.8 199.322 479.148 198.632 479.148C195.692 478.628 192.756 478.456 189.99 477.418C187.57 476.554 185.324 475.344 182.73 475.69C182.04 475.862 181.52 475.516 180.83 475.516C180.31 474.826 179.79 473.442 179.274 473.442C175.814 473.616 173.742 470.678 170.804 469.814C169.248 469.294 168.04 467.566 166.484 467.048C162.682 465.492 159.57 462.208 155.25 461.69C153.866 461.516 152.484 460.826 150.928 460.306C151.446 460.998 151.792 461.516 152.308 462.036L151.964 462.38C147.298 459.616 142.632 456.85 137.964 454.26C137.274 454.084 136.756 453.394 136.236 453.048L131.57 449.936C131.05 449.59 130.014 449.072 130.014 449.244C128.978 450.456 127.94 449.418 127.25 449.072C122.582 445.788 117.224 443.714 112.73 440.084C110.83 438.53 108.582 437.492 107.2 435.59C104.78 432.652 101.84 430.578 98.5578 428.85C95.9658 427.47 93.5458 425.912 91.1258 424.356C89.9158 423.492 88.7058 422.456 88.7058 420.556C88.7058 419.344 88.1858 418.136 86.6318 418.826C85.9398 417.788 85.2498 416.578 84.3858 416.232C82.3118 415.368 80.9258 413.814 79.3718 412.432C77.8178 411.048 76.6078 409.146 74.7058 408.456C71.2498 407.072 69.1758 404.136 67.1018 401.716C62.2618 396.01 57.9398 389.788 53.4458 383.738C53.1018 383.22 52.4098 382.874 51.8918 382.358L51.7178 382.53C52.5818 384.258 53.4458 385.814 54.3118 387.542C54.1378 387.714 53.7918 387.888 53.6198 388.062C52.5798 386.85 51.3718 385.642 50.3358 384.43C50.1618 384.604 49.9898 384.776 49.8158 384.776L62.2618 404.48C63.2978 406.036 64.1618 407.59 65.1998 409.146C65.0035 409.361 64.7688 409.537 64.5078 409.666C62.6078 409.32 60.8798 407.936 60.0138 406.38C58.4598 403.616 56.7298 401.888 53.2738 402.232C52.9278 401.022 52.5818 399.64 52.4098 398.432C51.7178 398.432 51.1998 398.432 49.9898 398.258C52.4098 402.06 54.4838 405.344 56.7298 409.146C55.8658 408.628 55.3478 408.282 55.0018 408.11C58.1138 411.394 60.3598 415.542 64.3358 417.616C65.1998 421.59 69.6938 423.492 70.7298 427.296C69.8658 427.122 69.1758 426.948 68.3098 426.776C66.9278 425.048 65.3698 423.32 63.8178 421.418C64.1618 422.628 64.6818 423.664 65.3718 424.53C67.4458 427.122 69.3478 429.714 71.7678 431.962C72.6318 432.826 73.8418 433.172 73.8418 434.726C74.1878 434.38 74.5338 434.208 75.2218 433.862C74.8778 434.554 74.7058 434.902 74.5338 435.418C75.2238 435.418 75.7438 435.59 76.2618 435.59C76.6078 436.63 76.0878 438.184 78.1618 437.838C78.3358 437.838 78.5078 438.01 78.6818 438.184C79.5458 440.43 80.9278 440.43 82.8298 439.566C83.1758 439.394 84.0398 439.566 84.2098 439.912C85.0758 441.812 86.2858 441.986 87.8418 440.604C87.8418 441.468 88.0138 442.332 88.0138 443.024H88.7058C88.7058 442.678 88.5338 442.158 88.5338 441.294C89.3978 441.986 89.9138 442.334 90.2618 442.678C91.9898 445.098 93.5458 447.344 95.9658 449.244C99.2498 452.01 102.186 454.948 105.298 457.544C111.348 462.554 118.088 466.704 124.83 470.504C133.126 475.17 141.076 480.184 149.546 484.676C159.742 490.036 170.632 493.664 181.866 496.258C186.014 497.122 189.99 497.986 194.138 499.022C197.768 500.062 201.398 501.616 205.026 502.482C210.558 503.69 216.262 504.726 221.792 505.764C223.002 505.936 224.212 506.11 225.592 506.284V506.628C227.15 506.628 229.052 505.936 229.398 506.454C230.262 507.838 230.952 507.146 231.99 506.974C233.2 506.628 234.582 506.628 235.964 506.628C240.804 506.8 245.47 507.838 250.31 507.492C251.348 507.492 252.904 506.628 253.768 508.356C254.114 508.182 254.286 508.01 254.632 507.838C255.322 507.664 256.188 507.664 256.878 507.492V507.838C256.532 508.01 256.188 508.01 255.496 508.184C256.36 508.356 256.876 508.528 257.396 508.704C257.052 509.048 256.876 509.048 256.532 509.22C256.188 509.392 255.668 509.566 254.978 510.084C261.198 511.294 267.076 511.468 272.262 510.084V509.048H272.952C272.952 509.392 273.126 509.738 273.298 510.084C281.248 510.776 289.026 509.738 296.458 507.146C297.15 508.01 297.668 509.22 298.706 507.492C299.052 506.974 299.916 506.8 300.606 506.628C302.162 506.282 304.064 505.59 305.446 506.11C307.002 506.63 307.52 505.244 308.73 505.244C310.7 505.251 312.667 505.078 314.606 504.726C315.644 504.554 316.68 504.034 317.89 503.69C317.89 503.516 317.89 503.344 317.718 503.17C316.508 502.998 315.126 502.826 314.088 502.826C316.162 501.788 318.064 500.926 319.964 500.06C319.964 500.232 320.138 500.232 320.138 500.406C319.618 500.578 319.274 501.27 318.582 501.27H321.002C320.482 501.27 319.792 502.826 318.928 503.862C325.148 502.306 330.854 500.924 336.384 499.542V499.196C335.694 499.368 335.174 499.368 334.656 499.542C334.484 495.912 338.456 497.122 339.842 495.048C338.112 495.568 336.382 496.084 334.656 496.43V496.084C340.532 493.492 346.582 490.9 352.456 488.306C352.456 488.48 352.632 488.48 352.632 488.652C351.592 489.344 350.558 489.862 349.002 490.726C350.038 490.9 350.73 490.9 351.248 491.072C351.248 491.592 351.248 491.936 351.076 492.112C354.014 491.936 353.322 489.344 354.186 487.788C354.706 487.96 355.396 488.308 355.916 488.134C357.47 487.788 358.854 487.27 360.408 486.754C362.138 486.234 363.866 485.714 365.594 485.022C368.36 483.812 370.952 482.258 373.718 480.874C374.236 480.702 375.098 480.874 375.792 480.874C376.31 480.874 376.656 480.528 377.002 480.184C377.692 479.664 378.382 478.628 378.902 478.8C381.322 479.146 383.05 478.282 383.742 476.036C383.916 476.036 383.916 475.862 384.088 475.862C384.952 475.172 385.816 474.482 386.68 473.962C390.484 471.886 394.112 469.814 397.916 467.738C398.088 467.566 398.434 467.738 398.78 467.738C399.298 467.738 399.99 467.738 400.334 467.566C402.582 466.528 404.654 465.32 406.73 464.11C406.21 463.936 406.73 463.764 405.002 463.59V463.244C406.73 462.9 407.248 462.726 408.286 462.38L407.94 462.036C412.434 457.542 418.138 454.258 422.458 450.456C423.322 450.628 423.668 450.8 424.186 450.8C424.36 450.282 424.36 449.764 424.36 449.42C425.05 448.554 425.74 447.516 426.606 446.826C430.406 443.368 434.558 440.43 438.014 436.8C443.026 431.788 447.866 426.604 452.36 421.246C456.508 416.406 460.656 411.566 464.112 406.208C468.952 398.776 473.1 391.172 477.42 383.394C480.532 377.862 483.298 372.334 486.408 366.8C486.754 366.282 487.446 365.592 487.964 365.592C492.63 365.072 497.298 364.726 501.792 364.208C502.828 364.036 504.038 363.344 505.076 362.828C504.556 361.962 504.21 360.924 503.692 360.06C503.002 359.022 501.964 358.16 501.272 357.122C500.582 356.258 500.064 355.222 499.544 354.184C499.024 353.32 498.508 352.628 497.988 351.764C496.952 349.864 495.914 347.964 495.048 345.888C494.878 345.368 494.532 344.504 494.704 343.988C497.816 337.248 499.024 329.988 501.964 323.248C504.902 316.332 505.764 308.554 507.15 301.122C508.36 294.036 509.05 286.95 509.914 279.862C510.434 274.85 511.124 270.01 511.298 264.998C512.334 257.048 511.988 249.618 511.816 242.184V242.184ZM77.2958 435.072C76.0898 433.692 75.0518 432.134 73.8418 430.752L74.3598 430.232C76.2598 432.308 78.1638 434.38 80.0638 436.628C79.0278 436.11 77.8178 435.764 77.2978 435.072H77.2958ZM80.0638 436.628C80.5818 436.456 81.1018 436.456 81.6198 436.282C82.1378 437.146 82.4838 438.184 82.9998 439.222C80.5798 439.048 79.3718 438.01 80.0638 436.628ZM259.816 508.01V507.492C263.1 507.146 266.212 506.8 269.496 506.456V506.976C266.29 507.492 263.058 507.837 259.816 508.01V508.01ZM303.372 503.516C300.952 504.036 298.36 504.38 295.94 504.726C295.076 504.9 294.04 505.766 293.694 504.208C293.348 504.38 293.002 504.38 292.654 504.554C293.52 507.146 295.594 505.074 297.322 506.11C293.52 506.63 289.89 506.974 286.262 507.492V507.146C287.298 506.974 288.508 506.8 289.546 506.628V506.11C287.816 505.936 286.086 505.764 284.36 505.764C283.84 505.764 283.15 506.456 282.632 506.628C281.94 506.8 281.248 506.974 280.384 506.974C277.444 507.146 274.508 507.146 271.742 507.32C271.57 507.32 271.222 507.146 271.052 507.146V506.628C282.632 505.072 294.04 503.516 305.62 501.962C305.792 502.306 305.792 502.652 305.964 502.998C304.928 502.998 304.236 503.344 303.372 503.518V503.516ZM305.964 501.788C309.94 501.27 313.57 500.924 317.372 500.408C309.422 502.652 306.83 502.998 305.964 501.788ZM155.422 152.83C160.954 145.224 166.656 137.618 172.188 129.84C173.916 127.594 175.298 125.174 177.028 122.928C177.546 122.236 178.236 121.89 179.102 121.198L178.928 120.854C179.62 119.988 180.308 119.298 180.656 118.606C181.52 117.226 182.04 115.668 182.73 114.112C182.904 113.766 183.422 113.422 183.422 113.422C185.842 114.63 185.842 112.038 186.706 111.174C188.255 109.431 189.753 107.645 191.2 105.816C192.236 104.436 193.274 103.224 194.138 101.668C194.31 101.15 193.792 100.288 193.618 99.5942H193.102C193.62 99.2482 194.138 98.7302 194.656 98.3842C194.83 98.3842 194.83 98.3842 195.002 98.2122C196.04 96.6562 197.076 95.1002 198.114 93.7182C200.188 90.9522 202.434 88.1862 204.854 85.7662C204.508 86.6302 204.162 87.4962 203.818 88.1862C203.99 88.1862 203.99 88.3602 204.162 88.3602C206.236 85.5942 208.482 83.0022 210.558 80.2362C210.384 80.0642 210.212 79.8902 210.038 79.8902C209.176 80.7542 208.484 81.6182 207.618 82.4822C207.446 82.3102 207.274 82.1382 207.098 82.1382C208.83 79.8902 210.558 77.6442 212.286 75.0502C212.632 75.5702 212.978 76.2602 213.666 77.6442C214.36 75.9142 215.052 74.7042 215.57 73.4962C215.05 74.0162 214.36 74.5322 213.842 75.0502L213.322 74.5322L216.434 69.8662C219.718 65.1982 223.002 60.3602 226.286 55.6922C227.496 53.9642 229.052 52.5822 230.086 50.8542C233.372 44.2862 238.558 39.1002 242.532 33.0502C243.398 31.8422 244.606 30.8042 245.644 29.7662C246.508 28.7302 247.2 29.0762 247.892 29.9402C252.558 35.8162 257.224 41.8662 261.89 47.7422C265.348 52.0642 268.804 56.2122 272.088 60.7042C276.064 66.2362 279.866 71.7662 283.842 77.2982C288.336 83.6922 292.83 90.0882 297.15 96.6582C303.718 106.334 309.94 116.014 316.508 125.692C321.348 132.78 326.188 139.692 330.854 146.78H322.038C313.916 146.606 305.618 145.914 297.496 146.26C286.434 146.78 275.2 147.988 264.136 148.852C250.136 150.062 235.964 150.236 221.966 150.236C216.952 150.236 211.94 150.926 206.926 151.272C200.878 151.618 195.002 151.964 188.952 152.138C181.866 152.482 174.952 152.658 167.866 152.828C163.892 153.002 159.742 152.828 155.422 152.828V152.83ZM353.668 232.334V233.89C353.496 233.89 353.322 234.062 352.976 234.062C352.286 231.642 351.594 229.05 350.73 226.63C349.002 221.618 347.1 216.606 343.99 212.112C340.53 207.272 337.422 202.26 333.964 197.248C333.1 196.038 331.89 195 330.854 193.964C327.224 189.988 323.594 185.84 318.928 182.904C312.014 178.584 304.928 174.952 297.322 171.84C295.248 170.976 293.348 169.94 291.274 168.73H295.422L324.978 168.212C331.372 168.038 337.594 168.038 343.99 167.692C345.546 167.692 346.41 168.212 347.274 169.594C348.83 172.186 350.384 174.778 352.112 177.374C352.286 177.716 352.632 178.236 352.632 178.754C352.632 182.556 352.632 186.534 352.804 190.334C352.978 194.31 353.322 198.114 353.496 202.088C353.496 206.062 353.15 210.21 353.322 214.358C353.496 220.238 353.668 226.284 353.668 232.334V232.334ZM167.692 174.432C175.816 174.086 183.592 173.566 191.544 173.222C197.764 172.876 204.16 172.702 210.382 172.358C212.976 172.184 215.396 172.012 217.988 172.358C215.222 173.74 212.458 175.122 210.038 176.852C206.926 178.924 203.988 181.692 200.876 183.938C197.766 186.184 195 188.95 192.408 191.888C189.124 195.864 185.494 199.32 182.038 203.122C179.618 205.888 176.852 208.482 174.778 211.418C171.838 215.222 169.248 219.37 166.482 223.69C167.346 207.27 168.382 191.024 167.692 174.432V174.432ZM280.556 340.702C275.024 342.084 269.322 343.642 263.616 344.332C258.776 345.024 253.766 344.852 248.754 344.852C244.26 344.852 239.938 344.678 235.444 344.332C230.432 343.814 225.42 343.294 220.58 341.048C216.432 339.148 212.112 337.418 207.964 335.344C203.816 333.27 199.664 330.85 196.556 327.048C194.308 324.282 191.196 322.036 188.432 319.616C188.935 321.699 190.24 323.5 192.062 324.628C191.198 325.668 189.988 325.148 188.26 322.382C187.74 322.726 187.22 322.902 186.876 323.072C187.396 321.862 187.914 320.654 188.432 319.616C187.742 318.236 186.876 316.678 186.186 315.296C184.796 313.029 183.47 310.724 182.21 308.382C181.864 307.862 181.864 307.344 181.518 306.826C180.654 305.788 179.79 304.752 179.098 303.714C177.716 301.64 176.506 299.394 174.778 297.32C174.778 297.84 174.95 298.356 174.95 299.048C174.778 299.048 174.606 299.22 174.606 299.22L170.976 290.406C170.802 290.406 170.802 290.406 170.63 290.58L173.742 301.986C173.568 301.986 173.396 302.16 173.222 302.16C172.702 301.468 172.186 300.776 171.84 299.912C171.494 298.532 170.458 298.532 169.592 299.048C169.072 299.394 168.728 300.604 168.902 301.122C170.112 304.062 171.494 306.998 172.876 309.938C173.222 310.974 173.568 311.838 174.086 312.878C174.26 313.222 174.778 313.566 174.778 314.086C175.47 315.468 175.988 316.85 176.852 318.06C178.408 320.134 180.136 322.208 181.692 324.282C183.248 326.356 184.63 328.604 186.012 330.678C186.186 331.024 186.704 331.024 186.876 331.198C187.742 333.788 190.68 335.69 192.754 334.654C193.272 338.628 197.592 340.014 199.322 343.814C197.625 343.123 195.953 342.373 194.308 341.566C194.136 341.74 194.136 341.912 193.964 342.258C196.038 343.294 198.112 344.332 200.012 345.542C201.74 346.578 203.47 347.616 205.024 348.826C207.1 350.726 209.518 351.766 212.458 352.456C212.284 351.936 212.112 351.764 212.112 351.764C216.693 353.891 221.245 356.081 225.766 358.332C207.79 358.678 188.606 359.024 168.726 359.368C168.726 356.084 168.556 352.974 168.556 349.69C168.556 348.31 168.902 347.098 168.728 345.714C168.208 337.764 168.208 329.814 167.174 322.036C166.134 313.74 166.134 305.616 166.31 297.32C166.482 292.826 166.136 288.16 165.964 283.666C165.964 277.616 165.964 271.74 166.136 265.69C166.136 264.826 166.482 264.134 166.828 263.27H167.346C167.518 263.616 167.346 264.134 167.692 264.31C168.21 264.826 169.072 265.69 169.42 265.518C170.458 264.826 172.012 264.134 172.358 263.098C173.222 261.024 173.568 258.778 173.568 256.702C173.568 255.148 174.26 254.11 174.948 253.072C175.296 252.554 175.468 252.036 175.816 251.344C175.124 250.826 174.432 250.48 173.568 249.79C174.26 247.89 174.086 245.64 176.68 244.604C177.026 244.43 177.026 243.566 177.198 243.048C177.37 241.668 177.544 240.11 177.716 238.728C178.062 239.248 178.234 239.418 178.58 239.764C178.754 239.418 178.926 239.246 178.926 239.246C178.926 238.554 178.754 237.172 178.926 237.172C181 236.826 180.136 234.58 181.174 233.542C181.346 233.37 181 232.85 181 232.506C181 232.16 181 231.64 181.174 231.64C183.592 231.122 183.248 228.53 184.802 227.32C185.322 226.974 185.494 226.456 186.186 225.592C187.566 228.012 185.146 229.222 184.976 230.952C187.914 229.222 188.776 225.074 187.05 223.864C187.742 223.344 188.43 222.654 188.95 221.964C190.85 219.888 192.926 217.986 194.654 215.912C195.864 214.356 196.554 212.456 197.766 210.9C198.458 210.036 199.84 209.344 200.876 208.826C203.988 207.098 206.926 205.196 208.828 202.258C209.174 201.912 209.692 201.566 210.208 201.222C210.728 200.876 211.766 200.876 211.938 200.356C212.112 200.012 211.592 199.148 211.246 198.628C211.938 198.282 212.63 197.592 214.012 196.9C213.492 197.94 213.322 198.628 212.976 199.32L213.84 200.184C215.396 198.974 217.816 197.592 219.37 196.554C219.37 196.382 218.506 195.69 218.506 195.69C217.47 196.21 215.914 197.074 214.358 197.764C214.704 197.246 214.704 196.9 214.876 196.728C217.296 195.172 219.716 193.616 222.308 192.408C228.358 189.64 234.408 186.876 240.456 184.282C241.494 183.764 242.876 184.11 244.086 184.11C244.604 184.11 244.95 184.11 245.47 183.938C248.234 183.074 251 182.21 253.766 181.518C255.004 181.177 256.282 181.002 257.566 181C262.754 181.172 267.938 181.172 273.124 181.52C275.37 181.69 277.444 182.21 279.518 182.9C282.112 183.764 284.876 184.974 287.296 186.184C290.217 187.747 293.045 189.479 295.766 191.37C300.778 194.654 305.444 198.282 310.456 201.222C315.296 204.162 319.096 208.134 322.21 212.628C326.01 217.988 330.334 222.828 332.062 229.394L334.654 240.802C335.172 242.876 336.382 244.95 335.864 247.37C335 251.69 334.308 256.184 333.618 260.506C333.272 262.234 332.926 263.962 333.098 265.69C333.444 271.05 331.37 275.714 329.296 280.554C328.604 282.11 327.568 283.666 326.704 285.394C326.876 285.566 327.914 286.086 328.084 286.086L329.642 282.974C329.814 282.974 329.814 282.974 329.988 283.148C329.124 285.568 328.432 288.16 327.568 290.58C325.494 295.94 323.42 301.468 320.828 306.654C319.444 309.594 317.024 312.014 315.296 314.776C313.568 317.196 312.186 319.788 310.456 322.036C308.902 323.938 307.346 325.838 305.272 327.222C300.604 330.678 295.766 334.134 290.752 336.902C287.642 338.802 284.012 339.838 280.556 340.702V340.702ZM188.432 331.542L188.26 331.714C187.914 331.542 187.396 331.368 187.05 331.024L182.902 324.804C182.556 324.284 182.382 323.764 182.556 323.072C184.415 325.963 186.375 328.788 188.432 331.542V331.542ZM295.938 355.222C303.716 351.936 310.112 347.27 315.988 341.912C316.852 341.048 317.716 340.184 318.754 339.492C326.012 334.998 331.37 328.776 336.21 321.862C341.74 313.912 345.37 304.924 349.864 296.456C350.21 295.764 350.556 295.072 350.902 294.556C350.556 314.258 352.802 333.616 355.394 353.146C335.864 353.838 315.988 354.53 295.938 355.22V355.222ZM471.198 350.036C471.024 350.382 470.678 350.726 470.506 351.072C470.332 350.726 470.332 350.208 470.16 349.518C469.12 352.282 466.876 350.9 465.32 350.9C455.988 351.072 446.48 351.072 437.148 351.072C428.16 351.072 419 351.072 410.012 351.246C407.072 351.246 403.962 351.936 401.024 352.11C393.938 352.456 386.852 352.63 379.764 352.8C379.244 352.8 378.728 351.936 377.864 351.246C377.692 351.592 377.344 352.11 376.824 352.8C376.654 352.456 376.308 352.11 375.962 351.592C375.817 352.063 375.643 352.525 375.442 352.974H374.926C374.58 350.554 373.886 348.308 373.886 345.888C373.886 340.702 374.406 335.518 374.58 330.332C374.752 327.912 374.58 325.666 374.58 323.418C375.272 323.938 375.79 324.282 376.48 324.802C376.826 324.11 377.172 323.592 377.518 323.072C377.518 323.072 377.172 322.9 376.826 322.554C377.172 322.382 377.518 322.036 377.518 321.864C377.692 321.344 378.036 320.826 378.036 320.48C378.036 319.27 377.692 318.234 377.516 317.196C377.692 317.196 377.864 317.196 378.036 317.024L379.074 322.208H379.592C378.902 320.998 381.148 319.962 379.246 318.578C379.074 318.406 379.42 317.368 379.42 316.85C378.9 315.814 378.556 314.776 378.036 313.394C378.21 313.222 378.728 313.048 379.246 312.876C378.556 312.53 378.036 312.184 377.518 312.01C379.246 310.456 379.246 309.592 377.692 307.862C378.036 307.69 378.382 307.69 378.382 307.518C378.382 305.962 378.382 304.406 378.036 302.85C377.692 301.122 378.556 299.05 375.962 298.012C376.122 298.505 376.356 298.971 376.654 299.394C376.654 299.394 376.134 299.566 375.614 299.914C373.37 297.838 374.752 295.074 374.234 291.962C375.444 292.308 376.308 292.654 377.172 292.998C376.826 291.79 375.962 290.406 375.444 288.85H374.752V277.444C374.752 277.616 375.962 277.616 376.652 277.788C376.652 277.616 376.826 277.444 376.826 277.27C376.306 276.578 375.616 275.89 374.926 275.024L375.272 274.678C373.888 272.95 374.58 270.53 374.58 270.012V257.912C376.308 259.64 373.716 261.888 376.308 262.924V261.196H376.136C375.962 258.604 375.962 256.012 375.79 253.418H375.444C375.272 253.764 375.272 253.938 375.098 254.282H374.752C375.098 240.628 375.444 226.974 375.79 212.974C377.518 215.222 379.42 217.296 380.63 219.542C384.604 226.802 389.79 233.024 394.63 239.592C398.778 245.296 402.58 251.518 406.382 257.394C411.048 264.48 415.542 271.566 420.21 278.654C423.681 284.021 427.254 289.322 430.926 294.554C434.21 299.22 437.666 303.714 441.124 308.208C444.062 312.184 447.172 316.16 450.11 320.134C453.568 324.974 457.024 329.814 460.482 334.48C462.21 336.9 464.11 339.32 466.012 341.74C467.048 343.122 468.604 344.16 469.642 345.024C469.468 345.024 469.296 345.024 468.95 344.85C469.468 345.542 469.814 346.06 470.16 346.406C472.06 347.442 472.234 348.48 471.198 350.036V350.036ZM480.012 306.826V305.616C480.012 305.962 480.184 306.48 480.012 306.826ZM485.888 230.606C485.716 230.606 484.678 229.566 484.506 229.394C484.332 229.914 484.506 230.43 484.16 231.122C483.988 230.604 482.778 230.776 482.778 230.258C482.604 232.678 483.814 235.098 483.642 237.518C484.16 237.172 486.234 236.998 486.752 236.48C486.926 236.654 487.27 236.826 487.444 236.826C483.988 239.418 484.852 242.012 486.404 244.95C486.752 245.64 487.79 247.024 486.752 248.406C486.406 248.752 486.926 249.79 487.098 250.654H487.616V250.998L486.062 251.518C485.716 250.998 483.642 249.962 483.642 249.098V257.912C485.37 258.432 485.37 260.852 486.062 262.06C486.406 261.542 486.58 261.196 486.752 260.68L486.926 260.85C486.752 261.89 486.58 262.924 486.234 263.962C485.888 265.518 485.542 266.902 485.37 268.456C485.37 268.628 485.716 268.976 485.716 269.146C483.814 273.468 484.852 278.308 484.16 282.802C483.64 286.086 484.16 289.542 483.814 292.998C483.468 295.938 482.778 299.048 482.086 301.986C481.914 302.506 481.566 302.678 480.704 303.026C481.048 300.95 480.876 299.566 480.53 297.666C480.358 297.666 478.11 296.456 477.938 296.456C477.938 298.876 479.318 302.16 479.838 304.924C479.318 304.752 477.246 303.544 477.074 303.544C476.728 305.616 476.728 308.384 476.554 310.628C476.382 312.356 474.826 313.912 474.654 315.814C474.654 316.85 475.864 317.542 475.69 319.27H477.074C477.074 315.814 478.63 312.702 478.63 309.072H479.148C479.32 309.418 479.84 309.764 479.666 309.938C479.32 311.838 478.63 313.912 478.802 315.814C478.802 316.85 479.666 317.888 479.32 319.098C478.974 320.134 478.8 321.172 478.63 322.726C478.456 321.862 478.284 321.518 478.284 320.998C478.11 320.998 476.556 320.826 476.382 320.826C476.21 321.862 477.592 322.9 477.42 323.766C477.246 323.938 477.074 323.938 476.728 324.11L471.024 315.814C466.53 309.246 462.036 302.678 457.542 295.938C456.38 294.288 455.34 292.555 454.432 290.752C449.072 281.592 443.198 272.776 436.63 264.308C431.616 257.912 427.642 250.998 422.974 244.258C418.654 237.864 414.332 231.64 410.012 225.246C408.456 223.172 406.556 221.27 405.172 219.026C400.678 211.938 396.704 204.678 392.21 197.592C388.408 191.714 384.258 186.012 380.284 180.308C378.861 178.319 377.478 176.302 376.136 174.258C375.962 173.912 375.79 173.566 375.79 173.048C375.444 169.248 375.098 165.444 374.926 161.814C374.926 158.356 375.272 154.9 375.272 151.27V148.16C375.272 147.296 375.444 146.604 375.444 145.74C375.616 145.566 375.79 145.222 375.962 145.048C370.95 145.048 365.766 144.876 360.752 145.048C357.47 145.222 355.74 143.838 353.492 141.42C346.926 133.986 342.086 125.52 336.382 117.568C331.022 109.962 325.494 102.53 319.962 95.0982C315.47 89.0482 310.976 83.1722 306.482 77.1222C301.47 70.2102 296.63 63.2962 291.442 56.3822C285.222 48.0862 278.828 39.7902 272.432 31.4942C269.492 27.6902 266.21 24.0622 262.926 20.0862C265.172 20.4322 267.246 20.7782 269.322 20.9502L277.618 21.4702C283.838 21.9902 290.062 22.3322 296.284 23.1962C301.47 23.8882 306.654 24.9262 312.012 25.7902C323.42 27.6902 334.652 30.8022 345.544 34.4322C351.938 36.5062 358.16 39.2722 364.382 41.8642C378.382 47.5682 391.692 54.4802 404.826 61.7402C408.976 63.9862 411.394 67.6162 414.506 70.9002C419 75.5682 423.494 80.2342 427.814 85.0742C432.826 90.7782 437.494 96.6542 442.332 102.53C446.652 107.716 451.148 112.9 455.468 118.086C456.852 119.642 457.888 121.542 459.098 123.27C461.864 127.418 464.974 131.394 467.394 135.89C469.124 139.172 470.16 142.974 471.37 146.604C473.098 151.964 474.826 157.148 476.556 162.506C477.774 166.548 478.812 170.642 479.666 174.776C480.358 177.542 480.184 180.48 481.046 183.246C482.086 186.876 481.046 190.85 482.086 194.48C482.258 194.826 482.432 195.344 482.604 195.69C483.296 196.382 483.814 197.072 482.778 198.11C482.604 198.282 482.604 198.974 482.778 199.492C483.122 199.148 483.296 198.802 483.642 198.282C483.642 198.628 483.814 198.802 483.814 198.974C483.814 199.666 483.642 200.356 483.814 201.048C483.814 201.394 484.16 201.912 484.332 202.258C484.678 201.912 485.024 201.74 485.716 201.222C487.27 207.098 487.444 212.974 487.444 219.024C487.444 224.728 488.48 230.43 486.062 235.964C486.58 234.06 485.37 232.332 485.888 230.604V230.606Z" fill="#DD3735"/>
<path d="M376.002 298.394C376.174 298.394 376.348 298.568 376.348 298.568L376.174 298.394C376.174 298.222 376.174 298.222 376.002 298.394ZM403.31 469.16C401.41 470.542 399.508 471.752 397.088 472.27C396.916 472.098 396.916 471.924 396.742 471.752C398.644 470.542 400.718 469.332 402.62 468.122C402.792 468.468 403.138 468.814 403.31 469.16V469.16ZM79.238 234.962C81.138 232.542 83.04 230.122 85.114 227.704C85.286 227.876 86.67 228.222 86.842 228.394C84.942 230.814 82.348 234.098 80.448 236.69C80.102 236.346 79.584 235.136 79.238 234.962V234.962ZM30.152 319.654C28.768 316.716 27.386 313.604 26.004 310.666C26.176 310.494 27.386 309.974 27.558 309.974C29.46 312.74 30.324 316.024 31.706 318.962C31.706 318.962 30.324 319.654 30.152 319.654ZM74.226 236.69C73.188 238.246 72.152 239.974 71.114 241.53C70.942 241.358 69.04 242.222 68.868 242.048C69.904 240.494 72.496 237.728 73.534 236.172C73.706 236.346 73.88 236.518 74.226 236.69ZM384.816 476.246C384.99 476.246 384.99 476.072 385.162 476.072C386.372 476.246 387.756 476.418 389.138 476.418C386.89 477.974 385.508 477.802 384.816 476.246ZM74.57 243.95C74.744 243.432 75.09 242.912 75.434 242.394C75.78 242.394 76.3 242.222 76.3 242.222C76.99 241.012 76.99 240.148 77.682 239.11C77.51 238.938 77.336 238.938 77.164 238.764C76.126 239.456 75.09 240.32 74.052 241.012C74.398 241.358 74.398 241.53 74.398 241.876C73.016 241.704 72.496 242.394 71.806 244.296C71.632 244.814 70.768 244.986 69.904 245.678C69.732 246.024 69.558 246.888 69.212 247.752L69.386 247.926C69.1352 248.154 68.8415 248.33 68.522 248.444C67.484 249.48 66.274 250.346 65.238 251.382C65.064 251.9 64.892 252.42 64.892 252.938C66.102 251.728 68.176 249.48 69.732 248.098L69.904 248.27C70.596 247.234 71.114 246.196 71.806 245.16C71.978 245.332 71.978 245.506 72.152 245.678C71.632 247.06 71.114 248.616 70.596 250C70.25 250.172 69.732 250.518 69.732 250.346C69.04 250.864 68.522 251.554 67.83 252.074L64.72 254.148C62.99 255.704 61.262 257.086 59.362 258.642C58.152 260.542 56.942 262.27 55.558 264.518C57.632 264 58.152 264.864 57.978 266.592C60.398 266.938 60.57 265.036 61.262 263.654C61.436 263.308 61.608 262.616 61.954 262.444C63.51 261.062 65.238 259.852 66.966 258.468C67.312 258.122 67.312 257.432 67.312 256.912C67.312 256.74 66.448 256.74 65.93 256.568C67.484 254.838 69.732 251.9 71.288 250C72.152 249.48 73.016 248.79 73.016 248.27C72.842 246.37 74.052 245.852 75.434 245.16C74.744 244.642 74.57 244.122 74.57 243.95V243.95Z" fill="#DD3735"/>
<path d="M78.028 242.048C77.336 243.258 76.646 244.296 75.954 245.506L74.916 244.986C74.226 248.962 71.806 252.42 69.386 253.11C70.078 253.456 70.768 253.802 71.288 253.628C71.806 253.456 72.152 252.592 72.496 252.074L77.164 245.332L78.72 242.74L78.028 242.048V242.048ZM20.472 317.924C21.336 317.924 22.2 318.098 23.238 318.098C23.238 317.406 24.102 317.58 24.102 316.888H24.62C24.62 317.752 24.794 318.444 24.794 319.308H21.164C20.99 319.134 20.3 318.098 20.472 317.924ZM19.09 309.974C18.572 309.456 17.706 308.938 17.706 308.418C17.534 307.728 18.052 306.864 18.572 306C18.916 307.208 19.09 308.246 19.436 309.456C19.262 309.628 19.09 309.802 19.09 309.974ZM23.41 298.912C24.102 300.642 24.794 302.542 25.484 304.27C25.312 304.27 24.274 304.79 24.102 304.962C23.41 303.234 22.546 301.332 21.856 299.604C22.028 299.432 23.064 298.912 23.41 298.912ZM408.15 464.148C409.014 463.802 410.052 463.628 411.434 463.282C409.878 464.492 408.668 465.356 407.632 466.394C407.458 466.22 407.286 466.048 407.114 466.048C407.458 465.356 407.804 464.838 408.15 464.146V464.148V464.148ZM195.732 98.938C196.768 98.246 197.632 97.728 198.67 97.036L199.016 97.382C197.978 98.766 197.114 100.148 195.904 101.876C195.732 100.666 195.732 99.974 195.558 99.11C195.386 99.11 195.558 99.11 195.732 98.938ZM246.372 186.394C247.928 185.704 249.484 185.012 251.386 184.148C251.212 185.184 251.212 185.876 251.212 186.568C250.694 186.394 250.002 186.222 249.484 186.222C248.448 186.394 246.546 187.778 245.682 187.95C245.508 187.95 246.372 186.568 246.372 186.394V186.394ZM376.002 332.962C376.348 334.69 379.632 335.554 376.348 337.282C376.866 337.628 377.384 337.802 377.904 338.148C377.904 338.32 377.73 338.666 377.558 338.838C377.212 339.012 376.52 339.358 376.174 339.184C376.002 339.184 375.656 338.492 375.656 338.148C375.656 336.592 375.83 335.036 376.002 332.962Z" fill="#DD3735"/>
</g>
<defs>
<clipPath id="clip0">
<rect width="512" height="512" fill="white"/>
</clipPath>
</defs>
</svg>
