<?xml version="1.0" encoding="UTF-8"?>
<svg width="151px" height="151px" viewBox="0 0 151 151" version="1.1" xmlns="http://www.w3.org/2000/svg" xmlns:xlink="http://www.w3.org/1999/xlink">
    <!-- Generator: Sketch 55.2 (78181) - https://sketchapp.com -->
    <title>social-instagram</title>
    <desc>Created with Sketch.</desc>
    <g id="Page-1" stroke="none" stroke-width="1" fill="none" fill-rule="evenodd">
        <g id="social-instagram" fill="#000000" fill-rule="nonzero">
            <path d="M75.5,151 C33.8025014,151 0,117.197499 0,75.5 C0,33.8025014 33.8025014,0 75.5,0 C117.197499,0 151,33.8025014 151,75.5 C151,117.197499 117.197499,151 75.5,151 Z M120,95.42 L119.97,55.58 C119.958971,42.0259802 108.97402,31.0410285 95.42,31.03 L55.58,31.03 C42.0259802,31.0410285 31.0410285,42.0259802 31.03,55.58 L31.03,95.42 C31.0410285,108.97402 42.0259802,119.958971 55.58,119.97 L95.45,119.97 C109.00402,119.958971 119.988971,108.97402 120,95.42 Z M95.42,38.92 L55.58,38.92 C46.3812221,38.9255165 38.9255165,46.3812221 38.92,55.58 L38.92,95.42 C38.9255165,104.618778 46.3812221,112.074483 55.58,112.08 L95.42,112.08 C104.618778,112.074483 112.074483,104.618778 112.08,95.42 L112.08,55.58 C112.074483,46.3812221 104.618778,38.9255165 95.42,38.92 Z M74.57,96.43 C65.5253144,96.43 57.3714151,90.9810774 53.9110987,82.6244902 C50.4507823,74.2679031 52.3656425,64.6496844 58.7626313,58.2555564 C65.1596202,51.8614285 74.7786945,49.950871 83.1337329,53.4149252 C91.4887713,56.8789793 96.934045,65.0353153 96.9300045,74.08 C96.9134625,86.4206112 86.9106174,96.4189828 74.57,96.43 Z M74.5002246,90 C83.0546414,89.992363 89.9885332,83.0615714 90,74.5071581 C90.0028008,68.2374547 86.2281808,62.5835476 80.4365354,60.1822928 C74.6448899,57.7810381 67.9770249,59.1054213 63.5426836,63.5377798 C59.1083424,67.9701384 57.7809767,74.637411 60.1796402,80.4301306 C62.5783037,86.2228503 68.2305212,90 74.5002246,90 Z M102.26,57.06 C100.273079,59.0394959 97.1646845,59.340135 94.8352334,57.7781117 C92.5057824,56.2160885 91.6038104,53.2262813 92.6807671,50.6366051 C93.7577238,48.0469288 96.5137769,46.5783676 99.2639245,47.1287737 C102.014072,47.6791797 103.992654,50.0953161 103.990006,52.9 C103.983071,54.4602626 103.361491,55.9549281 102.26,57.06 Z" id="Shape"></path>
        </g>
    </g>
</svg>