<?xml version="1.0" encoding="UTF-8"?>
<svg width="151px" height="151px" viewBox="0 0 151 151" version="1.1" xmlns="http://www.w3.org/2000/svg"
    xmlns:xlink="http://www.w3.org/1999/xlink">
    <title>social-linkedin</title>
    <desc>Created with Sketch.</desc>
    <g id="Page-1" stroke="none" stroke-width="1" fill="none" fill-rule="evenodd">
        <g id="social-linkedin" fill="#000000" fill-rule="nonzero">
            <path d="M80.36,69.55 L80.36,69.38 C80.3167008,69.4342643 80.2766316,69.4910291 80.24,69.55 L80.36,69.55 Z"
                id="Shape"></path>
            <path
                d="M75.5,151 C117.197499,151 151,117.197499 151,75.5 C151,33.8025014 117.197499,0 75.5,0 C33.8025014,0 0,33.8025014 0,75.5 C0,117.197499 33.8025014,151 75.5,151 Z M53.4,114.18 L36.05,114.18 L36.05,61.98 L53.4,61.98 L53.4,114.18 Z M44.73,54.86 L44.61,54.86 C38.79,54.86 35.02,50.86 35.02,45.86 C35.02,40.86 38.9,36.86 44.84,36.86 C50.78,36.86 54.43,40.75 54.54,45.86 C54.65,50.97 50.78,54.86 44.73,54.86 Z M115.98,114.18 L98.63,114.18 L98.63,86.25 C98.63,79.25 96.12,74.45 89.84,74.45 C85.8278445,74.4751911 82.2631135,77.0157121 80.93,80.8 C80.4887532,82.1646096 80.2957001,83.5972671 80.36,85.03 L80.36,114.18 L63,114.18 C63,114.18 63.23,66.88 63,61.98 L80.36,61.98 L80.36,69.38 C82.66,65.83 86.78,60.76 96,60.76 C107.42,60.76 116,68.22 116,84.25 L115.98,114.18 Z"
                id="Shape"></path>
        </g>
    </g>
</svg>
