<?xml version="1.0" encoding="UTF-8"?>
<svg width="151px" height="151px" viewBox="0 0 151 151" version="1.1" xmlns="http://www.w3.org/2000/svg"
    xmlns:xlink="http://www.w3.org/1999/xlink">
    <title>social-twitter</title>
    <desc>Created with Sketch.</desc>
    <g id="Page-1" stroke="none" stroke-width="1" fill="none" fill-rule="evenodd">
        <g id="social-twitter" fill="#000000" fill-rule="nonzero">
            <path
                d="M75.5,151 C33.8025014,151 0,117.197499 0,75.5 C0,33.8025014 33.8025014,0 75.5,0 C117.197499,0 151,33.8025014 151,75.5 C151,117.197499 117.197499,151 75.5,151 Z M116,51.36 L116.01,51.36 C116.321951,50.8586867 116.277623,50.2139051 115.9,49.76 C115.525179,49.3087177 114.896034,49.1616448 114.36,49.4 C113.082898,49.9793545 111.76625,50.4672493 110.42,50.86 C112.024294,49.0094151 113.229426,46.8476666 113.96,44.51 C114.129191,43.9842374 113.958463,43.4085272 113.53,43.06 C113.10393,42.7162681 112.50818,42.6762849 112.04,42.96 C109.206193,44.6748085 106.112534,45.9176759 102.88,46.64 C99.62206,43.4051555 95.2211005,41.5836972 90.63,41.57 C85.5703541,41.6803865 80.7947822,43.9309569 77.4889953,47.7629243 C74.1832085,51.5948918 72.6572518,56.6488616 73.29,61.67 C61.2138474,60.5511964 50.116112,54.5563246 42.56,45.07 C42.290439,44.7318025 41.8713291,44.5484419 41.44,44.58 C41.0213956,44.6304235 40.6509357,44.874927 40.44,45.24 C36.7267616,51.7810852 37.4431965,59.9365027 42.24,65.73 C41.4301165,65.4467399 40.6470314,65.092009 39.9,64.67 C39.5020101,64.4353571 39.0079899,64.4353571 38.61,64.67 C38.2070931,64.9048956 37.9566596,65.333668 37.95,65.8 C37.9450136,65.8765856 37.9450136,65.9534144 37.95,66.03 C37.9421148,72.2784351 41.1895137,78.0797977 46.52,81.34 C46.07,81.3 45.63,81.23 45.18,81.15 C44.7245592,81.062396 44.2567449,81.2221375 43.95,81.57 C43.6436917,81.9288923 43.5452894,82.4209039 43.69,82.87 C45.5358564,88.8409703 50.4129718,93.3830457 56.5,94.8 C50.4632058,98.6201348 43.2922582,100.238014 36.2,99.38 C35.5881759,99.31343 35.0115341,99.6784983 34.81,100.26 C34.6091972,100.845921 34.826487,101.493691 35.34,101.84 C42.9245518,106.797545 51.7889473,109.438447 60.85,109.44 C78.65,109.44 89.79,100.9 96,93.73 C103.776171,84.6939666 108.092429,73.1910349 108.18,61.27 C108.18,60.79 108.18,60.28 108.18,59.79 C111.24207,57.4396304 113.885812,54.5896624 116,51.36 Z"
                id="Shape"></path>
        </g>
    </g>
</svg>
